<svg id="abacus" xmlns="http://www.w3.org/2000/svg" width="60.5" height="36.5" viewBox="0 0 60.5 36.5"><title>abacus</title><path d="M51.4,5.25a5.85,5.85,0,0,0-11.6,0H0v1.5H39.7A5.87,5.87,0,0,0,45.6,12a6,6,0,0,0,5.9-5.2h9V5.25H51.4ZM50,6.75H41V5.25h9v1.5Z" transform="translate(0 -0.15)"  /><path d="M32.5,17.25a5.85,5.85,0,0,0-11.6,0H0v1.5H20.8A5.87,5.87,0,0,0,26.7,24a6,6,0,0,0,5.9-5.2H60.5v-1.5h-28Zm-1.4,1.5h-9v-1.5h9v1.5Z" transform="translate(0 -0.15)"  /><path d="M43.7,30a5.85,5.85,0,0,0-11.6,0H0v1.5H32a5.87,5.87,0,0,0,5.9,5.2,6,6,0,0,0,5.9-5.2H60.5V30H43.7Zm-1.4,1.5h-9V30h9v1.5Z" transform="translate(0 -0.15)"  /></svg>