<svg xmlns="http://www.w3.org/2000/svg" id="alamo" viewBox="0 0 65 34.77"><path d="M12.09 15.35v3.75h-3v-3.75h3m.91-1H8.17v5.66H13V14.4zM12.09 24.26v3.27h-3v-3.27h3m.91-1H8.17v5.16H13v-5.11zM22.27 22.15a1.47 1.47 0 0 1 1.67 1.07v4.93H20.6v-4.93a1.47 1.47 0 0 1 1.67-1.07m0-1c-1.47 0-2.62.89-2.62 2v5.88h5.23v-5.81c0-1.13-1.15-2-2.62-2zM22.27 12.31a1.47 1.47 0 0 1 1.67 1.07v4.3H20.6v-4.3a1.47 1.47 0 0 1 1.67-1.07m0-.95c-1.47 0-2.62.89-2.62 2v5.25h5.23v-5.23c0-1.13-1.15-2-2.62-2zM55.87 15.35v3.75h-3v-3.75h3m1-.95H52v5.66h4.86V14.4zM34.15 12.1v5.1h-3.31v-5.1h3.31m1-.95h-5.26v7h5.21v-7zM55.87 24.26v3.27h-3v-3.27h3m1-1H52v5.16h4.86v-5.11zM42.73 22.15a1.47 1.47 0 0 1 1.67 1.07v4.93h-3.34v-4.93a1.47 1.47 0 0 1 1.67-1.07m0-1c-1.47 0-2.62.89-2.62 2v5.88h5.23v-5.81c0-1.13-1.15-2-2.62-2zM42.73 12.31a1.47 1.47 0 0 1 1.67 1.07v4.3h-3.34v-4.3a1.47 1.47 0 0 1 1.67-1.07m0-.95c-1.47 0-2.62.89-2.62 2v5.25h5.23v-5.23c0-1.13-1.15-2-2.62-2z"/><path d="M32.5 1.5a2.74 2.74 0 0 1 2.6 1.94l.33 1.06h1.12v.78l.81.42 3.84 2 .33.17h2.2V9h4v2.67H63.5v21.6H36.67v-7.72a4.24 4.24 0 0 0-4.13-3.29 4.22 4.22 0 0 0-4.13 3.29v7.72H1.5v-21.6h15.74V9h4V7.83h2.23l.33-.17 3.84-2 .81-.42V4.5h1.13l.32-1.07a2.73 2.73 0 0 1 2.6-1.93m0-1.5a4.23 4.23 0 0 0-4 3h-1.56v1.33l-3.84 2h-3.36v1.18h-4v2.66H0v24.6h29.83v-8.88a2.74 2.74 0 0 1 5.34 0v8.88H65V10.18H49.22V7.51h-4V6.37h-3.33l-3.89-2V3h-1.46a4.22 4.22 0 0 0-4-3z"/></svg>