<svg id="alamo" xmlns="http://www.w3.org/2000/svg" width="65" height="34.77" viewBox="0 0 65 34.77"><title>alamo</title><path d="M12.09,15.35V19.1h-3V15.35h3m0.91-1H8.17v5.66H13V14.4h0Z" transform="translate(0 0)"  /><path d="M12.09,24.26v3.27h-3V24.26h3m0.91-1H8.17v5.16H13V23.31h0Z" transform="translate(0 0)"  /><path d="M22.27,22.15a1.47,1.47,0,0,1,1.67,1.07v4.93H20.6V23.22a1.47,1.47,0,0,1,1.67-1.07m0-1c-1.47,0-2.62.89-2.62,2v5.88h5.23V23.22c0-1.13-1.15-2-2.62-2h0v0Z" transform="translate(0 0)"  /><path d="M22.27,12.31a1.47,1.47,0,0,1,1.67,1.07v4.3H20.6v-4.3a1.47,1.47,0,0,1,1.67-1.07m0-.95c-1.47,0-2.62.89-2.62,2v5.25h5.23V13.38c0-1.13-1.15-2-2.62-2h0v0Z" transform="translate(0 0)"  /><path d="M55.87,15.35V19.1h-3V15.35h3m1-.95H52v5.66h4.86V14.4h0Z" transform="translate(0 0)"  /><path d="M34.15,12.1v5.1H30.84V12.1h3.31m1-.95H29.89v7H35.1v-7h0Z" transform="translate(0 0)"  /><path d="M55.87,24.26v3.27h-3V24.26h3m1-1H52v5.16h4.86V23.31h0Z" transform="translate(0 0)"  /><path d="M42.73,22.15a1.47,1.47,0,0,1,1.67,1.07v4.93H41.06V23.22a1.47,1.47,0,0,1,1.67-1.07m0-1c-1.47,0-2.62.89-2.62,2v5.88h5.23V23.22c0-1.13-1.15-2-2.62-2h0v0Z" transform="translate(0 0)"  /><path d="M42.73,12.31a1.47,1.47,0,0,1,1.67,1.07v4.3H41.06v-4.3a1.47,1.47,0,0,1,1.67-1.07m0-.95c-1.47,0-2.62.89-2.62,2v5.25h5.23V13.38c0-1.13-1.15-2-2.62-2h0v0Z" transform="translate(0 0)"  /><path d="M32.5,1.5h0a2.74,2.74,0,0,1,2.6,1.94L35.43,4.5h1.12V5.28L37.36,5.7l3.84,2,0.33,0.17h2.2V9h4v2.67H63.5V33.27H36.67V25.72l0-.17a4.24,4.24,0,0,0-4.13-3.29,4.22,4.22,0,0,0-4.13,3.29l0,0.17v7.55H1.5V11.67H17.24V9h4V7.83h2.23l0.33-.17,3.84-2,0.81-.42V4.5h1.13L29.9,3.43A2.73,2.73,0,0,1,32.5,1.5m0-1.5a4.23,4.23,0,0,0-4,3H26.94V4.33l-3.84,2H19.74V7.51h-4v2.66H0v24.6H29.83V25.89a2.74,2.74,0,0,1,5.34,0v8.88H65V10.18H49.22V7.51h-4V6.37H41.89L38,4.37V3H36.54a4.22,4.22,0,0,0-4-3h0Z" transform="translate(0 0)"  /></svg>