<svg id="analyze" xmlns="http://www.w3.org/2000/svg" width="58.7" height="58.72" viewBox="0 0 58.7 58.72"><title>analyze</title><rect x="48.97" y="38.63" width="2" height="22.7" transform="translate(-20.71 49.98) rotate(-45)"  /><path d="M23.9,0a24,24,0,1,0,23.9,23.9A23.9,23.9,0,0,0,23.9,0Zm0,2a22.08,22.08,0,0,1,19.7,12.2L29.5,32,18.1,19.69l-13,15.4A21.42,21.42,0,0,1,2,23.89,21.89,21.89,0,0,1,23.9,2Zm0,43.8a21.92,21.92,0,0,1-17.7-8.9l11.9-14.2,11.5,12.4,14.9-18.8a21.36,21.36,0,0,1,1.4,7.6A22,22,0,0,1,23.9,45.79Z" transform="translate(0 0.01)"  /></svg>