<svg xmlns="http://www.w3.org/2000/svg" id="atom" viewBox="0 0 52.96 60"><path d="M43.4 30c7.6-6.4 10.9-11.8 9.1-15-.9-1.5-2.8-2.3-5.6-2.3A35.17 35.17 0 0 0 35 15.45C33.3 5.65 30.2.05 26.5.05s-6.8 5.6-8.5 15.4c-4.7-1.7-8.8-2.7-11.9-2.7-2.9 0-4.8.8-5.6 2.3-1.8 3.2 1.5 8.7 9.1 15C2 36.45-1.3 41.85.5 45c.9 1.5 2.8 2.3 5.6 2.3A35.17 35.17 0 0 0 18 44.65c1.7 9.8 4.8 15.4 8.5 15.4 2.8 0 5.3-3.3 7-9.2a47.52 47.52 0 0 0 1.4-6.2 37.21 37.21 0 0 0 11.9 2.6c2.9 0 4.7-.8 5.6-2.3 2-3.1-1.3-8.6-9-14.95zm-2.6 0c-1.5 1.1-3 2.3-4.7 3.4 0-1.1.1-2.3.1-3.4s0-2.2-.1-3.4c1.6 1.15 3.2 2.25 4.7 3.4zm6.1-15.6c1.5 0 3.5.3 4.2 1.4 1.3 2.3-2.3 7.6-8.9 13.1a73.5 73.5 0 0 0-6.1-4.4c-.2-2.6-.4-5.1-.8-7.5a35.71 35.71 0 0 1 11.6-2.55zm-12.7 8.9c-1-.6-1.9-1.2-2.9-1.7s-1.9-1.1-2.9-1.6c1.8-.9 3.5-1.6 5.3-2.3.2 1.85.4 3.75.5 5.65zM26.5 1.65c2.7 0 5.4 5.7 6.9 14.3-2.2.9-4.5 1.9-6.9 3.1a69.74 69.74 0 0 0-6.9-3.1c1.5-8.5 4.2-14.3 6.9-14.3zm-7.1 16c1.7.7 3.5 1.5 5.3 2.3-1 .5-2 1.1-2.9 1.6s-1.9 1.1-2.9 1.7a36.39 36.39 0 0 1 .5-5.6zM2 15.85c.7-1.2 2.6-1.4 4.2-1.4a34.72 34.72 0 0 1 11.7 2.7c-.4 2.4-.6 4.9-.8 7.5A73.5 73.5 0 0 0 11 29C4.2 23.45.6 18.15 2 15.85zm14.9 10.8c0 1.2-.1 2.3-.1 3.4s0 2.2.1 3.4c-1.6-1.1-3.2-2.2-4.7-3.4 1.5-1.2 3.1-2.3 4.7-3.4zm-10.8 19c-1.5 0-3.5-.3-4.2-1.4-1.3-2.3 2.3-7.6 8.9-13.1a73.5 73.5 0 0 0 6.1 4.4c.2 2.6.4 5.1.8 7.5a35.71 35.71 0 0 1-11.6 2.6zm12.7-9c1 .6 1.9 1.2 2.9 1.7s2 1.1 2.9 1.6c-1.8.9-3.5 1.6-5.3 2.3-.2-1.7-.4-3.7-.5-5.6zm13.1 13.8c-1.5 5-3.5 7.9-5.4 7.9-2.7 0-5.4-5.7-6.9-14.3 2.2-.9 4.5-1.9 6.9-3.1A69.74 69.74 0 0 0 33.4 44a50.34 50.34 0 0 1-1.5 6.45zm1.7-8.1c-1.7-.7-3.5-1.5-5.2-2.3 1-.5 2-1.1 2.9-1.6s1.9-1.1 2.9-1.7a50.5 50.5 0 0 1-.6 5.6zm.8-7.8l-3.9 2.4c-1.3.7-2.6 1.5-4 2.2-1.2-.6-2.4-1.3-3.7-2a8.26 8.26 0 0 1-1.3-.7c-1-.6-2-1.2-2.9-1.8-.1-1.5-.1-3-.1-4.5s0-3.1.1-4.5q1.8-1.2 3.9-2.4c1.3-.7 2.6-1.4 4-2.2 1.4.7 2.7 1.4 4 2.2l3.9 2.4c.1 1.5.1 3 .1 4.5 0 1.3-.1 2.85-.1 4.4zm16.6 9.6c-.7 1.2-2.6 1.4-4.2 1.4a33.75 33.75 0 0 1-11.6-2.7 59.65 59.65 0 0 0 .7-7.5 73.51 73.51 0 0 0 6.1-4.4c6.8 5.7 10.4 10.9 9 13.2z" transform="translate(-.02 -.05)"/><path d="M26.5 35a5.3 5.3 0 1 1 5.3-5.3 5.27 5.27 0 0 1-5.3 5.3zm0-8.5a3.3 3.3 0 1 0 3.3 3.3 3.27 3.27 0 0 0-3.3-3.25z" transform="translate(-.02 -.05)"/></svg>