<svg xmlns="http://www.w3.org/2000/svg" id="austin" viewBox="0 0 51.4843 65.0016"><path d="M23.986 11.18c-.261 0-.473 1.03-.473 1.594v3.13l.947-.19v-3.23a1.473 1.473 0 0 0-.474-1.305zM49.848 52.083c-2.668-2.668-7.546-4.484-14.498-5.397a79.73 79.73 0 0 0-9.565-.624 79.73 79.73 0 0 0-9.564.624C9.268 47.6 4.39 49.415 1.722 52.083a5.544 5.544 0 0 0-1.674 4.115 4.41 4.41 0 0 0 1.307 2.987c0 .03-.003.062-.002.093a4.646 4.646 0 0 0 1.756 3.129v2.02L1.65 65h48.273l-1.46-.573v-2.02a4.646 4.646 0 0 0 1.756-3.128l-.002-.094a4.41 4.41 0 0 0 1.307-2.987 5.544 5.544 0 0 0-1.675-4.115zM3.11 60.36a2.315 2.315 0 0 1-.403-1.14 2.017 2.017 0 0 1 .403-1.237v2.377zm4.181 2.425l-2.71 1.063v-7.3a14.616 14.616 0 0 1 2.71-1.609v7.846zm6.14-2.41l-4.669 1.832v-7.887a32.253 32.253 0 0 1 4.67-1.338v7.392zm7.604-2.985L14.9 59.798v-7.103a59.223 59.223 0 0 1 6.133-.744v5.44zm4.75 6.493a2.392 2.392 0 1 1 2.39-2.391 2.392 2.392 0 0 1-2.389 2.391zm3.28-7.07l-3.28-1.288-3.28 1.287v-4.95c1.924-.095 2.575-.094 3.283-.095s1.354 0 3.277.094v4.951zm7.605 2.984l-6.133-2.407v-5.44a59.223 59.223 0 0 1 6.133.744v7.103zm6.14 2.41l-4.669-1.833v-7.392a32.253 32.253 0 0 1 4.67 1.338v7.887zm4.181 1.641l-2.71-1.063V54.94a14.616 14.616 0 0 1 2.71 1.61v7.3zm1.471-3.488v-2.377a2.017 2.017 0 0 1 .404 1.237 2.315 2.315 0 0 1-.404 1.14zm1.322-2.809a4.99 4.99 0 0 0-.843-1.096c-2.666-2.666-7.39-4.489-14.039-5.418a72.385 72.385 0 0 0-9.116-.66 72.385 72.385 0 0 0-9.115.66c-6.65.929-11.373 2.752-14.04 5.418a4.99 4.99 0 0 0-.842 1.096 3.17 3.17 0 0 1-.388-1.411 4.189 4.189 0 0 1 1.28-3.101c5.877-5.877 22.943-5.773 23.106-5.773s17.229-.104 23.106 5.773a4.189 4.189 0 0 1 1.28 3.1 3.17 3.17 0 0 1-.39 1.412zM19.801 38.943a1.806 1.806 0 0 0-1.354 1.76v4.002l1.354-.115 1.354-.1v-3.974a1.599 1.599 0 0 0-1.354-1.573zM14.454 40.075c-.636 0-1.152 1.152-1.152 1.794v3.734l1.152-.23 1.152-.2v-3.678a1.407 1.407 0 0 0-1.152-1.42zM10.516 41.696c-.524 0-.95 1.238-.95 1.829v3.465l.95-.343.95-.301v-3.382a1.222 1.222 0 0 0-.95-1.268zM25.785 38.39h-.004a1.796 1.796 0 0 0-1.552 1.724v4.271h3.108v-4.27a1.796 1.796 0 0 0-1.552-1.724zM31.765 38.943a1.599 1.599 0 0 0-1.354 1.573v3.974l1.354.1 1.354.114v-4.002a1.806 1.806 0 0 0-1.354-1.759zM37.112 40.075a1.407 1.407 0 0 0-1.152 1.42v3.678l1.152.2 1.152.23v-3.734c0-.642-.516-1.794-1.152-1.794zM41.05 41.696a1.222 1.222 0 0 0-.95 1.268v3.382l.95.3.95.344v-3.465c0-.59-.425-1.829-.95-1.829z" transform="translate(-.043 .002)"/><path d="M44.343 41.342a13.652 13.652 0 0 0-1.45-1.254c-.029-8.716-4.759-15.922-11.492-18.53a3.004 3.004 0 0 0-1.336-1.865c-.187-2.803-4.189-3.025-4.28-3.03 0 0-4.097.227-4.284 3.03a3.004 3.004 0 0 0-1.336 1.865c-6.733 2.608-11.463 9.814-11.491 18.53a13.652 13.652 0 0 0-1.451 1.254 3.643 3.643 0 0 0-1.178 2.743 4.157 4.157 0 0 0 1.695 3.182l.674-.312a4.223 4.223 0 0 1-1.693-2.898 2.947 2.947 0 0 1 .98-2.237c5.994-5.994 17.74-5.613 18.084-5.613.213 0 12.086-.381 18.08 5.613a2.947 2.947 0 0 1 .98 2.236 4.223 4.223 0 0 1-1.693 2.899l.674.311a4.157 4.157 0 0 0 1.696-3.181 3.643 3.643 0 0 0-1.179-2.743zm-11.66-5.221a41.588 41.588 0 0 0-13.8 0 24.261 24.261 0 0 0-9.257 3.306c.324-10.142 7.302-17.985 16.157-17.987 8.855.001 15.833 7.845 16.158 17.987a24.261 24.261 0 0 0-9.258-3.306z" transform="translate(-.043 .002)"/><path d="M21.542 26.395l-.873-.016a.339.339 0 0 0-.317.332l-.189 2.445a.292.292 0 0 0 .295.306l.878-.003a.375.375 0 0 0 .33-.358l.162-2.376a.306.306 0 0 0-.286-.33zM17.126 28.248l-.586-.032a.342.342 0 0 0-.298.326l-.376 2.234a.247.247 0 0 0 .251.272l.596-.005a.424.424 0 0 0 .32-.379l.325-2.095a.277.277 0 0 0-.232-.32zM13.629 30.26l-.3-.048a.35.35 0 0 0-.277.32l-.565 2.021a.204.204 0 0 0 .208.24l.315-.008a.493.493 0 0 0 .311-.398l.488-1.815a.253.253 0 0 0-.18-.312zM26.36 25.193h-1.153a.338.338 0 0 0-.338.338v2.657a.338.338 0 0 0 .338.338h1.152a.338.338 0 0 0 .339-.338V25.53a.338.338 0 0 0-.339-.338zM30.897 26.38l-.873.015a.306.306 0 0 0-.285.33L29.9 29.1a.375.375 0 0 0 .33.358l.877.003a.292.292 0 0 0 .295-.305l-.188-2.445a.339.339 0 0 0-.318-.333zM35.026 28.216l-.586.032a.277.277 0 0 0-.232.32l.325 2.096a.424.424 0 0 0 .32.378l.596.006a.247.247 0 0 0 .251-.273l-.376-2.233a.342.342 0 0 0-.298-.326zM38.515 30.531a.35.35 0 0 0-.278-.319l-.3.048a.253.253 0 0 0-.179.311l.487 1.815a.493.493 0 0 0 .312.399l.315.008a.204.204 0 0 0 .208-.24zM26.413 12.254a1.33 1.33 0 0 0-.628-1.304h-.004a1.33 1.33 0 0 0-.628 1.304v3.31l.63-.054.63.054v-3.31zM27.58 11.18c.262 0 .474 1.03.474 1.594v3.13l-.948-.19v-3.23a1.473 1.473 0 0 1 .474-1.305zM30.008 10.515c0-.975-.617-1.13-1.378-1.622l.221-.456a9 9 0 0 1-2.728-2.85l.669-.89.612-2.417-.796-1.175-.564-.168.264-.403-.525-.536-.525.536.265.403-.565.168-.796 1.175.613 2.418.669.89a9 9 0 0 1-2.729 2.85l.222.455c-.762.491-1.379.647-1.379 1.622a9.463 9.463 0 0 1 4.225-1.451 9.463 9.463 0 0 1 4.225 1.451z" transform="translate(-.043 .002)"/></svg>