<svg xmlns="http://www.w3.org/2000/svg" id="big-ben" viewBox="0 0 12.6 52.18"><path d="M10.04 10.38H2.63L.39 12.6h11.89l-2.24-2.22zM2.96 7.86h6.67v1.48H2.96zM6.42 0s-.78 6.07-2.89 6.81h6.06C7.56 6.07 6.42 0 6.42 0zM1.48 52.18H3V31.3a.56.56 0 0 1 .48-.61h.14a.5.5 0 0 1 .38.61v20.88h1.66V31.3a.52.52 0 0 1 .42-.61h.18a.51.51 0 0 1 .39.61v20.88h1.67V31.3a.57.57 0 0 1 .5-.61H9a.53.53 0 0 1 .43.61v20.88h1.7V27.73H1.48v24.45zM0 13.65v12.6h12.6v-12.6H0zm6.48 11A4.52 4.52 0 1 1 11 20.11a4.52 4.52 0 0 1-4.52 4.52z"/><path d="M6.57 16.73a.2.2 0 0 0 .2-.2v-.23a.2.2 0 0 0-.39 0v.23a.2.2 0 0 0 .19.2zM3.38 21.72l-.2.11a.2.2 0 0 0 .1.37h.1l.2-.11a.2.2 0 1 0-.2-.37zM3.19 20.11a.2.2 0 0 0-.2-.2h-.22a.2.2 0 0 0 0 .39H3a.2.2 0 0 0 .19-.19zM3.37 18a.2.2 0 0 0-.2.34l.2.12h.1a.2.2 0 0 0 .1-.37zM4.61 23.11l-.11.2a.2.2 0 0 0 .07.27h.1a.2.2 0 0 0 .17-.1L5 23.3a.2.2 0 0 0-.39-.19zM9.67 18.52h.1l.2-.12a.2.2 0 1 0-.2-.4l-.2.12a.2.2 0 0 0 .1.4zM10.38 19.91h-.24a.2.2 0 0 0 0 .39h.23a.2.2 0 0 0 .01-.39zM9.76 21.72a.2.2 0 0 0-.2.34l.2.11h.1a.2.2 0 0 0 .1-.37zM4.84 16.71a.2.2 0 0 0-.34.2l.12.2a.2.2 0 0 0 .17.1h.1a.2.2 0 0 0 .11-.3zM6.57 23.48a.2.2 0 0 0-.2.19v.23a.2.2 0 0 0 .2.2.2.2 0 0 0 .2-.19v-.23a.2.2 0 0 0-.2-.2zM6.57 17.1a.22.22 0 0 0-.22.22V20l-1.23 1.26a.22.22 0 1 0 .31.31l1.25-1.25a.45.45 0 0 0 .11-.2v-2.8a.22.22 0 0 0-.22-.22zM8.36 17.21a.2.2 0 0 0 .17-.1l.12-.2a.2.2 0 0 0-.34-.2l-.12.2a.2.2 0 0 0 .07.27zM8.53 23.1a.2.2 0 0 0-.34.2l.12.2a.2.2 0 0 0 .17.1h.1a.2.2 0 0 0 .07-.27z"/></svg>