<svg id="big-ben" xmlns="http://www.w3.org/2000/svg" width="12.6" height="52.18" viewBox="0 0 12.6 52.18"><title>big-ben</title><polygon points="10.04 10.38 2.63 10.38 0.39 12.6 12.28 12.6 10.04 10.38"  /><rect x="2.96" y="7.86" width="6.67" height="1.48"  /><path d="M6.42,0S5.64,6.07,3.53,6.81H9.59C7.56,6.07,6.42,0,6.42,0Z" transform="translate(0 0)"  /><path d="M1.48,52.18H3V31.3a0.56,0.56,0,0,1,.48-0.61H3.62A0.5,0.5,0,0,1,4,31.3V52.18H5.66V31.3a0.52,0.52,0,0,1,.42-0.61H6.26a0.51,0.51,0,0,1,.39.61V52.18H8.32V31.3a0.57,0.57,0,0,1,.5-0.61H9a0.53,0.53,0,0,1,.43.61V52.18h1.7V27.73H1.48V52.18Z" transform="translate(0 0)"  /><path d="M0,13.65v12.6H12.6V13.65H0Zm6.48,11A4.52,4.52,0,1,1,11,20.11,4.52,4.52,0,0,1,6.48,24.63Z" transform="translate(0 0)"  /><path d="M6.57,16.73a0.2,0.2,0,0,0,.2-0.2V16.3a0.2,0.2,0,0,0-.39,0v0.23A0.2,0.2,0,0,0,6.57,16.73Z" transform="translate(0 0)"  /><path d="M3.38,21.72l-0.2.11a0.2,0.2,0,0,0,.1.37l0.1,0,0.2-.11A0.2,0.2,0,1,0,3.38,21.72Z" transform="translate(0 0)"  /><path d="M3.19,20.11a0.2,0.2,0,0,0-.2-0.2H2.77a0.2,0.2,0,0,0,0,.39H3A0.2,0.2,0,0,0,3.19,20.11Z" transform="translate(0 0)"  /><path d="M3.37,18a0.2,0.2,0,0,0-.2.34l0.2,0.12,0.1,0a0.2,0.2,0,0,0,.1-0.37Z" transform="translate(0 0)"  /><path d="M4.61,23.11l-0.11.2a0.2,0.2,0,0,0,.07.27l0.1,0a0.2,0.2,0,0,0,.17-0.1L5,23.3A0.2,0.2,0,0,0,4.61,23.11Z" transform="translate(0 0)"  /><path d="M9.67,18.52l0.1,0,0.2-.12A0.2,0.2,0,1,0,9.77,18l-0.2.12A0.2,0.2,0,0,0,9.67,18.52Z" transform="translate(0 0)"  /><path d="M10.38,19.91H10.14a0.2,0.2,0,0,0,0,.39h0.23A0.2,0.2,0,0,0,10.38,19.91Z" transform="translate(0 0)"  /><path d="M9.76,21.72a0.2,0.2,0,0,0-.2.34l0.2,0.11,0.1,0a0.2,0.2,0,0,0,.1-0.37Z" transform="translate(0 0)"  /><path d="M4.84,16.71a0.2,0.2,0,0,0-.34.2l0.12,0.2a0.2,0.2,0,0,0,.17.1l0.1,0A0.2,0.2,0,0,0,5,16.91Z" transform="translate(0 0)"  /><path d="M6.57,23.48h0a0.2,0.2,0,0,0-.2.19v0.23a0.2,0.2,0,0,0,.2.2h0a0.2,0.2,0,0,0,.2-0.19V23.68A0.2,0.2,0,0,0,6.57,23.48Z" transform="translate(0 0)"  /><path d="M6.57,17.1a0.22,0.22,0,0,0-.22.22V20L5.12,21.26a0.22,0.22,0,1,0,.31.31l1.25-1.25a0.45,0.45,0,0,0,.11-0.2V17.32A0.22,0.22,0,0,0,6.57,17.1Z" transform="translate(0 0)"  /><path d="M8.36,17.21a0.2,0.2,0,0,0,.17-0.1l0.12-.2a0.2,0.2,0,0,0-.34-0.2l-0.12.2a0.2,0.2,0,0,0,.07.27Z" transform="translate(0 0)"  /><path d="M8.53,23.1a0.2,0.2,0,0,0-.34.2l0.12,0.2a0.2,0.2,0,0,0,.17.1l0.1,0a0.2,0.2,0,0,0,.07-0.27Z" transform="translate(0 0)"  /></svg>