<svg xmlns="http://www.w3.org/2000/svg" id="brisbane" viewBox="0 0 64.87 65"><path d="M13.42 59.81h2.24v2.08h-2.24zM8.95 59.81h2.24v2.08H8.95zM4.47 59.81h2.24v2.08H4.47zM0 59.81h2.24v2.08H0z"/><path d="M32.49 23.47a3.12 3.12 0 1 0 0-6.23 3.12 3.12 0 1 0 0 6.23zm0-4.15a1.08 1.08 0 0 1 1.12 1 1.12 1.12 0 1 1-1.12-1z" transform="translate(-.06)"/><path d="M64.93 45.27v-2.08H47V38h1.12v-1l.34-1-9.26-3v-5.38h-1.12v-13.5h-2.23V11l-2.24-7.33v-3h-.93L32.49 0l-.2.62h-.92v2.95l-2.24 7.13v3.43H26.9v13.5h-1.12V33l-9.28 3 .34 1v1H18v5.19H.06v2.08H18v1H.06v12.5H18v4.15H.06V65h64.87v-2.08H47v-4.15h17.9V46.31H47v-1zm-44.74 3.12h2.24v8.31h-2.24zm0-4.15h2.24v2.08h-2.24zm20.13 0v2.08h-2.24v-2.09zm-4.47 2.08h-2.24v-2.09h2.24zm-4.47 0h-2.24v-2.09h2.24zm-4.47 0h-2.25v-2.09h2.24zm-2.24 2.08h2.23v8.31h-2.24zm4.47 0h2.24v8.31h-2.24zm4.47 0h2.24v8.31h-2.24zm4.47 0h2.24v8.31h-2.24zm4.47 0h2.24v8.31h-2.23zm0-2.08v-2.09h2.24v2.08zm-1-10.38H23.42l9.07-3zm-8.3-26h-1.53l.77-2.49zM31.37 12h2.24v2.08h-2.24zm-2.24 8.31V16.2h6.71v11.42h-6.7zM28 29.7h9v2.52l-4.47-1.48L28 32.22zM44.79 38v4.15h-24.6V38zM11.24 48.39h2.24v8.31h-2.24zM9 56.69H6.77v-8.3H9zm-6.71-8.3h2.24v8.31H2.29zm13.42 8.31v-8.31H18v8.31zm8.95 6.23v-1h4.47v1zm11.18 0v-1h4.47v1zm6.71 0v-3.12h-8.94v3.11h-2.24v-3.11h-8.95v3.11h-2.23v-4.15h24.6v4.15zm11.18-6.23H51.5v-8.31h2.24zM56 48.39h2.24v8.31H56zm6.71 8.31h-2.26v-8.31h2.24zm-13.44-8.31v8.31H47v-8.31z" transform="translate(-.06)"/><path d="M49.21 59.81h2.24v2.08h-2.24zM53.69 59.81h2.24v2.08h-2.24zM58.16 59.81h2.24v2.08h-2.24zM62.63 59.81h2.24v2.08h-2.24z"/></svg>