<svg xmlns="http://www.w3.org/2000/svg" id="building" viewBox="0 0 50.69 54.9"><path d="M22.56 7.3h-9.39v9.38h9.38V7.3zm-2 7.38h-5.39V9.3h5.38v5.38zM37.63 7.3h-9.38v9.38h9.38V7.3zm-2 7.38h-5.38V9.3h5.38v5.38zM22.56 21h-9.39v9.38h9.38V21zm-2 7.38h-5.39V23h5.38v5.38zM37.63 21h-9.38v9.38h9.38V21zm-2 7.38h-5.38V23h5.38v5.38z"/><path d="M44.52 52.9V4a4 4 0 0 0-4-4H10a4 4 0 0 0-4 4v48.9H0v2h50.69v-2h-6.17zM8 4a2 2 0 0 1 2-2h30.5a2 2 0 0 1 2 2v48.9H32.28V36.58h-13V52.9H8V4zm22.28 48.9h-9V38.58h9V52.9z"/></svg>