<svg id="building" xmlns="http://www.w3.org/2000/svg" width="50.69" height="54.9" viewBox="0 0 50.69 54.9"><title>building</title><path d="M22.56,7.3H13.17v9.38h9.38V7.3h0Zm-2,7.38H15.17V9.3h5.38v5.38h0Z"  /><path d="M37.63,7.3H28.25v9.38h9.38V7.3Zm-2,7.38H30.25V9.3h5.38v5.38Z"  /><path d="M22.56,21H13.17v9.38h9.38V21h0Zm-2,7.38H15.17V23h5.38v5.38h0Z"  /><path d="M37.63,21H28.25v9.38h9.38V21Zm-2,7.38H30.25V23h5.38v5.38Z"  /><path d="M44.52,52.9V4a4,4,0,0,0-4-4H10A4,4,0,0,0,6,4V52.9H0v2H50.69v-2H44.52ZM8,4a2,2,0,0,1,2-2H40.5a2,2,0,0,1,2,2V52.9H32.28V36.58h-13V52.9H8V4ZM30.28,52.9h-9V38.58h9V52.9Z"  /></svg>