<svg xmlns="http://www.w3.org/2000/svg" id="bulb-alt" viewBox="0 0 49 57.7"><path d="M24.75 0A24.75 24.75 0 0 0 0 24.7a25.11 25.11 0 0 0 8.6 18.8c.5-.3 1-.6 1.6-.9a23 23 0 1 1 37.2-21c.6-.3 1.1-.6 1.6-.9A24.47 24.47 0 0 0 24.75 0z" transform="translate(-.05)"/><path d="M14.5 49.4h20.4v1.5H14.5zM16.8 56.2h15.5v1.5H16.8z"/><path d="M34 19.3a1.58 1.58 0 0 0-1.6 1.6.9.9 0 0 0 .1.5l-7.8 7.5-7.9-7.5h-.1a.1.1 0 0 1 .1-.1.75.75 0 0 0 .1-.5 1.27 1.27 0 0 0-.1-.6 1.63 1.63 0 0 0-3 0 1.27 1.27 0 0 0-.1.6c0 .2.1.3.1.5a1.63 1.63 0 0 0 1.5 1.1l8.3 8v13.1h2.1V30.4l8.3-7.9a1.58 1.58 0 0 0 1.6-1.6 1.64 1.64 0 0 0-1.6-1.6z" transform="translate(-.05)"/></svg>