<svg id="bulb" xmlns="http://www.w3.org/2000/svg" width="33.3" height="57.2" viewBox="0 0 33.3 57.2"><title>bulb</title><path d="M16.6,0A16.63,16.63,0,0,0,0,16.9a22.09,22.09,0,0,0,1.3,7.6l7,19.3v4.8h14v2.3H8.3v6.3H24.2V55.1h-14V52.8h14V46.5h-14V43.3L3.1,23.7a20.6,20.6,0,0,1-1.2-7,14.7,14.7,0,0,1,29.4-.1A21.73,21.73,0,0,1,30,23.7L23.1,42.5H17.5V26.6a3.63,3.63,0,1,0-2,.1V44.6h9l7.4-20.1a22.9,22.9,0,0,0,1.4-7.8A16.73,16.73,0,0,0,16.6,0ZM14.7,23.2a1.7,1.7,0,0,1,3.4,0A1.7,1.7,0,0,1,14.7,23.2Z" transform="translate(0 0)"  /></svg>