<svg id="bulb-alt" xmlns="http://www.w3.org/2000/svg" width="49" height="57.7" viewBox="0 0 49 57.7"><title>bulb-alt</title><path d="M24.75,0A24.75,24.75,0,0,0,0,24.7a25.11,25.11,0,0,0,8.6,18.8c0.5-.3,1-0.6,1.6-0.9a23,23,0,1,1,37.2-21c0.6-.3,1.1-0.6,1.6-0.9A24.47,24.47,0,0,0,24.75,0Z" transform="translate(-0.05 0)"  /><rect x="14.5" y="49.4" width="20.4" height="1.5"  /><rect x="16.8" y="56.2" width="15.5" height="1.5"  /><path d="M34,19.3a1.58,1.58,0,0,0-1.6,1.6,0.9,0.9,0,0,0,.1.5l-7.8,7.5-7.9-7.5h-0.1a0.1,0.1,0,0,1,.1-0.1,0.75,0.75,0,0,0,.1-0.5,1.27,1.27,0,0,0-.1-0.6,1.63,1.63,0,0,0-3,0,1.27,1.27,0,0,0-.1.6c0,0.2.1,0.3,0.1,0.5a1.63,1.63,0,0,0,1.5,1.1l8.3,8V43.5h2.1V30.4L34,22.5h0a1.58,1.58,0,0,0,1.6-1.6A1.64,1.64,0,0,0,34,19.3Z" transform="translate(-0.05 0)"  /></svg>