<svg xmlns="http://www.w3.org/2000/svg" id="butler" viewBox="0 0 65 55.44"><path id="plate-cover" d="M1.1 30.36a.57.57 0 0 0 .57-.57C1.67 17.33 12.92 7.2 26.75 7.2s25.07 10.13 25.07 22.59a.57.57 0 0 0 1.14 0 21.67 21.67 0 0 0-2.07-9.26A23.66 23.66 0 0 0 45.26 13a26.43 26.43 0 0 0-8.33-5.07 28.37 28.37 0 0 0-9.69-1.85 2.88 2.88 0 1 0-1 0 28.39 28.39 0 0 0-9.69 1.85A26.44 26.44 0 0 0 8.23 13a23.72 23.72 0 0 0-5.63 7.53 21.67 21.67 0 0 0-2.07 9.26.57.57 0 0 0 .57.57zM25 3.23A1.74 1.74 0 1 1 26.75 5 1.74 1.74 0 0 1 25 3.23z" transform="translate(0 -.35)"/><path id="plate" d="M53.49 32.72a1.25 1.25 0 0 0-1.24-1.24h-51a1.24 1.24 0 0 0 0 2.49h51a1.25 1.25 0 0 0 1.24-1.25zm-52.36 0a.1.1 0 0 1 .1-.1h51a.1.1 0 1 1 0 .21h-51a.1.1 0 0 1-.1-.1z" transform="translate(0 -.35)"/><path id="hand" d="M65 48.1l-1.5-11.27A2.17 2.17 0 0 0 61.06 35l-2 .27a2.18 2.18 0 0 0-1.87 2.44v.3a7.48 7.48 0 0 1-2.19-.37c-1.22-.33-2.6-.83-3.94-1.32-2.5-.91-4.08-1.47-5-1.32a10.89 10.89 0 0 0-5 2.33 13.13 13.13 0 0 1-8.86 2.88h-1a11.52 11.52 0 0 0-2.46 0c-1.44-.88-8-4.88-9.56-5.34a2 2 0 0 0-1.88.3 1.7 1.7 0 0 0-.5.68 5.09 5.09 0 0 0-1.14-.36 2.07 2.07 0 0 0-1.88.54 1.7 1.7 0 0 0-.39.72c-1.23-.38-2.5-.51-3.18.31a2.18 2.18 0 0 0-.52 1.73 4.53 4.53 0 0 0 1.68 2.56 22.08 22.08 0 0 0 2.37 1.79l.6.42c1 .7 5.56 3.63 10.07 6.36 2.54 1.54 4.79 2.86 6.5 3.82a20 20 0 0 0 4.11 2 3 3 0 0 0 .7.08 12.49 12.49 0 0 0 4.55-1.31c2-.87 4.18-2.05 5.77-2.91.76-.41 1.41-.76 1.88-1a26.33 26.33 0 0 1 6.58-2.29c.24 0 1.52-.19 2.55-.31l1.56-.18.15 1.14a2.18 2.18 0 0 0 2.15 1.89h.29l2-.27A2.17 2.17 0 0 0 65 48.1zM18 36.15a.76.76 0 0 1 .7-.06 80.28 80.28 0 0 1 8.33 4.64l-.26.17-2-1.06c-3-1.58-5.29-2.75-6.86-3.49a.41.41 0 0 1 .13-.2zm-3.39.73a1 1 0 0 1 .78-.13 17.93 17.93 0 0 1 3.49 1.53c1.73.86 3.68 1.88 5.24 2.7l1.71.89a3.64 3.64 0 0 0-.49 1 11.91 11.91 0 0 1-3-1.45c-.43-.26-.87-.52-1.35-.78L19.84 40a50.72 50.72 0 0 0-5.08-2.7l-.23-.1a.52.52 0 0 1 .11-.3zm42.19 9.81c-1.43.16-2.38.27-2.66.33a27.58 27.58 0 0 0-6.9 2.41c-.49.24-1.15.6-1.92 1-1.66.9-3.72 2-5.67 2.86-2.71 1.19-3.91 1.29-4.43 1.16-.92-.22-4.75-2.34-10.24-5.67-4.48-2.72-9-5.62-10-6.3l-.61-.48a21.05 21.05 0 0 1-2.24-1.68 3.34 3.34 0 0 1-1.26-1.78.89.89 0 0 1 .23-.73c.12-.14.46-.18.92-.11a9.46 9.46 0 0 1 2.21.72 49.14 49.14 0 0 1 4.94 2.63l1.21.69c.45.24.88.5 1.3.75a12.35 12.35 0 0 0 3.58 1.65 3.19 3.19 0 0 0 .88 1.71 6.64 6.64 0 0 0 4.66 1.79h.28c.44 0 .89.06 1.34.06 1 0 2-.09 3-.17l1.5-.12c.66 0 1.32-.06 2-.08a25.67 25.67 0 0 0 4.27-.33 10 10 0 0 0 4.21-1.87c.33-.25.64-.51.92-.74a.64.64 0 0 0-.82-1c-.27.22-.57.48-.88.71-2.37 1.82-4.89 1.89-7.81 2-.65 0-1.32 0-2 .08l-1.53.12a22.45 22.45 0 0 1-4.06.11h-.29c-1.42-.13-2.76-.26-3.85-1.4a1.88 1.88 0 0 1 0-2.67c.91-1.07 2.5-1 3.9-.88h1.12a14.38 14.38 0 0 0 9.6-3.12 9.58 9.58 0 0 1 4.45-2.1c.69-.11 2.67.62 4.41 1.25 2.5.92 5.07 1.86 6.78 1.71l1 7.27zm6.73 2.23a.88.88 0 0 1-.59.34l-2 .27h-.14a.89.89 0 0 1-.88-.77L58.44 37.5a.89.89 0 0 1 .76-1l2-.27h.12a.89.89 0 0 1 .88.77l1.48 11.27a.88.88 0 0 1-.18.66z" transform="translate(0 -.35)"/><path id="plate-cover-highlight" d="M7.76 25.34a.65.65 0 0 1-.63-.82 18.72 18.72 0 0 1 9.2-11.66A.65.65 0 0 1 17 14a17.46 17.46 0 0 0-8.62 10.86.65.65 0 0 1-.62.48z" transform="translate(0 -.35)"/></svg>