<svg xmlns="http://www.w3.org/2000/svg" id="car" viewBox="0 0 64.66 36.02"><path d="M58.69 10.65c-.49-.14-.71-.43-1.42-2.36C56 4.82 53.87.29 41.92 0h-2.48C36 0 30.12.33 26.32 5c-2.62 3.24-5.72 6.51-8.09 6.77C9.71 12.76-.42 17.08 0 22.57c.47 5.94 3.88 7.43 11 7.64a8.74 8.74 0 0 0 16.47 0h13.2a8.74 8.74 0 0 0 16.46 0h.76c3.29 0 6-3.22 6.63-8s-.88-10.13-5.83-11.56zM62 21.84c-.49 3.45-2.2 5.85-4.15 5.85h-2.49l-.59 1.66a6.24 6.24 0 0 1-11.75 0l-.59-1.63H25.7l-.59 1.66a6.24 6.24 0 0 1-11.76 0l-.57-1.61-1.7-.06c-7-.23-8.25-1.6-8.58-5.34-.25-3.15 7.7-7.15 16-8.06 2.7-.3 5.71-2.67 9.76-7.69C31.21 3 35.78 2.5 39.44 2.5h2.42C52.6 2.77 54 6.45 54.93 9.14 55.63 11 56.18 12.51 58 13c4 1.19 4.43 6.11 4 8.84z"/></svg>