<svg id="cart" xmlns="http://www.w3.org/2000/svg" width="60.4" height="42.9" viewBox="0 0 60.4 42.9"><title>cart</title><path d="M54.3,0L48.1,6.7H0L5.9,37.3H8.5a3.19,3.19,0,0,0,2.1,5.6,3.29,3.29,0,0,0,3.2-3.2,3,3,0,0,0-1.1-2.4H36.2a3.19,3.19,0,0,0,2.1,5.6,3.16,3.16,0,0,0,3.2-3.2,3,3,0,0,0-1.1-2.4h3.3l5.2-26.8H47l-4.8,25H7.4L2.2,8.4H49.3l5.9-6.3h5.2V0H54.3ZM10.6,41.2a1.5,1.5,0,1,1,0-3,1.61,1.61,0,0,1,1.5,1.5A1.54,1.54,0,0,1,10.6,41.2Zm27.7,0a1.5,1.5,0,0,1,0-3,1.47,1.47,0,0,1,1.5,1.5A1.54,1.54,0,0,1,38.3,41.2Z" transform="translate(0 0)"  /></svg>