<svg xmlns="http://www.w3.org/2000/svg" id="chart" viewBox="0 0 60 58.8"><path d="M0 0v58.8h60V0H0zm57.7 1.5A1.67 1.67 0 0 0 56 3.1a1.43 1.43 0 0 0 .6 1.2L37.4 55h-.2a1.45 1.45 0 0 0-.7.2L21.6 37.1a1.73 1.73 0 0 0-1.4-2.7 1.61 1.61 0 0 0-1.6 1.7 1.88 1.88 0 0 0 .2.8L2.4 55.1a4.33 4.33 0 0 0-.5-.1 1.27 1.27 0 0 0-.6.1V1.5h56.4zM3.6 56.1l16.6-18.4 15.4 18.7v.3a1.45 1.45 0 0 0 .2.7H3.6a1.85 1.85 0 0 0 .2-.7c-.1-.2-.1-.4-.2-.6zm35.1 1.3a1.85 1.85 0 0 0 .2-.7 1.45 1.45 0 0 0-.2-.7L58 4.8a1.06 1.06 0 0 0 .5-.2v52.8H38.7z"/></svg>