<svg id="clock" xmlns="http://www.w3.org/2000/svg" width="53.6" height="53.7" viewBox="0 0 53.6 53.7"><title>clock</title><path d="M36.85,10.7a0.75,0.75,0,0,1-.5-0.1,1.13,1.13,0,0,1-.4-1.5L36.55,8a1.1,1.1,0,0,1,1.9,1.1l-0.6,1.1a1.39,1.39,0,0,1-1,.5h0Z" transform="translate(-0.05 0)"  /><path d="M16.25,46.3a0.75,0.75,0,0,1-.5-0.1,1.13,1.13,0,0,1-.4-1.5l0.6-1.1a1.1,1.1,0,0,1,1.9,1.1l-0.6,1.1a1.23,1.23,0,0,1-1,.5h0Z" transform="translate(-0.05 0)"  /><path d="M45.25,38.5a0.75,0.75,0,0,1-.5-0.1l-1.1-.6a1.1,1.1,0,1,1,1.1-1.9l1.1,0.6a1.13,1.13,0,0,1,.4,1.5,1.39,1.39,0,0,1-1,.5h0Z" transform="translate(-0.05 0)"  /><path d="M9.65,18a0.75,0.75,0,0,1-.5-0.1L8,17.3a1.1,1.1,0,1,1,1.1-1.9l1.1,0.6a1.13,1.13,0,0,1,.4,1.5,1.39,1.39,0,0,1-1,.5h0Z" transform="translate(-0.05 0)"  /><path d="M16.95,10.7a1.05,1.05,0,0,1-.9-0.5L15.35,9a1.1,1.1,0,0,1,1.9-1.1L17.85,9a1.13,1.13,0,0,1-.4,1.5,0.76,0.76,0,0,1-.5.2h0Z" transform="translate(-0.05 0)"  /><path d="M37.45,46.3a1.05,1.05,0,0,1-.9-0.5l-0.7-1.1a1.1,1.1,0,0,1,1.9-1.1l0.7,1.1a1.13,1.13,0,0,1-.4,1.5c-0.2,0-.4.1-0.6,0.1h0Z" transform="translate(-0.05 0)"  /><path d="M8.55,38.5a1.22,1.22,0,0,1-1-.6,1.13,1.13,0,0,1,.4-1.5L9,35.8a1.1,1.1,0,0,1,1.1,1.9L9,38.4a0.75,0.75,0,0,1-.5.1h0Z" transform="translate(-0.05 0)"  /><path d="M44.15,18a1.05,1.05,0,0,1-.9-0.5,1.13,1.13,0,0,1,.4-1.5l1.1-.6a1.1,1.1,0,1,1,1.1,1.9l-1.1.6c-0.2,0-.4.1-0.6,0.1h0Z" transform="translate(-0.05 0)"  /><path d="M6.95,27.9H5.65a1.1,1.1,0,1,1,0-2.2h1.3a1.1,1.1,0,1,1,0,2.2h0Z" transform="translate(-0.05 0)"  /><path d="M46.75,27.9a1.1,1.1,0,0,1,0-2.2H48a1.1,1.1,0,0,1,0,2.2h-1.3Z" transform="translate(-0.05 0)"  /><path d="M26.85,49.1h0a1.11,1.11,0,0,1-1.1-1.1V46.7a1.11,1.11,0,0,1,1.1-1.1h0a1.11,1.11,0,0,1,1.1,1.1V48a1.11,1.11,0,0,1-1.1,1.1h0Z" transform="translate(-0.05 0)"  /><path d="M26.85,8a1.11,1.11,0,0,1-1.1-1.1V5.6a1.1,1.1,0,0,1,2.2,0V6.9A1.11,1.11,0,0,1,26.85,8h0Z" transform="translate(-0.05 0)"  /><path d="M26.85,53.7a26.85,26.85,0,1,1,26.8-26.9,26.89,26.89,0,0,1-26.8,26.9h0Zm0-51.3a24.4,24.4,0,1,0,24.4,24.4A24.43,24.43,0,0,0,26.85,2.4h0Z" transform="translate(-0.05 0)"  /><path d="M26.85,9.1a1.16,1.16,0,0,0-1.2,1.2V26.4l-6.8,6.8a1.15,1.15,0,0,0,0,1.7,0.91,0.91,0,0,0,.8.4,1.22,1.22,0,0,0,.9-0.4l7-7,0.2-.2a1.14,1.14,0,0,0,.3-0.8V10.3A1.16,1.16,0,0,0,26.85,9.1Z" transform="translate(-0.05 0)"  /></svg>