<svg xmlns="http://www.w3.org/2000/svg" id="clock" viewBox="0 0 53.6 53.7"><path d="M36.85 10.7a.75.75 0 0 1-.5-.1 1.13 1.13 0 0 1-.4-1.5l.6-1.1a1.1 1.1 0 0 1 1.9 1.1l-.6 1.1a1.39 1.39 0 0 1-1 .5zM16.25 46.3a.75.75 0 0 1-.5-.1 1.13 1.13 0 0 1-.4-1.5l.6-1.1a1.1 1.1 0 0 1 1.9 1.1l-.6 1.1a1.23 1.23 0 0 1-1 .5zM45.25 38.5a.75.75 0 0 1-.5-.1l-1.1-.6a1.1 1.1 0 1 1 1.1-1.9l1.1.6a1.13 1.13 0 0 1 .4 1.5 1.39 1.39 0 0 1-1 .5zM9.65 18a.75.75 0 0 1-.5-.1L8 17.3a1.1 1.1 0 1 1 1.1-1.9l1.1.6a1.13 1.13 0 0 1 .4 1.5 1.39 1.39 0 0 1-1 .5zM16.95 10.7a1.05 1.05 0 0 1-.9-.5l-.7-1.2a1.1 1.1 0 0 1 1.9-1.1l.6 1.1a1.13 1.13 0 0 1-.4 1.5.76.76 0 0 1-.5.2zM37.45 46.3a1.05 1.05 0 0 1-.9-.5l-.7-1.1a1.1 1.1 0 0 1 1.9-1.1l.7 1.1a1.13 1.13 0 0 1-.4 1.5c-.2 0-.4.1-.6.1zM8.55 38.5a1.22 1.22 0 0 1-1-.6 1.13 1.13 0 0 1 .4-1.5L9 35.8a1.1 1.1 0 0 1 1.1 1.9l-1.1.7a.75.75 0 0 1-.5.1zM44.15 18a1.05 1.05 0 0 1-.9-.5 1.13 1.13 0 0 1 .4-1.5l1.1-.6a1.1 1.1 0 1 1 1.1 1.9l-1.1.6c-.2 0-.4.1-.6.1zM6.95 27.9h-1.3a1.1 1.1 0 1 1 0-2.2h1.3a1.1 1.1 0 1 1 0 2.2zM46.75 27.9a1.1 1.1 0 0 1 0-2.2H48a1.1 1.1 0 0 1 0 2.2h-1.3zM26.85 49.1a1.11 1.11 0 0 1-1.1-1.1v-1.3a1.11 1.11 0 0 1 1.1-1.1 1.11 1.11 0 0 1 1.1 1.1V48a1.11 1.11 0 0 1-1.1 1.1zM26.85 8a1.11 1.11 0 0 1-1.1-1.1V5.6a1.1 1.1 0 0 1 2.2 0v1.3a1.11 1.11 0 0 1-1.1 1.1z" transform="translate(-.05)"/><path d="M26.85 53.7a26.85 26.85 0 1 1 26.8-26.9 26.89 26.89 0 0 1-26.8 26.9zm0-51.3a24.4 24.4 0 1 0 24.4 24.4 24.43 24.43 0 0 0-24.4-24.4z" transform="translate(-.05)"/><path d="M26.85 9.1a1.16 1.16 0 0 0-1.2 1.2v16.1l-6.8 6.8a1.15 1.15 0 0 0 0 1.7.91.91 0 0 0 .8.4 1.22 1.22 0 0 0 .9-.4l7-7 .2-.2a1.14 1.14 0 0 0 .3-.8V10.3a1.16 1.16 0 0 0-1.2-1.2z" transform="translate(-.05)"/></svg>