<svg xmlns="http://www.w3.org/2000/svg" id="cloud" viewBox="0 0 60 34.1"><path d="M23 31.9h-2v-4h-3.9v-2H23v6zM35.8 21.2h-5.9v-6h2v4h3.9v2z"/><path d="M47 6.7a12.67 12.67 0 0 0-4.7.9l-.5.2a.1.1 0 0 0-.1.1A15.83 15.83 0 0 0 28 0a15.66 15.66 0 0 0-15.4 12.4 9.7 9.7 0 0 0-1.7-.1 10.9 10.9 0 1 0 0 21.8 11 11 0 0 0 8.6-4.2h-2.4a9 9 0 0 1-6.2 2.5 9.1 9.1 0 1 1 0-18.2 8.92 8.92 0 0 1 2.2.3l.9.2.2-1a14 14 0 0 1 25.9-4.9c-2.2 1.5-5.5 4.3-6.1 8.6h1.8c.8-4.4 5.1-7.1 6.6-7.9a11.86 11.86 0 0 1 4.6-1 11.2 11.2 0 0 1 0 22.4h-.7c0 .7.1 1.3.1 1.8h.6a13 13 0 1 0 0-26z"/></svg>