<svg id="cloud" xmlns="http://www.w3.org/2000/svg" width="60" height="34.1" viewBox="0 0 60 34.1"><title>cloud</title><polygon points="23 31.9 21 31.9 21 27.9 17.1 27.9 17.1 25.9 23 25.9 23 31.9"  /><polygon points="35.8 21.2 29.9 21.2 29.9 15.2 31.9 15.2 31.9 19.2 35.8 19.2 35.8 21.2"  /><path d="M47,6.7a12.67,12.67,0,0,0-4.7.9l-0.5.2a0.1,0.1,0,0,0-.1.1A15.83,15.83,0,0,0,28,0,15.66,15.66,0,0,0,12.6,12.4a9.7,9.7,0,0,0-1.7-.1,10.9,10.9,0,1,0,0,21.8,11,11,0,0,0,8.6-4.2H17.1a9,9,0,0,1-6.2,2.5,9.1,9.1,0,1,1,0-18.2,8.92,8.92,0,0,1,2.2.3L14,14.7l0.2-1A14,14,0,0,1,40.1,8.8c-2.2,1.5-5.5,4.3-6.1,8.6h1.8c0.8-4.4,5.1-7.1,6.6-7.9a11.86,11.86,0,0,1,4.6-1,11.2,11.2,0,0,1,0,22.4H46.3c0,0.7.1,1.3,0.1,1.8H47A13,13,0,1,0,47,6.7Z" transform="translate(0 0)"  /></svg>