<svg id="coaster" xmlns="http://www.w3.org/2000/svg" width="64.86" height="35.26" viewBox="0 0 64.86 35.26"><title>coaster</title><path d="M64.58,34.33h-2.4L57.36,21.65c-0.21-.51-0.43-1-0.64-1.47h0c-2.56-5.65-5-8.39-7.53-8.31-2.67.07-5.12,3.28-7.48,9.81-2.41,6.36-4.3,7.67-5.49,7.66s-3-1.35-5.16-7.6v0a74.22,74.22,0,0,0-3.49-9.09,2.1,2.1,0,0,0,1.08.31,2.13,2.13,0,1,0-2.11-2.32c-0.21-.39-0.42-0.76-0.63-1.11a0.46,0.46,0,0,0-.11-0.18c-0.18-.3-0.37-0.59-0.55-0.86a2.1,2.1,0,0,0,1,.26A2.14,2.14,0,1,0,24.14,7a11.13,11.13,0,0,0-1.89-1.85,2.09,2.09,0,0,0,.65.11,2.15,2.15,0,1,0-1.56-.69l0,0-0.1-.05A4.85,4.85,0,0,0,19.36,4a2.13,2.13,0,1,0-1.64.2,6.36,6.36,0,0,0-2,1.09,2.18,2.18,0,1,0-.85.74C10.87,9.85,7,19.22,3.24,34.33H0.65a0.46,0.46,0,0,0,0,.93H64.58A0.46,0.46,0,0,0,64.58,34.33Zm-36-24.74a1.2,1.2,0,1,1-1.2,1.2A1.2,1.2,0,0,1,28.63,9.59Zm-2.4-4.21A1.2,1.2,0,1,1,25,6.58,1.2,1.2,0,0,1,26.23,5.38ZM22.9,1.92a1.2,1.2,0,1,1-1.2,1.2A1.2,1.2,0,0,1,22.9,1.92ZM61.19,34.33H56.75V22.67ZM55.82,20.47V34.33H52.35V14.61A24.32,24.32,0,0,1,55.82,20.47ZM49.2,12.79h0.06a3.49,3.49,0,0,1,2.2.94,0.46,0.46,0,0,0,0,.19V34.33H47.94V13.15A2.77,2.77,0,0,1,49.2,12.79Zm-2.18,1v20.5H43.54V19.6a0.42,0.42,0,0,0,0-.06A16.89,16.89,0,0,1,47,13.83ZM42.57,22l0-.11V34.33H39.13V28.56A23.3,23.3,0,0,0,42.57,22Zm-6.33,8.27a3.15,3.15,0,0,0,2-.78v4.85H34.73V29.79a2.85,2.85,0,0,0,1.47.46h0ZM33.8,29v5.3H30.32V22.44C31.45,25.6,32.61,27.79,33.8,29Zm-4.4,5.3H25.92V11.42a59.86,59.86,0,0,1,3.48,8.27V34.33ZM25,9.79V34.33H21.52V5.74A13.29,13.29,0,0,1,25,9.79Zm-12.29.63a15.76,15.76,0,0,1,3.48-4.36V34.33H12.71V10.43h0ZM11.78,34.33H8.3V20.86a0.45,0.45,0,0,0-.08-0.24,67,67,0,0,1,3.55-8.51V34.33ZM17.09,5.44A4.08,4.08,0,0,1,19,4.88a3.76,3.76,0,0,1,1.63.33V34.33H17.11V5.53A0.44,0.44,0,0,0,17.09,5.44Zm0-3.31a1.2,1.2,0,1,1,1.2,1.2A1.2,1.2,0,0,1,17.11,2.13ZM13.91,5.28a1.2,1.2,0,1,1,1.2-1.2A1.2,1.2,0,0,1,13.91,5.28ZM7.38,23.15V34.33H4.19C5.28,30,6.34,26.33,7.38,23.15Z" transform="translate(-0.19)" /></svg>