<svg xmlns="http://www.w3.org/2000/svg" id="coaster" viewBox="0 0 64.86 35.26"><path d="M64.58 34.33h-2.4l-4.82-12.68c-.21-.51-.43-1-.64-1.47-2.56-5.65-5-8.39-7.53-8.31-2.67.07-5.12 3.28-7.48 9.81-2.41 6.36-4.3 7.67-5.49 7.66s-3-1.35-5.16-7.6a74.22 74.22 0 0 0-3.49-9.09 2.1 2.1 0 0 0 1.08.31 2.13 2.13 0 1 0-2.11-2.32c-.21-.39-.42-.76-.63-1.11a.46.46 0 0 0-.11-.18c-.18-.3-.37-.59-.55-.86a2.1 2.1 0 0 0 1 .26A2.14 2.14 0 1 0 24.14 7a11.13 11.13 0 0 0-1.89-1.85 2.09 2.09 0 0 0 .65.11 2.15 2.15 0 1 0-1.56-.69l-.1-.05A4.85 4.85 0 0 0 19.36 4a2.13 2.13 0 1 0-1.64.2 6.36 6.36 0 0 0-2 1.09 2.18 2.18 0 1 0-.85.74c-4 3.82-7.87 13.19-11.63 28.3H.65a.46.46 0 0 0 0 .93h63.93a.46.46 0 0 0 0-.93zm-36-24.74a1.2 1.2 0 1 1-1.2 1.2 1.2 1.2 0 0 1 1.25-1.2zm-2.4-4.21A1.2 1.2 0 1 1 25 6.58a1.2 1.2 0 0 1 1.23-1.2zM22.9 1.92a1.2 1.2 0 1 1-1.2 1.2 1.2 1.2 0 0 1 1.2-1.2zm38.29 32.41h-4.44V22.67zm-5.37-13.86v13.86h-3.47V14.61a24.32 24.32 0 0 1 3.47 5.86zm-6.62-7.68h.06a3.49 3.49 0 0 1 2.2.94.46.46 0 0 0 0 .19v20.41h-3.52V13.15a2.77 2.77 0 0 1 1.26-.36zm-2.18 1v20.5h-3.48V19.6a.42.42 0 0 0 0-.06A16.89 16.89 0 0 1 47 13.83zM42.57 22v-.11 12.44h-3.44v-5.77A23.3 23.3 0 0 0 42.57 22zm-6.33 8.27a3.15 3.15 0 0 0 2-.78v4.85h-3.51v-4.55a2.85 2.85 0 0 0 1.47.46zM33.8 29v5.3h-3.48V22.44c1.13 3.16 2.29 5.35 3.48 6.56zm-4.4 5.3h-3.48V11.42a59.86 59.86 0 0 1 3.48 8.27v14.64zM25 9.79v24.54h-3.48V5.74A13.29 13.29 0 0 1 25 9.79zm-12.29.63a15.76 15.76 0 0 1 3.48-4.36v28.27h-3.48v-23.9zm-.93 23.91H8.3V20.86a.45.45 0 0 0-.08-.24 67 67 0 0 1 3.55-8.51v22.22zm5.31-28.89A4.08 4.08 0 0 1 19 4.88a3.76 3.76 0 0 1 1.63.33v29.12h-3.52V5.53a.44.44 0 0 0-.02-.09zm0-3.31a1.2 1.2 0 1 1 1.2 1.2 1.2 1.2 0 0 1-1.18-1.2zm-3.18 3.15a1.2 1.2 0 1 1 1.2-1.2 1.2 1.2 0 0 1-1.2 1.2zM7.38 23.15v11.18H4.19c1.09-4.33 2.15-8 3.19-11.18z" transform="translate(-.19)"/></svg>