<svg id="coins" xmlns="http://www.w3.org/2000/svg" width="64.56" height="64.9" viewBox="0 0 64.56 64.9"><title>coins</title><path d="M37.6,0.2A26.67,26.67,0,0,0,16.1,11a23.29,23.29,0,0,0-5.3,5.1A27.18,27.18,0,0,0,27.2,65,26.67,26.67,0,0,0,48.7,54.2a30.76,30.76,0,0,0,5.1-5.1A27,27,0,0,0,64.6,27.6,27.15,27.15,0,0,0,37.8.1,0.2,0.2,0,0,1,37.6.2ZM27.2,10.5a26.79,26.79,0,0,0-8.4,1.3,24.32,24.32,0,0,1,13.6-4A24.56,24.56,0,0,1,57,32.3v0.1A25.39,25.39,0,0,1,53,46a26.35,26.35,0,0,0,1.3-8.4A27.06,27.06,0,0,0,27.2,10.5ZM46.6,52.9a28,28,0,0,1-5.9,5.5,24.32,24.32,0,0,1-13.6,4A24.56,24.56,0,0,1,2.5,37.9V37.8a25.39,25.39,0,0,1,4-13.6A28,28,0,0,1,12,18.3a29.22,29.22,0,0,1,3.7-2.4,23.26,23.26,0,0,1,11.3-3A24.5,24.5,0,0,1,51.6,37.4,24.92,24.92,0,0,1,48.7,49,9.88,9.88,0,0,1,46.6,52.9ZM32.3,5.2a26.79,26.79,0,0,0-8.4,1.3,24.32,24.32,0,0,1,13.6-4A24.64,24.64,0,0,1,58.1,40.6a26.35,26.35,0,0,0,1.3-8.4A27.17,27.17,0,0,0,32.3,5.2Z" transform="translate(-0.04 -0.1)"  /><path d="M36.5,40.4a5.72,5.72,0,0,0-2-2.6,15.92,15.92,0,0,0-2.2-1.3c-0.9-.2-2-0.4-3.1-0.7l-0.7-.2V25.2a11.54,11.54,0,0,1,2.4.7,6.09,6.09,0,0,1,2.4,1.8l0.4,0.4,2.2-2.2-0.4-.4c-0.9-.7-1.5-1.3-2.2-1.8a7.45,7.45,0,0,0-2.4-1.1,6.72,6.72,0,0,0-2.4-.4V18.7H25.6v3.5a23.76,23.76,0,0,0-3.1.7,7.92,7.92,0,0,0-4.4,4.4,9.28,9.28,0,0,0-.7,3.3,7.63,7.63,0,0,0,2.4,5.7,14.14,14.14,0,0,0,2.4,1.3,15.83,15.83,0,0,0,3.1.9h0.2V49a20.57,20.57,0,0,1-2.9-.7,14.31,14.31,0,0,1-3.1-2.4l-0.4-.4-2.4,2.4,0.4,0.4a16.37,16.37,0,0,0,4,2.9,13.56,13.56,0,0,0,4.4,1.1v4.4h2.9V52.3a13.56,13.56,0,0,0,4.4-1.1,10.18,10.18,0,0,0,3.3-2.9,8.77,8.77,0,0,0,1.1-4.2A11.56,11.56,0,0,0,36.5,40.4Zm-2.7,3.5a4.84,4.84,0,0,1-.7,2.6A5.52,5.52,0,0,1,28.6,49V38.8a20,20,0,0,1,2.4.4,3.77,3.77,0,0,1,1.5.9A4.59,4.59,0,0,1,33.8,43.9ZM25.5,25.2V35.3A8.47,8.47,0,0,1,22,33.8a3.7,3.7,0,0,1-1.3-3.3,4.84,4.84,0,0,1,.7-2.6,7.69,7.69,0,0,1,1.8-1.8A6.91,6.91,0,0,1,25.5,25.2Z" transform="translate(-0.04 -0.1)"  /></svg>