<svg xmlns="http://www.w3.org/2000/svg" id="coins" viewBox="0 0 64.56 64.9"><path d="M37.6.2A26.67 26.67 0 0 0 16.1 11a23.29 23.29 0 0 0-5.3 5.1A27.18 27.18 0 0 0 27.2 65a26.67 26.67 0 0 0 21.5-10.8 30.76 30.76 0 0 0 5.1-5.1 27 27 0 0 0 10.8-21.5A27.15 27.15 0 0 0 37.8.1a.2.2 0 0 1-.2.1zM27.2 10.5a26.79 26.79 0 0 0-8.4 1.3 24.32 24.32 0 0 1 13.6-4A24.56 24.56 0 0 1 57 32.3v.1A25.39 25.39 0 0 1 53 46a26.35 26.35 0 0 0 1.3-8.4 27.06 27.06 0 0 0-27.1-27.1zm19.4 42.4a28 28 0 0 1-5.9 5.5 24.32 24.32 0 0 1-13.6 4A24.56 24.56 0 0 1 2.5 37.9v-.1a25.39 25.39 0 0 1 4-13.6 28 28 0 0 1 5.5-5.9 29.22 29.22 0 0 1 3.7-2.4 23.26 23.26 0 0 1 11.3-3 24.5 24.5 0 0 1 24.6 24.5A24.92 24.92 0 0 1 48.7 49a9.88 9.88 0 0 1-2.1 3.9zM32.3 5.2a26.79 26.79 0 0 0-8.4 1.3 24.32 24.32 0 0 1 13.6-4 24.64 24.64 0 0 1 20.6 38.1 26.35 26.35 0 0 0 1.3-8.4 27.17 27.17 0 0 0-27.1-27z" transform="translate(-.04 -.1)"/><path d="M36.5 40.4a5.72 5.72 0 0 0-2-2.6 15.92 15.92 0 0 0-2.2-1.3c-.9-.2-2-.4-3.1-.7l-.7-.2V25.2a11.54 11.54 0 0 1 2.4.7 6.09 6.09 0 0 1 2.4 1.8l.4.4 2.2-2.2-.4-.4c-.9-.7-1.5-1.3-2.2-1.8a7.45 7.45 0 0 0-2.4-1.1 6.72 6.72 0 0 0-2.4-.4v-3.5h-2.9v3.5a23.76 23.76 0 0 0-3.1.7 7.92 7.92 0 0 0-4.4 4.4 9.28 9.28 0 0 0-.7 3.3 7.63 7.63 0 0 0 2.4 5.7 14.14 14.14 0 0 0 2.4 1.3 15.83 15.83 0 0 0 3.1.9h.2V49a20.57 20.57 0 0 1-2.9-.7 14.31 14.31 0 0 1-3.1-2.4l-.4-.4-2.4 2.4.4.4a16.37 16.37 0 0 0 4 2.9 13.56 13.56 0 0 0 4.4 1.1v4.4h2.9v-4.4a13.56 13.56 0 0 0 4.4-1.1 10.18 10.18 0 0 0 3.3-2.9 8.77 8.77 0 0 0 1.1-4.2 11.56 11.56 0 0 0-.7-3.7zm-2.7 3.5a4.84 4.84 0 0 1-.7 2.6 5.52 5.52 0 0 1-4.5 2.5V38.8a20 20 0 0 1 2.4.4 3.77 3.77 0 0 1 1.5.9 4.59 4.59 0 0 1 1.3 3.8zm-8.3-18.7v10.1a8.47 8.47 0 0 1-3.5-1.5 3.7 3.7 0 0 1-1.3-3.3 4.84 4.84 0 0 1 .7-2.6 7.69 7.69 0 0 1 1.8-1.8 6.91 6.91 0 0 1 2.3-.9z" transform="translate(-.04 -.1)"/></svg>