<svg xmlns="http://www.w3.org/2000/svg" id="cube" viewBox="0 0 61.2 59.2"><path d="M61 43.3a1.55 1.55 0 0 0-.8-.8V17.8a1.42 1.42 0 0 0 .8-.9v-1.1a1.64 1.64 0 0 0-1.5-1 1.45 1.45 0 0 0-.7.2L32.23 1.7v-.1a1.27 1.27 0 0 0-.1-.6 1.64 1.64 0 0 0-1.5-1 1.54 1.54 0 0 0-1.5 1 1.27 1.27 0 0 0-.1.6v.1L2.53 15.1a1.61 1.61 0 0 0-.9-.3 1.54 1.54 0 0 0-1.5 1 1.27 1.27 0 0 0-.1.6.9.9 0 0 0 .1.5 1.76 1.76 0 0 0 .9 1v24.8a1.79 1.79 0 0 0-.5.7 1.27 1.27 0 0 0-.1.6 4.33 4.33 0 0 0 .1.5A1.53 1.53 0 0 0 2 45.6a1.45 1.45 0 0 0 .7-.2L29 57.7a1 1 0 0 0 .1.4 1.57 1.57 0 0 0 3 0 .48.48 0 0 1 .1-.4L59 45.5a1.27 1.27 0 0 0 .6.1 1.63 1.63 0 0 0 1.5-1.1.9.9 0 0 1 .1-.5 1.08 1.08 0 0 1-.2-.7zM31.53 56.2c-.1 0-.1-.1-.2-.1V31.4a.53.53 0 0 0 .3-.2L57.93 44v.1zM3.53 44v-.1l26.2-12.6v24.8a.1.1 0 0 0-.1.1zm55-1.4l-26-12.6 26.1-12.4a.1.1 0 0 1 .1.1v24.8a.35.35 0 0 0-.2.1zm-.6-26.3l-26.3 12.5a.53.53 0 0 0-.3-.2V3l26.6 13.3zM29.73 3v25.6c-.1 0-.1.1-.2.1L3 16.5a.2.2 0 0 1 .1-.2zm-.8 27.1l-26 12.5a1.06 1.06 0 0 0-.5-.2V17.9z" transform="translate(-.03)"/></svg>