<svg id="cube" xmlns="http://www.w3.org/2000/svg" width="61.2" height="59.2" viewBox="0 0 61.2 59.2"><title>cube</title><path d="M61,43.3a1.55,1.55,0,0,0-.8-0.8V17.8a1.42,1.42,0,0,0,.8-0.9V15.8a1.64,1.64,0,0,0-1.5-1,1.45,1.45,0,0,0-.7.2L32.23,1.7V1.6a1.27,1.27,0,0,0-.1-0.6,1.64,1.64,0,0,0-1.5-1,1.54,1.54,0,0,0-1.5,1,1.27,1.27,0,0,0-.1.6V1.7L2.53,15.1a1.61,1.61,0,0,0-.9-0.3,1.54,1.54,0,0,0-1.5,1,1.27,1.27,0,0,0-.1.6,0.9,0.9,0,0,0,.1.5,1.76,1.76,0,0,0,.9,1V42.7a1.79,1.79,0,0,0-.5.7,1.27,1.27,0,0,0-.1.6,4.33,4.33,0,0,0,.1.5A1.53,1.53,0,0,0,2,45.6a1.45,1.45,0,0,0,.7-0.2L29,57.7a1,1,0,0,0,.1.4,1.57,1.57,0,0,0,3,0,0.48,0.48,0,0,1,.1-0.4L59,45.5a1.27,1.27,0,0,0,.6.1,1.63,1.63,0,0,0,1.5-1.1,0.9,0.9,0,0,1,.1-0.5A1.08,1.08,0,0,1,61,43.3ZM31.53,56.2c-0.1,0-.1-0.1-0.2-0.1V31.4a0.53,0.53,0,0,0,.3-0.2L57.93,44v0.1ZM3.53,44V43.9l26.2-12.6h0V56.1a0.1,0.1,0,0,0-.1.1Zm55-1.4L32.53,30l26.1-12.4a0.1,0.1,0,0,1,.1.1V42.5A0.35,0.35,0,0,0,58.53,42.6Zm-0.6-26.3L31.63,28.8a0.53,0.53,0,0,0-.3-0.2V3l26.6,13.3h0ZM29.73,3V28.6c-0.1,0-.1.1-0.2,0.1L3,16.5a0.2,0.2,0,0,1,.1-0.2h0Zm-0.8,27.1-26,12.5a1.06,1.06,0,0,0-.5-0.2V17.9Z" transform="translate(-0.03 0)"  /></svg>