<svg xmlns="http://www.w3.org/2000/svg" id="database" viewBox="0 0 57.4 46.1"><path d="M28.65 27.5C12.55 27.5 0 21.4 0 13.7S12.55 0 28.65 0s28.7 6 28.7 13.7-12.7 13.8-28.7 13.8zm0-25.2c-14.3 0-26.4 5.3-26.4 11.4s12.1 11.4 26.3 11.4 26.4-5.2 26.4-11.4-12.1-11.4-26.3-11.4z" transform="translate(.05)"/><path d="M55.05 22.8v.3c0 5.3-10.9 11.2-26.5 11.2s-26.4-5.9-26.4-11.2v-.6a13.65 13.65 0 0 1-1.7-1.7 9.25 9.25 0 0 0-.4 2.3c0 6.8 10 13.9 28.5 13.9s28.5-7.2 28.5-13.9a6.93 6.93 0 0 0-.3-2 9.08 9.08 0 0 1-1.7 1.7z" transform="translate(.05)"/><path d="M55.05 31.9v.3c0 5.3-10.9 11.2-26.5 11.2s-26.4-5.9-26.4-11.2v-.6a13.65 13.65 0 0 1-1.7-1.7 9.25 9.25 0 0 0-.4 2.3c0 6.8 10 13.9 28.5 13.9s28.5-7.2 28.5-13.9a6.93 6.93 0 0 0-.3-2 9.08 9.08 0 0 1-1.7 1.7z" transform="translate(.05)"/></svg>