<svg id="database" xmlns="http://www.w3.org/2000/svg" width="57.4" height="46.1" viewBox="0 0 57.4 46.1"><title>database</title><path d="M28.65,27.5C12.55,27.5,0,21.4,0,13.7S12.55,0,28.65,0s28.7,6,28.7,13.7S44.65,27.5,28.65,27.5Zm0-25.2c-14.3,0-26.4,5.3-26.4,11.4s12.1,11.4,26.3,11.4,26.4-5.2,26.4-11.4S42.85,2.3,28.65,2.3Z" transform="translate(0.05 0)"  /><path d="M55.05,22.8v0.3c0,5.3-10.9,11.2-26.5,11.2S2.15,28.4,2.15,23.1V22.5a13.65,13.65,0,0,1-1.7-1.7,9.25,9.25,0,0,0-.4,2.3c0,6.8,10,13.9,28.5,13.9s28.5-7.2,28.5-13.9a6.93,6.93,0,0,0-.3-2A9.08,9.08,0,0,1,55.05,22.8Z" transform="translate(0.05 0)"  /><path d="M55.05,31.9v0.3c0,5.3-10.9,11.2-26.5,11.2S2.15,37.5,2.15,32.2V31.6a13.65,13.65,0,0,1-1.7-1.7,9.25,9.25,0,0,0-.4,2.3c0,6.8,10,13.9,28.5,13.9s28.5-7.2,28.5-13.9a6.93,6.93,0,0,0-.3-2A9.08,9.08,0,0,1,55.05,31.9Z" transform="translate(0.05 0)"  /></svg>