<svg xmlns="http://www.w3.org/2000/svg" id="dna" viewBox="0 0 34.1 59"><path d="M31.75 0v3.3h-25v2.4h24.9c0 4.8-.2 8.3-1.3 11.3h-7.3v2.4h6.2A19 19 0 0 1 24 24.7l1.4 2c8.8-6.2 8.8-12.7 8.8-24.4V0h-2.4z" transform="translate(-.05)"/><path d="M18.15 28.8l-1.7-.8c-6.2-3-9.6-5.6-11.6-8.9h8.9v-2.4H3.65a24.73 24.73 0 0 1-1-4.3h23.1V10H2.55c-.1-2.3-.1-4.8-.1-7.7V0H0v2.3c0 6.8 0 11.8 1.7 15.9a.2.2 0 0 0 .1.2c1.8 4.3 5.7 7.9 13.6 11.7l1.7.9c9.8 4.8 12.8 8.7 13.7 15.2H16.25v2.4H31c.1 1.5.1 3.1.1 5H2.45c0-1.8 0-3.5.1-5h7.7v-2.4h-7.5a16.08 16.08 0 0 1 1.4-5h20.4v-2.4h-19a21 21 0 0 1 5.3-4.7L9.55 32C-.05 38.4 0 44.9 0 56.7V59h2.4v-3.1h28.7V59h2.4v-2.3c.05-14 .15-20.4-15.35-27.9z" transform="translate(-.05)"/></svg>