<svg id="dna" xmlns="http://www.w3.org/2000/svg" width="34.1" height="59" viewBox="0 0 34.1 59"><title>dna</title><path d="M31.75,0V3.3h-25V5.7h24.9c0,4.8-.2,8.3-1.3,11.3h-7.3v2.4h6.2A19,19,0,0,1,24,24.7l1.4,2c8.8-6.2,8.8-12.7,8.8-24.4V0h-2.4Z" transform="translate(-0.05)"  /><path d="M18.15,28.8l-1.7-.8c-6.2-3-9.6-5.6-11.6-8.9h8.9V16.7H3.65a24.73,24.73,0,0,1-1-4.3h23.1V10H2.55c-0.1-2.3-.1-4.8-0.1-7.7V0H0V2.3c0,6.8,0,11.8,1.7,15.9a0.2,0.2,0,0,0,.1.2c1.8,4.3,5.7,7.9,13.6,11.7l1.7,0.9c9.8,4.8,12.8,8.7,13.7,15.2H16.25v2.4H31c0.1,1.5.1,3.1,0.1,5H2.45c0-1.8,0-3.5.1-5h7.7V46.2H2.75a16.08,16.08,0,0,1,1.4-5h20.4V38.8h-19a21,21,0,0,1,5.3-4.7L9.55,32C-0.05,38.4,0,44.9,0,56.7V59h2.4V55.9h28.7V59h2.4V56.7C33.55,42.7,33.65,36.3,18.15,28.8Z" transform="translate(-0.05)"  /></svg>