<svg xmlns="http://www.w3.org/2000/svg" id="envelope" viewBox="0 0 51.5 57.8"><path d="M51.55 22.2a1 1 0 0 0-.4-.9L26.65.3a1.09 1.09 0 0 0-1.5 0l-24.7 21a1.49 1.49 0 0 0-.4.9v31.2a3.19 3.19 0 0 0 .3 1.4v.2c.1.3.3.5.4.8l.1.1a2.18 2.18 0 0 0 .4.5.1.1 0 0 0 .1.1 3.81 3.81 0 0 0 1.3.9.1.1 0 0 1 .1.1c.2.1.4.1.6.2h.2c.3 0 .5.1.8.1h42.8a2.2 2.2 0 0 0 .8-.1c.1 0 .3-.1.4-.1s.2-.1.3-.1a4.75 4.75 0 0 0 2.4-2c0-.1.1-.1.1-.2s.1-.2.1-.3.1-.1.1-.2a.6.6 0 0 0 .1-.4 3.75 3.75 0 0 0 .1-1.1V22.2zm-4.3 33.2H4.45a2 2 0 0 1-1.5-.6L19 40.5c.1 0 .2-.1.3-.1s.1-.1.1-.2l6.4-5.7 22.9 20.4a2.46 2.46 0 0 1-1.45.5zM2.45 26.7l14.2 12.7-14.2 12.7V26.7zM35 39.4l14.2-12.6V52zM25.95 2.7l23.3 20v.9l-16 14.2-6.6-5.9a1.21 1.21 0 0 0-1.6 0l-6.6 5.9-16-14.3v-.9z" transform="translate(-.05)"/></svg>