<svg id="envelope" xmlns="http://www.w3.org/2000/svg" width="51.5" height="57.8" viewBox="0 0 51.5 57.8"><title>envelope</title><path d="M51.55,22.2a1,1,0,0,0-.4-0.9l-24.5-21a1.09,1.09,0,0,0-1.5,0l-24.7,21a1.49,1.49,0,0,0-.4.9V53.4a3.19,3.19,0,0,0,.3,1.4V55c0.1,0.3.3,0.5,0.4,0.8l0.1,0.1a2.18,2.18,0,0,0,.4.5,0.1,0.1,0,0,0,.1.1,3.81,3.81,0,0,0,1.3.9,0.1,0.1,0,0,1,.1.1c0.2,0.1.4,0.1,0.6,0.2h0.2c0.3,0,.5.1,0.8,0.1h42.8a2.2,2.2,0,0,0,.8-0.1c0.1,0,.3-0.1.4-0.1s0.2-.1.3-0.1a4.75,4.75,0,0,0,2.4-2c0-.1.1-0.1,0.1-0.2s0.1-.2.1-0.3,0.1-.1.1-0.2a0.6,0.6,0,0,0,.1-0.4,3.75,3.75,0,0,0,.1-1.1V22.2h0Zm-4.3,33.2H4.45a2,2,0,0,1-1.5-.6L19,40.5c0.1,0,.2-0.1.3-0.1s0.1-.1.1-0.2l6.4-5.7,22.9,20.4A2.46,2.46,0,0,1,47.25,55.4ZM2.45,26.7l14.2,12.7L2.45,52.1V26.7ZM35,39.4l14.2-12.6V52ZM25.95,2.7l23.3,20v0.9l-16,14.2-6.6-5.9a1.21,1.21,0,0,0-1.6,0l-6.6,5.9-16-14.3V22.6Z" transform="translate(-0.05 0)"  /></svg>