<svg xmlns="http://www.w3.org/2000/svg" id="film" viewBox="0 0 60.8 44.6"><path d="M50.7 26H58v-7.3h-7.3V26zm1.2-6.1h4.8v4.8h-4.8v-4.8z"/><path d="M56.7 0v3h-4.8V0h-43v3H4.1V0H0v44.6h4.1v-3h4.8v3h43v-3h4.8v3h4.1V0h-4.1zm2.9 43.4H58v-3h-7.3v3H10.2v-3H2.9v3H1.3V1.3h1.5v3h7.4v-3h40.5v3H58v-3h1.6v42.1z"/><path d="M10.1 7.8H2.8v7.3h7.3V7.8zm-1.2 6.1H4.1V9.1h4.8v4.8zM10.1 18.7H2.8V26h7.3v-7.3zm-1.2 6H4.1v-4.8h4.8v4.8zM23.2 31.4L40 21.8l-16.8-9.7v19.3zm1.3-17.1l13 7.5-13 7.5v-15zM50.7 36.8H58v-7.3h-7.3v7.3zm1.2-6h4.8v4.8h-4.8v-4.8zM50.7 15.1H58V7.8h-7.3v7.3zm1.2-6h4.8v4.8h-4.8V9.1zM2.8 29.5v7.3h7.3v-7.3H2.8zm6.1 6.1H4.1v-4.8h4.8v4.8z"/></svg>