<svg xmlns="http://www.w3.org/2000/svg" id="food" viewBox="0 0 38.4 69.26"><path d="M3.24 2a1.25 1.25 0 0 1 1.25 1.25v14.67h2.06V3.24a1.19 1.19 0 1 1 2.38.07v14.61h2.14V3.25A1.16 1.16 0 0 1 12.14 2h.09a1.18 1.18 0 0 1 1.16 1.32v14.6h2.11V3.25A1.18 1.18 0 0 1 16.61 2h.1a1.2 1.2 0 0 1 1.21 1.19V23.3a4.58 4.58 0 0 1-4.43 4.39v35.76a3.48 3.48 0 1 1-6.92 0V27.68A4.54 4.54 0 0 1 2 23.17V3.3A1.23 1.23 0 0 1 3.16 2h.08m0-2A3.24 3.24 0 0 0 0 3.24V23a6.59 6.59 0 0 0 4.56 6.39v34.06a5.54 5.54 0 0 0 5.26 5.8H10a5.54 5.54 0 0 0 5.47-5.61V29.35a6.68 6.68 0 0 0 4.43-6.06v-20A3.22 3.22 0 0 0 14.46.92 3.15 3.15 0 0 0 10 .93 3.13 3.13 0 0 0 7.75 0a3.19 3.19 0 0 0-2.24.9A3.17 3.17 0 0 0 3.24 0zM31.07 2c2.66 0 5.31 2 5.31 5.85v55.59a3.47 3.47 0 0 1-6.94 0v-22h-3.69V7.88C25.75 4 28.41 2 31.07 2m0-2c-3.63 0-7.31 2.7-7.31 7.85v35.54h3.69v20a5.47 5.47 0 0 0 5.24 5.7h.25a5.39 5.39 0 0 0 5.46-5.32V7.88C38.38 2.72 34.7 0 31.07 0z"/></svg>