<svg xmlns="http://www.w3.org/2000/svg" id="git" viewBox="0 0 57.35 57.4"><path d="M56.7 26.8L30.9 1.1a2.88 2.88 0 0 0-2.1-.9 3 3 0 0 0-2.1.9L1 26.8a3 3 0 0 0 0 4.1l25.8 25.8a2.88 2.88 0 0 0 2.1.9 3 3 0 0 0 2.1-.9L56.7 31a3.09 3.09 0 0 0 0-4.2zm-17.2-.4l.6-.2a5.07 5.07 0 0 1 .9-.2 3.3 3.3 0 1 1-3.3 3.3 3.53 3.53 0 0 1 .3-1.4l.3-.6-6.5-6.5-.8.8h-1V38l.5.3a3.38 3.38 0 1 1-2.8-.2l.6-.2V20.7l-.6-.2a3.34 3.34 0 0 1-2.2-3.1 3.53 3.53 0 0 1 .3-1.4l.3-.6-5.4-5.4L22 8.7l5.6 5.6.5-.1a2.49 2.49 0 0 1 .8-.1 3.33 3.33 0 0 1 3.3 3.3 1.49 1.49 0 0 1-.2.9l-.2.6zm15.8 3.2L29.5 55.4a1.08 1.08 0 0 1-.7.3.83.83 0 0 1-.7-.3L2.4 29.6a1 1 0 0 1 0-1.4l16.9-16.9 4.5 4.5a7.72 7.72 0 0 0-.2 1.5 5.27 5.27 0 0 0 2.8 4.6v14.5a5.27 5.27 0 0 0-2.8 4.6 5.3 5.3 0 1 0 10.6 0 5.26 5.26 0 0 0-2.1-4.2V24l3.9 3.9a4.14 4.14 0 0 0-.2 1.6 5.3 5.3 0 1 0 5.3-5.3 2.77 2.77 0 0 0-.9.1l-6-6a2.77 2.77 0 0 0 .1-.9 5.34 5.34 0 0 0-5.3-5.3 1.7 1.7 0 0 0-.7.1l-4.8-4.8 4.9-4.9a1.08 1.08 0 0 1 .7-.3.83.83 0 0 1 .7.3l25.8 25.8a1.35 1.35 0 0 1-.3 1.3z" transform="translate(-.17 -.2)"/></svg>