<svg id="git" xmlns="http://www.w3.org/2000/svg" width="57.35" height="57.4" viewBox="0 0 57.35 57.4"><title>git</title><path d="M56.7,26.8L30.9,1.1A2.88,2.88,0,0,0,28.8.2a3,3,0,0,0-2.1.9L1,26.8a3,3,0,0,0,0,4.1L26.8,56.7a2.88,2.88,0,0,0,2.1.9,3,3,0,0,0,2.1-.9L56.7,31A3.09,3.09,0,0,0,56.7,26.8Zm-17.2-.4,0.6-.2A5.07,5.07,0,0,1,41,26a3.3,3.3,0,1,1-3.3,3.3,3.53,3.53,0,0,1,.3-1.4l0.3-.6-6.5-6.5-0.8.8H30V38l0.5,0.3a3.38,3.38,0,1,1-2.8-.2l0.6-.2V20.7l-0.6-.2a3.34,3.34,0,0,1-2.2-3.1,3.53,3.53,0,0,1,.3-1.4l0.3-.6L20.7,10,22,8.7l5.6,5.6,0.5-.1a2.49,2.49,0,0,1,.8-0.1,3.33,3.33,0,0,1,3.3,3.3,1.49,1.49,0,0,1-.2.9l-0.2.6Zm15.8,3.2L29.5,55.4a1.08,1.08,0,0,1-.7.3,0.83,0.83,0,0,1-.7-0.3L2.4,29.6a1,1,0,0,1,0-1.4L19.3,11.3l4.5,4.5a7.72,7.72,0,0,0-.2,1.5,5.27,5.27,0,0,0,2.8,4.6V36.4A5.27,5.27,0,0,0,23.6,41a5.3,5.3,0,1,0,10.6,0,5.26,5.26,0,0,0-2.1-4.2V24L36,27.9a4.14,4.14,0,0,0-.2,1.6,5.3,5.3,0,1,0,5.3-5.3,2.77,2.77,0,0,0-.9.1l-6-6a2.77,2.77,0,0,0,.1-0.9A5.34,5.34,0,0,0,29,12.1a1.7,1.7,0,0,0-.7.1L23.5,7.4l4.9-4.9a1.08,1.08,0,0,1,.7-0.3,0.83,0.83,0,0,1,.7.3L55.6,28.3A1.35,1.35,0,0,1,55.3,29.6Z" transform="translate(-0.17 -0.2)"  /></svg>