<svg xmlns="http://www.w3.org/2000/svg" id="globe" viewBox="0 0 56.4 56.4"><path d="M28.2 0a28.2 28.2 0 1 0 28.2 28.2A28.23 28.23 0 0 0 28.2 0zm-6.1 2.3c-2.7 2.1-4.9 5.6-6.6 9.9-3.1.1-6.1.4-9 .6A26.61 26.61 0 0 1 22.1 2.3zM5.4 14.5c3.1-.3 6.3-.5 9.5-.7a47.23 47.23 0 0 0-2.2 13.6H1.5a28.24 28.24 0 0 1 3.9-12.9zM1.6 29h11.2A44 44 0 0 0 15 42.6c-3.2-.2-6.4-.4-9.5-.7A26 26 0 0 1 1.6 29zm4.9 14.6q4.35.45 9 .6c1.6 4.3 3.9 7.8 6.6 9.9A26.61 26.61 0 0 1 6.5 43.6zm20.9 11.1c-4.2-.5-7.8-4.5-10.2-10.5 3.4.1 6.8.2 10.2.2v10.3zm0-11.8c-3.6 0-7.3-.1-10.8-.2A47.36 47.36 0 0 1 14.4 29h13v13.9zm0-15.5h-13a47.94 47.94 0 0 1 2.2-13.7c3.5-.2 7.1-.2 10.8-.2v13.9zm0-15.5c-3.4 0-6.8.1-10.2.2 2.4-6 6-10 10.2-10.5v10.3zm27.4 15.5H43.6a47.23 47.23 0 0 0-2.2-13.6c3.2.2 6.4.4 9.6.7a25.93 25.93 0 0 1 3.8 12.9zm-4.9-14.6q-4.5-.45-9-.6c-1.6-4.3-3.9-7.8-6.6-9.9a26.61 26.61 0 0 1 15.6 10.5zM29 1.6c4.2.5 7.8 4.5 10.2 10.5-3.4-.1-6.8-.2-10.2-.2V1.6zm0 11.9c3.6 0 7.3.1 10.8.2A47.36 47.36 0 0 1 42 27.4H29V13.5zM29 29h13a47.94 47.94 0 0 1-2.2 13.7c-3.5.2-7.2.2-10.8.2V29zm0 15.5c3.4 0 6.9-.1 10.2-.2-2.4 6-6 10-10.2 10.5V44.5zm5.3 9.6c2.7-2.1 4.9-5.6 6.6-9.9 3.1-.1 6.1-.4 9-.6a26.61 26.61 0 0 1-15.6 10.5zM51 41.9c-3.1.3-6.3.5-9.6.7A47.23 47.23 0 0 0 43.6 29h11.2A25.93 25.93 0 0 1 51 41.9z"/></svg>