<svg id="globe" xmlns="http://www.w3.org/2000/svg" width="56.4" height="56.4" viewBox="0 0 56.4 56.4"><title>globe</title><path d="M28.2,0A28.2,28.2,0,1,0,56.4,28.2,28.23,28.23,0,0,0,28.2,0ZM22.1,2.3c-2.7,2.1-4.9,5.6-6.6,9.9-3.1.1-6.1,0.4-9,.6A26.61,26.61,0,0,1,22.1,2.3ZM5.4,14.5c3.1-.3,6.3-0.5,9.5-0.7a47.23,47.23,0,0,0-2.2,13.6H1.5A28.24,28.24,0,0,1,5.4,14.5ZM1.6,29H12.8A44,44,0,0,0,15,42.6c-3.2-.2-6.4-0.4-9.5-0.7A26,26,0,0,1,1.6,29ZM6.5,43.6q4.35,0.45,9,.6c1.6,4.3,3.9,7.8,6.6,9.9A26.61,26.61,0,0,1,6.5,43.6ZM27.4,54.7c-4.2-.5-7.8-4.5-10.2-10.5,3.4,0.1,6.8.2,10.2,0.2V54.7h0Zm0-11.8c-3.6,0-7.3-.1-10.8-0.2A47.36,47.36,0,0,1,14.4,29h13V42.9Zm0-15.5h-13a47.94,47.94,0,0,1,2.2-13.7c3.5-.2,7.1-0.2,10.8-0.2V27.4h0Zm0-15.5c-3.4,0-6.8.1-10.2,0.2,2.4-6,6-10,10.2-10.5V11.9h0ZM54.8,27.4H43.6a47.23,47.23,0,0,0-2.2-13.6c3.2,0.2,6.4.4,9.6,0.7A25.93,25.93,0,0,1,54.8,27.4ZM49.9,12.8q-4.5-.45-9-0.6C39.3,7.9,37,4.4,34.3,2.3A26.61,26.61,0,0,1,49.9,12.8ZM29,1.6c4.2,0.5,7.8,4.5,10.2,10.5-3.4-.1-6.8-0.2-10.2-0.2V1.6Zm0,11.9c3.6,0,7.3.1,10.8,0.2A47.36,47.36,0,0,1,42,27.4H29V13.5ZM29,29H42a47.94,47.94,0,0,1-2.2,13.7c-3.5.2-7.2,0.2-10.8,0.2V29Zm0,15.5c3.4,0,6.9-.1,10.2-0.2-2.4,6-6,10-10.2,10.5V44.5Zm5.3,9.6c2.7-2.1,4.9-5.6,6.6-9.9,3.1-.1,6.1-0.4,9-0.6A26.61,26.61,0,0,1,34.3,54.1ZM51,41.9c-3.1.3-6.3,0.5-9.6,0.7A47.23,47.23,0,0,0,43.6,29H54.8A25.93,25.93,0,0,1,51,41.9Z" transform="translate(0 0)"  /></svg>