<svg xmlns="http://www.w3.org/2000/svg" id="golden-gate" viewBox="0 0 64.92 46.04"><path d="M59.17 36.5V14.43h-1c-.08.35-.17.75-.28 1.18H52.1v-1.18h-1c0 .13-2.71 11.77-7.92 15.35v-.05C30.69 11.53 29.51 2.68 29.43.53V0h-1.69v1.46a70.51 70.51 0 0 1-9.56 12.47V0H16.5C13.93 9.39 2.75 13.79 2.64 13.83L3.12 15c.43-.17 9.43-3.85 13.38-11.64v12.26a52.5 52.5 0 0 1-10.65 8.22L6.47 25a49.09 49.09 0 0 0 7.92-5.81c.66-.58 1.37-1.22 2.12-1.93v21.35c-5.62.39-11.2.71-16.43 1.11l1.7 3.45s6-.68 14.72-1.63v3.06h1.68v-3.25l9.56-1V46h1.68v-5.9c7-.75 14.58-1.54 21.7-2.24v1.52h1V37.8l6.09-.59v3.2h1v-3.29l5.79-.54v-.31zm-1.47-20c-.33 1.25-.76 2.72-1.27 4.25H52.1v-4.28h5.6zm-5.59 9v-3.91h4c-.45 1.29-1 2.62-1.51 3.88h-2.5zm2.13.87a25.83 25.83 0 0 1-2.13 3.82v-3.85h2.13zm-3.11-8.15V31.4a5.21 5.21 0 0 1-2.73 1.8c-1.42.28-2.91-.54-4.44-2.41 3.66-2.63 5.98-8.64 7.17-12.6zm-9.06 12.19a5.16 5.16 0 0 1-1.18.35c-3.44.56-7.29-2.62-11.47-9.45V6.2c1.39 4.8 4.73 12.64 12.65 24.21zM27.74 38l-9.56.54V28.11h9.56V38zm0-11h-9.55v-7.8h9.56V27zm0-9h-9.55v-2.43c1.2-1.22 2.45-2.58 3.74-4.11h5.82V18zm-4.85-7.7a75 75 0 0 0 4.86-6.72v6.72h-4.86zm6.54 27.58V23.71c3.72 5.58 7.31 8.4 10.69 8.4a6.06 6.06 0 0 0 1-.08 6.26 6.26 0 0 0 1.74-.56c1.63 2 3.3 3.08 5 3.08a4.22 4.22 0 0 0 .81-.08 5.39 5.39 0 0 0 2.49-1.32v3.68c-6.11.27-13.68.62-21.73 1.05zm28.77-1.34l-6.09.26v-4.64l.17-.2h5.92v4.58zm0-5.44h-5.27a26.78 26.78 0 0 0 2.57-4.76h2.7v4.76zm0-5.62h-2.34c.53-1.3 1-2.63 1.4-3.88h.94v3.88zm-.67-4.75c.25-.81.47-1.59.67-2.3v2.3h-.67z" transform="translate(-.08)"/></svg>