<svg xmlns="http://www.w3.org/2000/svg" id="guarantee" viewBox="0 0 55.46 34.91"><path id="hand" d="M55.3 27.2l-1.5-11.3a2.12 2.12 0 0 0-2.4-1.8l-2 .3a2.27 2.27 0 0 0-1.9 2.4v.3a5.7 5.7 0 0 1-2.2-.4 35.63 35.63 0 0 1-3.9-1.3c-2.5-.9-4.1-1.5-5-1.3a10.44 10.44 0 0 0-5 2.3 13.61 13.61 0 0 1-8.9 2.9h-1a10.44 10.44 0 0 0-2.5 0c-1.4-.9-8-4.9-9.6-5.3a2.19 2.19 0 0 0-1.9.3 1.79 1.79 0 0 0-.5.7 4.87 4.87 0 0 0-1.1-.4 2.51 2.51 0 0 0-1.9.5 2.51 2.51 0 0 0-.4.7c-1.2-.4-2.5-.5-3.2.3a2.16 2.16 0 0 0-.5 1.7 5.63 5.63 0 0 0 1.7 2.6A25 25 0 0 0 4 22.2l.6.4c1 .7 5.6 3.6 10.1 6.4 2.5 1.5 4.8 2.9 6.5 3.8a22.19 22.19 0 0 0 4.1 2 1.7 1.7 0 0 0 .7.1 12.71 12.71 0 0 0 4.6-1.3c2-.9 4.2-2 5.8-2.9l1.9-1a25.87 25.87 0 0 1 6.6-2.3c.2 0 1.5-.2 2.5-.3l1.6-.2.2 1.1a2.17 2.17 0 0 0 2.2 1.9h.3l2-.3a2 2 0 0 0 1.6-2.4zm-47-11.9a.88.88 0 0 1 .7-.1 83.6 83.6 0 0 1 8.3 4.6l-.2.2-2-1.1c-3-1.6-5.3-2.8-6.9-3.5a.1.1 0 0 0 .1-.1zm-3.4.7a1.06 1.06 0 0 1 .8-.1 21.69 21.69 0 0 1 3.5 1.5c1.7.9 3.7 1.9 5.2 2.7l1.7.9a3.13 3.13 0 0 0-.5 1 8.47 8.47 0 0 1-3-1.5c-.4-.3-.9-.5-1.4-.8l-1.1-.6A41.11 41.11 0 0 0 5 16.4l-.2-.1a.37.37 0 0 0 .1-.3zm42.2 9.8c-1.4.2-2.4.3-2.7.3a28.25 28.25 0 0 0-6.9 2.4 18.18 18.18 0 0 0-1.9 1c-1.7.9-3.7 2-5.7 2.9-2.7 1.2-3.9 1.3-4.4 1.2-.9-.2-4.8-2.3-10.2-5.7-4.5-2.7-9-5.6-10-6.3l-.6-.5a18.39 18.39 0 0 1-2.2-1.7 3.38 3.38 0 0 1-1.3-1.8.84.84 0 0 1 .2-.7 1.17 1.17 0 0 1 .9-.1 8.08 8.08 0 0 1 2.2.7c1.7.8 3.3 1.7 4.9 2.6l1.2.7a9.13 9.13 0 0 1 1.3.8 11.66 11.66 0 0 0 3.6 1.6 3.15 3.15 0 0 0 .9 1.7 6.74 6.74 0 0 0 4.7 1.8h.3c.4 0 .9.1 1.3.1 1 0 2-.1 3-.2l1.5-.1c.7 0 1.3-.1 2-.1a31.08 31.08 0 0 0 4.3-.3 9.45 9.45 0 0 0 4.2-1.9c.3-.2.6-.5.9-.7a.56.56 0 0 0 0-.9.62.62 0 0 0-.8-.1c-.3.2-.6.5-.9.7-2.4 1.8-4.9 1.9-7.8 2a13.4 13.4 0 0 0-2 .1l-1.5.1a18.6 18.6 0 0 1-4.1.1h-.3a5.68 5.68 0 0 1-3.9-1.4 2 2 0 0 1 0-2.7c.9-1.1 2.5-1 3.9-.9h1.1a14.94 14.94 0 0 0 9.6-3.1 9.36 9.36 0 0 1 4.5-2.1c.7-.1 2.7.6 4.4 1.2 2.5.9 5.1 1.9 6.8 1.7l1 7.3zm6.8 2.2a.71.71 0 0 1-.6.3l-2 .3h-.1a1 1 0 0 1-.9-.8l-1.5-11.2a.89.89 0 0 1 .8-1l2-.3h.1a1 1 0 0 1 .9.8L54 27.4a1.27 1.27 0 0 1-.1.6z" transform="translate(.13 .01)"/><path d="M8.2 10a7.41 7.41 0 0 1-.1-2.1V2.5a2.31 2.31 0 0 1 2-2.5h.4a3.29 3.29 0 0 1 1.9.6c.1.1.1.2 0 .2l-.5.7c-.1.1-.1.1-.2 0a1.5 1.5 0 0 0-1.1-.4 1.13 1.13 0 0 0-1.2 1.1v2.6a1.66 1.66 0 0 1 1.2-.5 1.93 1.93 0 0 1 2 1.4 7.94 7.94 0 0 1 .1 2.2 7.41 7.41 0 0 1-.1 2.1 2.06 2.06 0 0 1-2.2 1.5A2.17 2.17 0 0 1 8.2 10zm3.2-.4a9.7 9.7 0 0 0 .1-1.7 4.88 4.88 0 0 0-.1-1.7 1 1 0 0 0-1-.7.9.9 0 0 0-1 .7 5 5 0 0 0-.1 1.7 4.88 4.88 0 0 0 .1 1.7 1.09 1.09 0 0 0 1 .7.87.87 0 0 0 1-.7zM14.4 5.8c0-3.5.1-3.9.2-4.3A2.17 2.17 0 0 1 16.8 0 2.06 2.06 0 0 1 19 1.5v4.3c0 3.6 0 3.9-.2 4.3a2.17 2.17 0 0 1-2.2 1.5 2.06 2.06 0 0 1-2.2-1.5zm2.3 4.5a.82.82 0 0 0 1-.7c.1-.2.1-.5.1-3.9s0-3.7-.1-3.9a1 1 0 0 0-1-.7.87.87 0 0 0-1 .7 25.41 25.41 0 0 0-.1 3.9 25.41 25.41 0 0 0 .1 3.9 1 1 0 0 0 1 .7zM24 .3a.22.22 0 0 1 .2-.2h2.3a2.4 2.4 0 0 1 2.6 1.8 12.46 12.46 0 0 1 .3 3.8 12.86 12.86 0 0 1-.3 3.9 2.5 2.5 0 0 1-2.6 1.8h-2.3a.22.22 0 0 1-.2-.2zm1.4 9.8h.9a1.25 1.25 0 0 0 1.4-1 9.26 9.26 0 0 0 .3-3.3 13 13 0 0 0-.2-3.4 1.38 1.38 0 0 0-1.4-1h-.9a.1.1 0 0 0-.1.1V10c-.1 0 0 .1 0 .1zM32.6.3a.22.22 0 0 1 .2-.2h1a.22.22 0 0 1 .2.2l2.3 10.9c0 .1 0 .2-.1.2h-1a.22.22 0 0 1-.2-.2l-.5-2.4H32l-.5 2.4a.22.22 0 0 1-.2.2h-1c-.1 0-.1 0-.2-.1zm1.7 7.3l-1-4.9-1 4.9zM38.5 11.3a.35.35 0 0 1-.2-.1V6.7L36.1.3c0-.1 0-.2.1-.2h1c.1 0 .2 0 .2.2L39 5 40.5.3a.22.22 0 0 1 .2-.2h1c.1 0 .2.1.1.2l-2.1 6.4v4.5a.35.35 0 0 1-.1.2zM45.2 11.5c-1.7 0-2.5-1-2.6-2.9 0-.1 0-.2.1-.2l1-.2c.1 0 .2 0 .2.1v.1c.1 1.4.5 1.9 1.4 1.9s1.2-.4 1.2-1.9c0-1.3-.2-1.8-1.1-2.1l-.8-.3c-1.5-.6-2-1.3-2-3.1S43.5 0 45.1 0s2.5.9 2.5 2.7a.22.22 0 0 1-.2.2l-.7.1c-.1 0-.1 0-.2-.1v-.1c0-1.1-.4-1.6-1.2-1.6S44 1.7 44 2.8a1.69 1.69 0 0 0 1.2 1.9l.6.3c1.4.6 1.9 1.3 1.9 3.2.1 2.2-.6 3.3-2.5 3.3z" transform="translate(.13 .01)"/></svg>