<svg id="house" xmlns="http://www.w3.org/2000/svg" width="62.2" height="56.5" viewBox="0 0 62.2 56.5"><title>house</title><polygon points="59.2 56.5 3.2 56.5 3.2 34.5 5.2 34.5 5.2 54.5 59.2 54.5 59.2 56.5"  /><polygon points="59 48.2 57 48.2 57 27.8 30.8 2.8 4.7 27.6 3.3 26.1 30.8 0 59 26.9 59 48.2"  /><polygon points="7 34.5 4.2 31.7 1.4 34.5 0 33.1 4.2 28.9 8.4 33.1 7 34.5"  /><polygon points="58 53.2 53.8 49 55.2 47.6 58 50.4 60.8 47.6 62.2 49 58 53.2"  /><polygon points="25.7 52.9 25.7 35.8 34.7 35.8 34.7 52.9 36.7 52.9 36.7 33.8 23.7 33.8 23.7 52.9 25.7 52.9"  /></svg>