<svg id="ireland" xmlns="http://www.w3.org/2000/svg" width="64.95" height="56.67" viewBox="0 0 64.95 56.67"><title>ireland</title><path d="M41.84,56.67H23.33a.78.78,0,0,1-.78-.78V20.11a.78.78,0,0,1,.33-.64L32.14,13a.78.78,0,0,1,.9,0l9.25,6.52a.78.78,0,0,1,.33.64V55.88A.78.78,0,0,1,41.84,56.67ZM24.12,55.1H41.05V20.52l-8.47-6-8.47,6Z" transform="translate(-0.05)"/><path d="M38,45.64H27.23a.78.78,0,0,1-.78-.78v-13a.81.81,0,0,1,0-.1c0-4.05,2.42-6.67,6.16-6.67s6.1,2.58,6.13,6.57a.65.65,0,0,1,0,.1V44.86A.78.78,0,0,1,38,45.64ZM28,44.08h9.16V31.83a.73.73,0,0,1,0-.1c0-3.15-1.75-5.1-4.57-5.1-2.2,0-4.55,1.32-4.59,5a.76.76,0,0,1,0,.1Z" transform="translate(-0.05)"/><path d="M9.15,53.23H5.41a.78.78,0,0,1-.78-.78V47.87A2.6,2.6,0,0,1,7.28,45a2.59,2.59,0,0,1,2.65,2.77.56.56,0,0,1,0,.07v4.57A.78.78,0,0,1,9.15,53.23Zm-3-1.56H8.37V47.93s0,0,0-.06c0-.82-.39-1.27-1.08-1.27S6.2,47,6.19,47.85v3.82Z" transform="translate(-0.05)"/><path d="M17.2,53.23H13.46a.78.78,0,0,1-.78-.78V47.92s0,0,0,0a2.66,2.66,0,1,1,5.3-.06s0,0,0,.07v4.57A.78.78,0,0,1,17.2,53.23Zm-3-1.56h2.18V47.93s0,0,0-.06c0-.82-.39-1.27-1.08-1.27s-1.08.44-1.09,1.23c0,0,0,0,0,0Z" transform="translate(-0.05)"/><path d="M23.33,18a.78.78,0,0,1-.78-.78V8.08a.79.79,0,0,1,.1-.38l1.43-2.57a.81.81,0,0,1,1.37,0L26.87,7.7a.77.77,0,0,1,.1.38v6.86a.78.78,0,1,1-1.56,0V8.28l-.65-1.16-.64,1.16v8.91A.78.78,0,0,1,23.33,18Z" transform="translate(-0.05)"/><path d="M41.84,18a.78.78,0,0,1-.78-.78V8.28l-.64-1.16-.64,1.16v6.66a.78.78,0,1,1-1.56,0V8.08a.78.78,0,0,1,.1-.38l1.43-2.57a.81.81,0,0,1,1.37,0L42.52,7.7a.79.79,0,0,1,.1.38v9.11A.78.78,0,0,1,41.84,18Z" transform="translate(-0.05)"/><path d="M24.76,4.18A.78.78,0,0,1,24,3.4V.78a.78.78,0,0,1,1.56,0V3.4A.78.78,0,0,1,24.76,4.18Z" transform="translate(-0.05)"/><path d="M40.41,4.18a.78.78,0,0,1-.78-.78V.78a.78.78,0,0,1,1.56,0V3.4A.78.78,0,0,1,40.41,4.18Z" transform="translate(-0.05)"/><path d="M20.35,56.67H.83a.78.78,0,0,1-.78-.78V42.39a.78.78,0,0,1,.78-.78H20.35a.78.78,0,1,1,0,1.56H1.62V55.1H20.35a.78.78,0,1,1,0,1.56Z" transform="translate(-0.05)"/><path d="M3.08,40.69a.78.78,0,0,1-.78-.78V34.74a.78.78,0,1,1,1.56,0v5.17A.78.78,0,0,1,3.08,40.69Z" transform="translate(-0.05)"/><path d="M10.84,40.69a.78.78,0,0,1-.78-.78V34.74a.78.78,0,0,1,1.56,0v5.17A.78.78,0,0,1,10.84,40.69Z" transform="translate(-0.05)"/><path d="M18.61,40.69a.78.78,0,0,1-.78-.78V34.74a.78.78,0,0,1,1.56,0v5.17A.78.78,0,0,1,18.61,40.69Z" transform="translate(-0.05)"/><path d="M59.65,53.23H55.91a.78.78,0,0,1-.78-.78V47.88a.43.43,0,0,1,0-.07,2.66,2.66,0,1,1,5.3.06s0,0,0,0v4.53A.78.78,0,0,1,59.65,53.23Zm-3-1.56h2.18V47.88a.37.37,0,0,1,0,0c0-.79-.4-1.23-1.09-1.23s-1.08.45-1.08,1.27c0,0,0,0,0,.06Z" transform="translate(-0.05)"/><path d="M51.59,53.23H47.85a.78.78,0,0,1-.78-.78V47.88a.43.43,0,0,1,0-.07,2.65,2.65,0,1,1,5.3.06v4.58A.78.78,0,0,1,51.59,53.23Zm-3-1.56h2.18V47.88a.19.19,0,0,1,0,0c0-.8-.4-1.24-1.09-1.24s-1.08.45-1.08,1.27c0,0,0,0,0,.06Z" transform="translate(-0.05)"/><path d="M64.22,56.67H44.7a.78.78,0,1,1,0-1.56H63.44V43.17H44.7a.78.78,0,1,1,0-1.56H64.22a.78.78,0,0,1,.78.78v13.5A.78.78,0,0,1,64.22,56.67Z" transform="translate(-0.05)"/><path d="M62,40.69a.78.78,0,0,1-.78-.78V34.74a.78.78,0,1,1,1.56,0v5.17A.78.78,0,0,1,62,40.69Z" transform="translate(-0.05)"/><path d="M54.21,40.69a.78.78,0,0,1-.78-.78V34.74a.78.78,0,1,1,1.56,0v5.17A.78.78,0,0,1,54.21,40.69Z" transform="translate(-0.05)"/><path d="M46.45,40.69a.78.78,0,0,1-.78-.78V34.74a.78.78,0,1,1,1.56,0v5.17A.78.78,0,0,1,46.45,40.69Z" transform="translate(-0.05)"/></svg>