<svg id="key" xmlns="http://www.w3.org/2000/svg" width="56.5" height="56.5" viewBox="0 0 56.5 56.5"><title>key</title><path d="M43.9,17.5a5.12,5.12,0,0,0,5.2-5.2,5.2,5.2,0,1,0-10.4,0A5.12,5.12,0,0,0,43.9,17.5ZM41.5,10a3.25,3.25,0,0,1,4.6,4.6,3.39,3.39,0,0,1-4.6,0,4.14,4.14,0,0,1-.9-2.3A3.17,3.17,0,0,1,41.5,10Z"  /><path d="M51.32,5.08A16.93,16.93,0,0,0,39.06,0,17.27,17.27,0,0,0,26.8,5.08a17.57,17.57,0,0,0-4,17.94l1.4-1.4A14.77,14.77,0,0,1,28.1,6.48,15.36,15.36,0,0,1,39.06,2,15.71,15.71,0,0,1,50,6.48a15.35,15.35,0,0,1-11,26.21,15.13,15.13,0,0,1-7.27-1.79l-0.6-.3L7.07,54.51l-4.19-1.2L2,48.83a11.81,11.81,0,0,0,2.19-2.29,5.83,5.83,0,0,0,.3-2.39,8.09,8.09,0,0,1,.1-1.69,0.76,0.76,0,0,1,.5-0.1,3.74,3.74,0,0,1,1,.1c0.4,0,.8.1,1.1,0.1A2.6,2.6,0,0,0,9,42a3,3,0,0,0,.4-2.79c0-.4-0.1-1-0.1-1.3a3.54,3.54,0,0,1,.7-0.1h1a4.58,4.58,0,0,0,2.09-.1c1-.3,2.29-2,2.89-2.79l11-11-1.3-1.3-11.06,11-0.1.1a11.22,11.22,0,0,1-2.09,2.19H9.86a2.75,2.75,0,0,0-2.19.8,3.11,3.11,0,0,0-.3,2.69c0,0.4.1,1,.1,1.3H6.08c-0.4,0-.8-0.1-1.1-0.1a2.78,2.78,0,0,0-1.69.5c-0.8.7-.8,1.89-0.8,3.19a6.16,6.16,0,0,1-.1,1.49,10.14,10.14,0,0,1-2.09,2L0,48l1.3,6.68L7.67,56.5,31.59,32.78a18.24,18.24,0,0,0,7.57,1.69A17.27,17.27,0,0,0,51.42,29.4,17,17,0,0,0,56.5,17.24,17.38,17.38,0,0,0,51.32,5.08Z"  /></svg>