<svg xmlns="http://www.w3.org/2000/svg" id="led" viewBox="0 0 55.5 58.8"><path d="M49.85 32.2H48V20.7C48 9.7 39.35.4 28.55 0h-.7a20.31 20.31 0 0 0-20.3 20.3v12h-1.8a5.7 5.7 0 1 0 0 11.4H13v11.6a3.5 3.5 0 0 0 7 0V43.7h15.6v11.5a3.5 3.5 0 0 0 7 0V41.8h-2v13.5a1.5 1.5 0 0 1-3 0V41.7H18v13.5a1.5 1.5 0 0 1-3 0V41.6H5.75A3.76 3.76 0 0 1 2 37.9a3.69 3.69 0 0 1 3.7-3.7h3.8v-14a18.08 18.08 0 0 1 5.6-13.1A17.84 17.84 0 0 1 28.45 2a18.67 18.67 0 0 1 17.6 18.7v13.5h3.8a3.76 3.76 0 0 1 3.7 3.7 3.69 3.69 0 0 1-3.7 3.7h-3.5v2h3.5a5.76 5.76 0 0 0 5.7-5.7 5.7 5.7 0 0 0-5.7-5.7z" transform="translate(-.05)"/><path d="M13.7 32.3h27.7v2H13.7z"/></svg>