<svg id="led" xmlns="http://www.w3.org/2000/svg" width="55.5" height="58.8" viewBox="0 0 55.5 58.8"><title>led</title><path d="M49.85,32.2H48V20.7C48,9.7,39.35.4,28.55,0h-0.7A20.31,20.31,0,0,0,7.55,20.3v12H5.75a5.7,5.7,0,1,0,0,11.4H13V55.3a3.5,3.5,0,0,0,7,0V43.7h15.6V55.2a3.5,3.5,0,0,0,7,0V41.8h-2V55.3a1.5,1.5,0,0,1-3,0V41.7H18V55.2a1.5,1.5,0,0,1-3,0V41.6H5.75A3.76,3.76,0,0,1,2,37.9a3.69,3.69,0,0,1,3.7-3.7h3.8v-14a18.08,18.08,0,0,1,5.6-13.1A17.84,17.84,0,0,1,28.45,2a18.67,18.67,0,0,1,17.6,18.7V34.2h3.8a3.76,3.76,0,0,1,3.7,3.7,3.69,3.69,0,0,1-3.7,3.7h-3.5v2h3.5a5.76,5.76,0,0,0,5.7-5.7A5.7,5.7,0,0,0,49.85,32.2Z" transform="translate(-0.05 0)"  /><rect x="13.7" y="32.3" width="27.7" height="2"  /></svg>