<svg xmlns="http://www.w3.org/2000/svg" viewBox="0 0 64.4 12.93"><path d="M6.2 6.42L0 .12h6.2v6.3zM10.4 2.8a4.2 4.2 0 0 1 .14-1.46A1.82 1.82 0 0 1 12.42.01a1.9 1.9 0 0 1 1.83 1.16.07.07 0 0 1 0 .1l-.68.33a.07.07 0 0 1-.1 0 1.07 1.07 0 0 0-1-.7 1 1 0 0 0-1 .72 3.92 3.92 0 0 0-.1 1.23 3.92 3.92 0 0 0 .08 1.16 1 1 0 0 0 1 .72 1.07 1.07 0 0 0 1-.7.07.07 0 0 1 .1 0l.68.33a.07.07 0 0 1 0 .1 1.9 1.9 0 0 1-1.83 1.16 1.82 1.82 0 0 1-1.88-1.33 4.19 4.19 0 0 1-.12-1.49zM15.32 4.29a4.39 4.39 0 0 1-.14-1.49 4.39 4.39 0 0 1 .14-1.49 1.86 1.86 0 0 1 1.91-1.3 1.86 1.86 0 0 1 1.92 1.3 4.37 4.37 0 0 1 .14 1.49 4.37 4.37 0 0 1-.14 1.49 1.86 1.86 0 0 1-1.92 1.3 1.86 1.86 0 0 1-1.91-1.3zm2.92-.28a4.33 4.33 0 0 0 .1-1.24 4.29 4.29 0 0 0-.1-1.24 1.07 1.07 0 0 0-2 0 4.28 4.28 0 0 0-.1 1.24 4.32 4.32 0 0 0 .08 1.24 1.07 1.07 0 0 0 2 0zM20.52.18A.08.08 0 0 1 20.6.1h.73a.14.14 0 0 1 .13.08l2.2 3.73V.18a.08.08 0 0 1 .08-.08h.69a.08.08 0 0 1 .08.08v5.25a.08.08 0 0 1-.08.08h-.72a.14.14 0 0 1-.14-.08L21.4 1.7v3.73a.08.08 0 0 1-.08.08h-.72a.08.08 0 0 1-.08-.08zM27.15 5.51a.08.08 0 0 1-.08-.08V1.01H25.6a.08.08 0 0 1-.08-.08V.18A.08.08 0 0 1 25.6.1h3.87a.08.08 0 0 1 .08.08v.68a.08.08 0 0 1-.08.08H28v4.49a.08.08 0 0 1 0 .08zM30.52.18A.08.08 0 0 1 30.6.1H34a.08.08 0 0 1 .08.08v.68a.08.08 0 0 1-.08.08h-2.49v1.37h2.09a.08.08 0 0 1 .08.08v.68a.08.08 0 0 1-.08.08h-2.09v1.47H34a.08.08 0 0 1 .08.08v.68a.08.08 0 0 1-.08.13h-3.4a.08.08 0 0 1-.08-.08zM35.25.18a.08.08 0 0 1 .08-.08h.73a.14.14 0 0 1 .13.08l2.2 3.73V.18a.08.08 0 0 1 .08-.08h.69a.08.08 0 0 1 .08.08v5.25a.08.08 0 0 1-.08.08h-.72a.14.14 0 0 1-.14-.08L36.14 1.7v3.73a.08.08 0 1 1-.14.08h-.69a.08.08 0 0 1-.08-.08zM41.88 5.51a.08.08 0 0 1-.08-.08V1.01h-1.46a.08.08 0 0 1-.08-.08V.18a.08.08 0 0 1 .08-.08h3.87a.08.08 0 0 1 .08.08v.68a.08.08 0 0 1-.08.08h-1.42v4.49a.08.08 0 0 1-.08.08h-.83zM10.79 12.79a.07.07 0 0 1-.08-.08V7.46a.08.08 0 0 1 .08-.08h1.81a1.48 1.48 0 0 1 1.66 1.53 1.48 1.48 0 0 1-1.42 1.54h-1.63v2.26a.08.08 0 0 1-.08.08zm3-3.87c0-.69-.43-1.11-1.23-1.11h-1.35v2.2h1.37c.8 0 1.23-.41 1.23-1.1zM15.56 7.46a.08.08 0 0 1 .08-.08h3.09a.08.08 0 0 1 .08.08v.27a.08.08 0 0 1-.08.08h-2.66v2h2.3a.07.07 0 0 1 .08.08v.27a.07.07 0 0 1-.06.08h-2.32v2h2.67a.08.08 0 0 1 .08.08v.27a.08.08 0 0 1-.08.08h-3.1a.07.07 0 0 1-.08-.08zM23.39 12.79a.11.11 0 0 1-.1-.07l-1.14-2.35h-1.46v2.34a.08.08 0 0 1-.08.08h-.29a.07.07 0 0 1-.08-.08V7.46a.08.08 0 0 1 .08-.08h1.81a1.46 1.46 0 0 1 1.65 1.5 1.38 1.38 0 0 1-1.11 1.43l1.18 2.39v.09zm-.12-3.91c0-.68-.43-1.07-1.2-1.07h-1.38v2h1.38c.77.13 1.2-.25 1.2-.94zM25.28 7.46a.08.08 0 0 1 .08-.08h3.09a.08.08 0 0 1 .08.08v.27a.08.08 0 0 1-.08.08h-2.67v2h2.3a.07.07 0 0 1 .08.08v.27a.08.08 0 0 1-.08.08h-2.3v2.47a.08.08 0 0 1-.08.08h-.29a.07.07 0 0 1-.08-.08zM29.79 11.65a4.72 4.72 0 0 1-.16-1.57 4.72 4.72 0 0 1 .16-1.57 1.86 1.86 0 0 1 3.49 0 4.72 4.72 0 0 1 .16 1.57 4.72 4.72 0 0 1-.16 1.57 1.86 1.86 0 0 1-3.49 0zm3.06-3a1.39 1.39 0 0 0-2.62 0 4.69 4.69 0 0 0-.13 1.44 4.69 4.69 0 0 0 .13 1.44 1.39 1.39 0 0 0 2.62 0 4.69 4.69 0 0 0 .15-1.45 4.69 4.69 0 0 0-.15-1.44zM38.11 12.79a.11.11 0 0 1-.1-.07l-1.14-2.35h-1.46v2.34a.08.08 0 0 1-.08.08H35a.07.07 0 0 1-.08-.08V7.46a.08.08 0 0 1 .08-.08h1.8a1.46 1.46 0 0 1 1.65 1.5 1.38 1.38 0 0 1-1.11 1.43l1.18 2.39v.09zM38 8.87c0-.68-.43-1.07-1.2-1.07h-1.39v2h1.38c.77.14 1.21-.24 1.21-.93zM40 7.46a.08.08 0 0 1 .08-.08h.3a.12.12 0 0 1 .12.08l1.76 3.87L44 7.46a.12.12 0 0 1 .11-.08h.31a.08.08 0 0 1 .08.08v5.25a.08.08 0 0 1-.08.08h-.29a.076.076 0 0 1-.13-.08V8.47l-1.56 3.43a.13.13 0 0 1-.14.09h-.16a.13.13 0 0 1-.13-.09l-1.53-3.43v4.24a.08.08 0 0 1-.08.08h-.29a.07.07 0 0 1-.11-.08zM47.6 7.46a.1.1 0 0 1 .1-.08h.3c.06 0 .08 0 .1.08l1.9 5.25a.05.05 0 0 1-.06.08h-.31a.09.09 0 0 1-.1-.08L49 11.38h-2.35l-.48 1.33c0 .06-.06.08-.1.08h-.31a.05.05 0 0 1-.06-.08zm1.26 3.48l-1-2.83-1 2.83zM51.14 7.46a.08.08 0 0 1 .08-.08h.29a.14.14 0 0 1 .14.08l2.7 4.45V7.46a.08.08 0 0 1 .08-.08h.29a.08.08 0 0 1 .08.08v5.25a.07.07 0 0 1-.06.08h-.33a.15.15 0 0 1-.14-.08l-2.64-4.46v4.46a.08.08 0 0 1-.08.08h-.29a.07.07 0 0 1-.08-.08zM56.29 10.08a5.08 5.08 0 0 1 .14-1.58 1.65 1.65 0 0 1 1.71-1.21 1.7 1.7 0 0 1 1.63 1 .08.08 0 0 1 0 .1l-.26.13a.07.07 0 0 1-.1 0 1.33 1.33 0 0 0-1.24-.77 1.23 1.23 0 0 0-1.27.9 4.92 4.92 0 0 0-.12 1.46 4.91 4.91 0 0 0 .12 1.46 1.23 1.23 0 0 0 1.27.9 1.32 1.32 0 0 0 1.24-.77.07.07 0 0 1 .1 0l.26.13a.08.08 0 0 1 0 .1 1.7 1.7 0 0 1-1.63 1 1.65 1.65 0 0 1-1.71-1.21 5.08 5.08 0 0 1-.14-1.64zM61.15 7.46a.08.08 0 0 1 .08-.08h3.09a.08.08 0 0 1 .08.08v.27a.08.08 0 0 1-.08.08h-2.67v2H64a.07.07 0 0 1 0 .13v.27a.07.07 0 0 1-.06.08h-2.32v2h2.67a.08.08 0 0 1 .08.08v.27a.08.08 0 0 1-.08.08h-3.06a.07.07 0 0 1-.08-.08z"/></svg>