<svg xmlns="http://www.w3.org/2000/svg" id="logomark-pageperformance" viewBox="0 0 65 13"><path d="M10.7 5.6s-.1 0 0 0c-.1-.1-.1-.1 0 0L10.6.2s0-.1.1-.1h2c.9 0 1.7.8 1.7 1.7s-.8 1.7-1.7 1.7h-1.1v1.9s0 .1-.1.1l-.8.1zm2.9-3.7c0-.5-.4-.8-.8-.8H11.6v1.6h1.1c.4 0 .9-.3.9-.8zM16.4.3l.1-.1h.7s.1 0 .1.1l1.8 5.3v.1h-.8c-.1 0-.1 0-.1-.1l-.4-1.1h-2l-.4 1.1-.1.1h-.9l2-5.4zm1.2 3.4l-.7-2.1-.7 2.1h1.4zM19.8 2.9c0-.5 0-1 .1-1.5.3-.8 1.1-1.4 2-1.3.8-.1 1.6.4 1.9 1.1v.1l-.7.3H23c-.2-.4-.6-.7-1.1-.7s-.9.2-1 .7c-.1.8-.1 1.7 0 2.5.1.4.6.7 1 .7.5 0 .9-.2 1-.7.1-.2.1-.5.1-.7h-.9s-.1 0-.1-.1v-.7s0-.1.1-.1h1.8s.1 0 .1.1v.5c0 .4 0 .8-.1 1.2-.4 1.1-1.5 1.6-2.6 1.3-.6-.2-1.1-.7-1.3-1.3-.1-.5-.2-.9-.2-1.4zM25.2.3c0-.1 0-.1 0 0 .1-.1.1-.1 0 0l3.5-.1s.1 0 .1.1V1s0 .1-.1.1h-2.5v1.4h2.1s.1 0 .1.1v.7s0 .1-.1.1h-2.1v1.4h2.5s.1 0 .1.1v.7s0 .1-.1.1h-3.4s-.1 0-.1-.1V.3zM10.8 12.9c0-.1 0-.1 0 0l-.1-5.4s0-.1.1-.1h1.8c.8-.1 1.6.5 1.7 1.4.1.8-.5 1.6-1.4 1.7h-1.7v2.2s0 .1-.1.1h-.3v.1zM13.9 9c0-.6-.4-1.1-1-1.1H11.3V10h1.4c.6.1 1.1-.3 1.2-.9V9zM15.6 7.6c0-.1.1-.1 0 0 .1-.1.1-.1 0 0l3.2-.1s.1 0 .1.1v.3s0 .1-.1.1h-2.7v1.9h2.3s.1 0 .1.1v.3s0 .1-.1.1h-2.3v2h2.7s.1 0 .1.1v.3s0 .1-.1.1h-3.1s-.1 0-.1-.1V7.6zM23.5 12.9c-.1 0-.1 0 0 0l-1.2-2.4h-1.5v2.3s0 .1-.1.1h-.3s-.1 0-.1-.1V7.6s0-.1.1-.1h1.8c.8-.1 1.5.5 1.6 1.3V9c.1.7-.4 1.3-1.1 1.4l1.2 2.4v.1h-.4zM23.4 9c0-.6-.4-1.1-1-1.1H20.8v2h1.4c.6.1 1.1-.3 1.2-.9 0 .2 0 .1 0 0zM25.4 7.6c0-.1 0-.1 0 0 .1-.1.1-.1 0 0l3.2-.1s.1 0 .1.1v.3s0 .1-.1.1h-2.7v2h2.3s.1 0 .1.1v.3s0 .1-.1.1h-2.3v2.4s0 .1-.1.1h-.3s-.1 0-.1-.1V7.6zM29.9 11.8c-.2-1-.2-2.1 0-3.1.4-1 1.4-1.5 2.4-1.1.5.2.9.6 1.1 1.1.2 1 .2 2.1 0 3.1-.4 1-1.4 1.5-2.4 1.1-.5-.2-.9-.6-1.1-1.1zM33 8.7c-.3-.7-1.1-1.1-1.8-.8-.4.1-.7.4-.8.8-.2 1-.2 1.9 0 2.9.3.7 1.1 1.1 1.8.8.4-.1.7-.4.8-.8.2-.9.2-1.9 0-2.9zM38.3 12.9c-.1 0-.1 0 0 0L37 10.5h-1.5v2.3s0 .1-.1.1h-.3s-.1 0-.1-.1V7.6s0-.1.1-.1H37c.8-.1 1.5.5 1.6 1.3V9c.1.7-.4 1.3-1.1 1.4l1.2 2.4v.1h-.4zM38.2 9c0-.6-.4-1.1-1-1.1H35.6v2H37c.6.1 1.1-.3 1.2-.9-.1.2 0 .1 0 0zM40.2 7.6c0-.1 0-.1 0 0 0-.1 0-.1 0 0l.4-.1c.1 0 .1 0 .1.1l1.8 3.9 1.7-3.9.1-.1h.3s.1 0 .1.1v5.3s0 .1-.1.1h-.3s-.1 0-.1-.1V8.6L42.7 12c0 .1-.1.1-.1.1h-.2c-.1 0-.1 0-.1-.1l-1.6-3.4v4.2s0 .1-.1.1h-.3s-.1 0-.1-.1V7.6zM47.8 7.6c0-.1 0-.1 0 0l.4-.1s.1 0 .1.1l1.9 5.3v.1h-.3s-.1 0-.1-.1l-.5-1.4h-2.4l-.5 1.4-.1.1h-.4l1.9-5.4zm1.3 3.4l-1-2.8L47 11h2.1zM51.4 7.6c0-.1 0-.1 0 0 0-.1 0-.1 0 0l.4-.1c.1 0 .1 0 .1.1l2.7 4.5V7.6s0-.1.1-.1h.3s.1 0 .1.1v5.3s0 .1-.1.1h-.3c-.1 0-.1 0-.1-.1l-2.7-4.5v4.5s0 .1-.1.1h-.3s-.1 0-.1-.1V7.6zM56.5 10.2c0-.5 0-1.1.1-1.6.2-.8.9-1.3 1.7-1.2.7 0 1.4.4 1.6 1v.1l-.3.1h-.1c-.2-.5-.7-.8-1.2-.8-.6 0-1.1.3-1.3.9-.2 1-.2 2 0 2.9.2.6.7.9 1.3.9.5 0 1-.3 1.2-.8h.1l.3.1v.1c-.3.6-.9 1-1.6 1-.8.1-1.5-.5-1.7-1.2 0-.4-.1-1-.1-1.5zM61.4 7.6c0-.1 0-.1 0 0 .1-.1.1-.1 0 0l3.2-.1s.1 0 .1.1v.3s0 .1-.1.1h-2.7v1.9h2.3s.1 0 .1.1v.3s0 .1-.1.1h-2.3v2h2.7s.1 0 .1.1v.3s0 .1-.1.1h-3.1s-.1 0-.1-.1V7.6z" class="st0"/><path d="M6.5 6.5L.3.2h6.2z" class="st1"/></svg>