<svg xmlns="http://www.w3.org/2000/svg" viewBox="0 0 64.4 12.88"><path d="M6.2 6.37L0 .07h6.2v6.3zM10.79 12.74a.07.07 0 0 1-.08-.08V7.41a.08.08 0 0 1 .08-.08h1.81a1.48 1.48 0 0 1 1.66 1.53 1.48 1.48 0 0 1-1.42 1.54h-1.63v2.26a.08.08 0 0 1-.08.08zm3-3.87c0-.69-.43-1.11-1.23-1.11h-1.35v2.2h1.37c.8 0 1.23-.41 1.23-1.1zM15.56 7.41a.08.08 0 0 1 .08-.08h3.09a.08.08 0 0 1 .08.08v.27a.08.08 0 0 1-.08.08h-2.66v2h2.3a.07.07 0 0 1 .08.08v.27a.07.07 0 0 1-.06.08h-2.32v2h2.67a.08.08 0 0 1 .08.08v.27a.08.08 0 0 1-.08.08h-3.1a.07.07 0 0 1-.08-.08zM23.39 12.74a.11.11 0 0 1-.1-.07l-1.14-2.35h-1.46v2.34a.08.08 0 0 1-.08.08h-.29a.07.07 0 0 1-.08-.08V7.41a.08.08 0 0 1 .08-.08h1.81a1.46 1.46 0 0 1 1.65 1.5 1.38 1.38 0 0 1-1.11 1.43l1.18 2.39v.09zm-.12-3.91c0-.68-.43-1.07-1.2-1.07h-1.38v2h1.38c.77.13 1.2-.25 1.2-.94zM25.28 7.41a.08.08 0 0 1 .08-.08h3.09a.08.08 0 0 1 .08.08v.27a.08.08 0 0 1-.08.08h-2.67v2h2.3a.07.07 0 0 1 .08.08v.27a.08.08 0 0 1-.08.08h-2.3v2.47a.08.08 0 0 1-.08.08h-.29a.07.07 0 0 1-.08-.08zM29.79 11.6a4.72 4.72 0 0 1-.16-1.57 4.72 4.72 0 0 1 .16-1.57 1.86 1.86 0 0 1 3.49 0 4.72 4.72 0 0 1 .16 1.57 4.72 4.72 0 0 1-.16 1.57 1.86 1.86 0 0 1-3.49 0zm3.06-3a1.39 1.39 0 0 0-2.62 0 4.69 4.69 0 0 0-.13 1.44 4.69 4.69 0 0 0 .13 1.44 1.39 1.39 0 0 0 2.62 0 4.69 4.69 0 0 0 .15-1.45 4.69 4.69 0 0 0-.15-1.44zM38.11 12.74a.11.11 0 0 1-.1-.07l-1.14-2.35h-1.46v2.34a.08.08 0 0 1-.08.08H35a.07.07 0 0 1-.08-.08V7.41a.08.08 0 0 1 .08-.08h1.8a1.46 1.46 0 0 1 1.65 1.5 1.38 1.38 0 0 1-1.11 1.43l1.18 2.39v.09zM38 8.82c0-.68-.43-1.07-1.2-1.07h-1.39v2h1.38c.77.14 1.21-.24 1.21-.93zM40 7.41a.08.08 0 0 1 .08-.08h.3a.12.12 0 0 1 .12.08l1.76 3.87L44 7.41a.12.12 0 0 1 .11-.08h.31a.08.08 0 0 1 .08.08v5.25a.08.08 0 0 1-.08.08h-.29a.076.076 0 0 1-.13-.08V8.42l-1.56 3.43a.13.13 0 0 1-.14.09h-.16a.13.13 0 0 1-.13-.09l-1.53-3.43v4.24a.08.08 0 0 1-.08.08h-.29a.07.07 0 0 1-.11-.08zM47.6 7.41a.1.1 0 0 1 .1-.08h.3c.06 0 .08 0 .1.08l1.9 5.25a.05.05 0 0 1-.06.08h-.31a.09.09 0 0 1-.1-.08L49 11.33h-2.35l-.48 1.33c0 .06-.06.08-.1.08h-.31a.05.05 0 0 1-.06-.08zm1.26 3.48l-1-2.83-1 2.83zM51.14 7.41a.08.08 0 0 1 .08-.08h.29a.14.14 0 0 1 .14.08l2.7 4.45V7.41a.08.08 0 0 1 .08-.08h.29a.08.08 0 0 1 .08.08v5.25a.07.07 0 0 1-.06.08h-.33a.15.15 0 0 1-.14-.08L51.63 8.2v4.46a.08.08 0 0 1-.08.08h-.29a.07.07 0 0 1-.08-.08zM56.29 10.03a5.08 5.08 0 0 1 .14-1.58 1.65 1.65 0 0 1 1.71-1.21 1.7 1.7 0 0 1 1.63 1 .08.08 0 0 1 0 .1l-.26.13a.07.07 0 0 1-.1 0 1.33 1.33 0 0 0-1.24-.77 1.23 1.23 0 0 0-1.27.9 4.92 4.92 0 0 0-.12 1.46 4.91 4.91 0 0 0 .12 1.46 1.23 1.23 0 0 0 1.27.9 1.32 1.32 0 0 0 1.24-.77.07.07 0 0 1 .1 0l.26.13a.08.08 0 0 1 0 .1 1.7 1.7 0 0 1-1.63 1 1.65 1.65 0 0 1-1.71-1.21 5.08 5.08 0 0 1-.14-1.64zM61.15 7.41a.08.08 0 0 1 .08-.08h3.09a.08.08 0 0 1 .08.08v.27a.08.08 0 0 1-.08.08h-2.67v2H64a.07.07 0 0 1 0 .13v.27a.07.07 0 0 1-.06.08h-2.32v2h2.67a.08.08 0 0 1 .08.08v.27a.08.08 0 0 1-.08.08h-3.06a.07.07 0 0 1-.08-.08zM10.46 5.48a.08.08 0 0 1-.08-.08V.17a.08.08 0 0 1 .08-.08h2a1.64 1.64 0 0 1 1.8 1.67 1.65 1.65 0 0 1-1.78 1.68h-1.12v1.97a.07.07 0 0 1-.08.08zm2.86-3.72a.81.81 0 0 0-.9-.83h-1.06v1.62h1.06a.81.81 0 0 0 .9-.79zM16.19.17a.1.1 0 0 1 .1-.08H17a.1.1 0 0 1 .1.08l1.82 5.24s0 .08-.06.08h-.78a.1.1 0 0 1-.1-.08l-.36-1h-2l-.36 1a.1.1 0 0 1-.1.08h-.77c-.06 0-.07 0-.06-.08zm1.18 3.36l-.71-2.09-.72 2.09zM19.54 2.79a4.38 4.38 0 0 1 .14-1.48 1.86 1.86 0 0 1 1.93-1.35 1.9 1.9 0 0 1 1.88 1.14.09.09 0 0 1 0 .11l-.67.29a.08.08 0 0 1-.1 0A1.15 1.15 0 0 0 21.6.84a1 1 0 0 0-1 .71 4.26 4.26 0 0 0-.1 1.24 4.3 4.3 0 0 0 .1 1.24 1 1 0 0 0 1 .71 1 1 0 0 0 1-.67 2.24 2.24 0 0 0 .09-.7h-.89a.08.08 0 0 1-.08-.08V2.6a.07.07 0 0 1 .08-.08h1.78a.07.07 0 0 1 .08.08v.46a4.42 4.42 0 0 1-.13 1.18 1.87 1.87 0 0 1-1.9 1.32 1.86 1.86 0 0 1-1.93-1.3 4.38 4.38 0 0 1-.16-1.47zM24.87.17a.08.08 0 0 1 .08-.08h3.38a.08.08 0 0 1 .08.08v.68a.07.07 0 0 1-.08.08h-2.48V2.3h2.09a.08.08 0 0 1 .08.08v.68a.08.08 0 0 1-.08.08h-2.09V4.6h2.48a.08.08 0 0 1 .08.08v.68a.07.07 0 0 1-.08.08h-3.38a.08.08 0 0 1-.08-.08z"/></svg>