<svg xmlns="http://www.w3.org/2000/svg" id="padlock" viewBox="0 0 36.7 59.3"><path d="M36.7 18.4a18.35 18.35 0 1 0-36.7 0V20h2.1v-1.6a16.3 16.3 0 0 1 32.6 0l.1 4.3H0V55a4.35 4.35 0 0 0 4.4 4.3h27.9a4.29 4.29 0 0 0 4.4-4.3V18.4zM34.5 55a2.33 2.33 0 0 1-2.3 2.3H4.3A2.33 2.33 0 0 1 2 55V24.7h32.5V55z"/><path d="M18.3 51.9h1a11 11 0 0 0 2-21.5v2.2a8.86 8.86 0 0 1-2.2 17.2 8.94 8.94 0 0 1-9.6-8.1 9 9 0 0 1 2-6.5 8.68 8.68 0 0 1 3.9-2.6v-2.2a11.57 11.57 0 0 0-5.5 3.5 10.58 10.58 0 0 0-2.5 8 11 11 0 0 0 10.9 10z"/><path d="M18.4 44.9a3.86 3.86 0 0 0 3.8-3.8 3.8 3.8 0 0 0-7.6 0 3.86 3.86 0 0 0 3.8 3.8zm0-5.6a1.86 1.86 0 0 1 1.8 1.8 1.8 1.8 0 0 1-3.6 0 1.86 1.86 0 0 1 1.8-1.8z"/></svg>