<svg id="parachute-site" xmlns="http://www.w3.org/2000/svg" width="59.5" height="61.2" viewBox="0 0 59.5 61.2"><title>parachute-site</title><path d="M59.4,27.7a29.72,29.72,0,0,0-59.3,0L0,28.8H59.5ZM2.2,26.8a27.76,27.76,0,0,1,55.2,0H2.2Z" transform="translate(0 0)"  /><path d="M51,30.2L30.7,41.5V30.2h-2V41.5L8.5,30.2H4.4l23.3,13h-7v18h18v-18h-7l23.4-13H51Zm-14.3,29h-14v-14h14v14Z" transform="translate(0 0)"  /><rect x="24.7" y="52.2" width="4" height="5"  /><rect x="24.7" y="47.2" width="10" height="3.1"  /><rect x="30.7" y="52.2" width="4" height="5"  /></svg>