<svg xmlns="http://www.w3.org/2000/svg" id="phone" viewBox="0 0 53.15 53.35"><path d="M50.46 36.72a55.68 55.68 0 0 0-12.69-4.1 1.7 1.7 0 0 0-.7-.1c-.1 0-2.6 0-3.4 1.3L31.08 38c-.4.6-2 .5-3.1-.3a56 56 0 0 1-6.59-5.59 56 56 0 0 1-5.59-6.59 3.33 3.33 0 0 1-.7-2.4.87.87 0 0 1 .4-.7l4.1-2.6c1.1-.7 1.5-3.2 1.2-4.1a123.25 123.25 0 0 0-4-12.49c-.4-1.2-2.5-1.9-3.7-1.9a3.59 3.59 0 0 0-1.1.2 28.78 28.78 0 0 0-9.6 6.22 26.2 26.2 0 0 0-2.2 2.5l-.2.3v.4C-.19 21.23 4.4 32 13 40.61 21.19 48.7 31.67 53.4 41.76 53.4H43l.4-.2a26.19 26.19 0 0 0 2.5-2.2 27.41 27.41 0 0 0 6.19-9.49c.56-1.51-.34-4.19-1.63-4.79zm-.7 3.9a25.25 25.25 0 0 1-5.69 8.69 17.1 17.1 0 0 1-2 1.8h-.3c-9.49 0-19.38-4.5-27.07-12.19l-.2-.2C6.6 30.92 2.2 20.93 2.3 11.34c.6-.7 1.2-1.3 1.8-1.9a25.82 25.82 0 0 1 8.59-5.69H13a7.51 7.51 0 0 1 1.5.3 127.18 127.18 0 0 1 4 12.29 3.64 3.64 0 0 1-.2 1.5l-4.1 2.6a3.38 3.38 0 0 0-1.5 2.3 6.09 6.09 0 0 0 1.1 4.2 72.25 72.25 0 0 0 5.89 6.89 88.37 88.37 0 0 0 6.89 5.79c2.3 1.6 5.39 1.4 6.49-.4l2.5-4a4 4 0 0 1 1.6-.3 53.94 53.94 0 0 1 12.09 3.8 2.62 2.62 0 0 1 .5 1.89zM27 .05a1.13 1.13 0 0 0-1.2 1.1 1.21 1.21 0 0 0 1.2 1.2 23.85 23.85 0 0 1 23.76 23.88 1.21 1.21 0 0 0 1.2 1.2 1.38 1.38 0 0 0 1.2-1.2A26.2 26.2 0 0 0 27 .05z" transform="translate(0 -.05)"/><path d="M27 9.74a16.41 16.41 0 0 1 16.36 16.49 1.21 1.21 0 0 0 1.2 1.2 1.24 1.24 0 0 0 1.2-1.3A18.82 18.82 0 0 0 27 7.35a1.2 1.2 0 1 0 0 2.39z" transform="translate(0 -.05)"/><path d="M26.88 17.44a8.8 8.8 0 0 1 8.79 8.79 1.21 1.21 0 0 0 1.2 1.2 1.16 1.16 0 0 0 1.1-1.3A11.13 11.13 0 0 0 26.88 15a1.2 1.2 0 1 0 0 2.44z" transform="translate(0 -.05)"/></svg>