<svg id="php-elephant" xmlns="http://www.w3.org/2000/svg" width="899.27" height="608.68" viewBox="0 0 899.27 608.68"><title>php-elephant</title><path d="M898.05,120.17c0-5.37-3.2-9.79-7.2-13.06-4.8-3.92-16.74-5.82-18.55-9.66-1.28-2.71.19-7.5-1.4-10.85A20.2,20.2,0,0,0,865.67,80c-5.12-4.34-12.23-6.13-18.81-6.3-14.45-.37-26.93,7.51-37.7,16.35-6.48,5.33-9.11,11.74-17.11,12.53-17,1.67-35.09,0-52.21,0-7.22,0-15,.82-22.21,0-6.69-.77-8.69-4.79-14.14-9.58C637.64,35.21,550.29,35.76,468.07,37q-20.67.32-41.34.77-12.24.26-24.49.55l-14.51.36c-6.1.15-8.91,1-13.07-2.85-5.69-5.33-9.69-12.1-15.84-17.2A75.23,75.23,0,0,0,336.24,5.74a80.65,80.65,0,0,0-41.56-3.1c-7.81,1.43-19.92,8.94-26.26,7.65-7.94-1.61-15.56-7.22-23.92-8.91A71.46,71.46,0,0,0,220.07.77C196.41,4.25,178.21,21,161,36.32c-5.44,4.84-11.66,13.1-18.26,15.67-7.24,2.81-16.56,3.12-24.2,5A246.65,246.65,0,0,0,79.87,69.42c-19,8.09-36.9,19.43-50.19,35.46C5.18,134.44,1.3,174.19.31,211.12-1.18,266.43,0,322,0,377.27,0,433.74-2.74,491,0,547.38c2.5,50.76,98,55.39,108.18,7.51,3-14.32,2.53-30.31,3.68-44.84,2.18-27.43,4.44-54.86,7.12-82.24,2.36-24.2,2.6-56.09,24.65-71.83a42.53,42.53,0,0,1,15.78-6.82c4.23-.91,20.69-3.91,23.55-.75.75.82,0,5.86,0,6.86V458.1c0,24.75-5.43,59.68,7.28,82.2,5.49,9.72,14,17.24,23.68,22.58a88.92,88.92,0,0,0,17.06,7c6.86,2.08,16,1.64,22.33,4.51,3.79,1.72,6,5.92,9.26,9.06a65.68,65.68,0,0,0,13.72,10c11.33,6.31,24.13,9.71,36.86,11.77,42.09,6.82,117.75,7.88,138.91-39.38,5.39-12.05,4.9-24.85,4.9-37.7V438.55c6.45,1,25.65.43,28,4.71,2.05,3.73,0,14.55,0,18.77,0,15.79-.06,31.57,0,47.36.16,45.87,38.59,64.61,79.69,69.07,1.28.14,7.37,6.13,9.47,7.46A84.58,84.58,0,0,0,586,592.1c11.56,5,24,7.78,36.49,9.4,25.1,3.27,51.81,2.89,76.57-2.71,32.77-7.42,59.23-27.19,60-62.87,1.07-51.69,0-103.51,0-155.2,0-17.52-2.75-41.4,0-57.12-.27-.63-.69-.18-.84-.48C784.35,267.25,773,192.66,742.6,140.6h32.5c5.78,0,12.65-1,18.35,0s7.7,5.35,12.49,9.15C821.13,161.81,843,174,862.79,166.63c11.28-4.19,14.21-11.32,14.73-22.4.28-5.8-.67-3.31,5.3-6a39.09,39.09,0,0,0,5.48-2.89c5.22-3.41,9.82-8.61,9.75-15.21C898,110.19,898.1,124.41,898.05,120.17ZM200.49,22c15.68-10.49,37.72-10.92,54.41-3.07-13.57,7.12-26.42,17-40.31,23.29-12.47,5.63-31.74,3.78-45.68,5.43,10-9.15,20.25-18.22,31.58-25.65C201.35,21.42,190.8,28.35,200.49,22ZM198,510.8V350.6a228.28,228.28,0,0,1,22.88,5.82c4.38,1.32,22.7,4.53,25.12,8.31.81,1.27,0,5.78,0,7.2V525.52c0,11.74.18,22.78,2.16,34.45C222.6,554.5,198,539.87,198,510.8Zm354.72,50.8c-17.14,0-40.93-12.2-48.8-29.35-5.21-11.36-3.92-24.61-3.92-36.8V449.6c0-1.59-.65-4.73,0-6.22,1.26-2.87-.8-.2,3.08-1.89,5.66-2.46,15.63-1,21.91-1.61,7.68-.7,15.34-1.53,23-2.37C548,446.77,544.36,561.6,552.72,561.6ZM757.27,257.2c0,19.26-2.33,38.4-10.31,56.1-4,8.79-3,15.24-3.43,25.09s-.53,19.79-.53,29.86V505.9c0,11.5.77,23.3-.18,34.78C740.13,573.31,707,584.55,679,587.85c-33.23,3.93-72.7,3.54-100.71-17-19.13-14-17.33-35.56-17.33-56.46V431.52c0-4.3.18-8.66,0-13-.29-7-7.66-15.45-12.55-5.63-1,2.08.21,4.57-.45,6.63-1.72,5.31,3,1.84-4.07,4.39-9.9,3.56-24.58,2.56-35.06,3.23a224,224,0,0,1-24.15.33c-6.1-.27-25.38,0-27.72-4.75s2.29-9.48-2.49-13.82c-7.63-6.92-13.22,2.14-13.51,8.83-.27,6.35,0,12.77,0,19.12,0,35.63,2,71.83-.07,107.39-1.94,32.91-34.18,44.93-62.46,48.53-32.81,4.18-80.83,5.25-106.29-19.62C258.2,559.52,259,541.55,259,523.6V355.49c0-3.06,1-8.08-.45-10.92-4.22-8.48-13.47-2.73-12.55,5.16-15.43-5.33-31.08-10.31-47.17-13.24,21.26-13.5,31.78-39.95,36.32-63.66A155.09,155.09,0,0,0,237.66,252c.48-8.87,1.42-6.08,8.39-10.83,4.22-2.88,11.66-9.63,12.13-15.12.43-5-6.14-10-9-3.6-3.27,7.26-9.33,13.53-17.57,14.52a21.33,21.33,0,0,1-15-4.28c-3-2.24-7.16-9.39-11.72-5.74-7.85,6.27,9.71,16,14.24,17.64,8,2.82,9.31-.27,8.62,9.57a147.29,147.29,0,0,1-2.53,18.8c-3.94,19.52-12.23,41.23-28.68,53.66-9.48,7.16-18.18,6.85-29.43,7.51-10.8.64-21.46,3.49-30.59,9.44-32.71,21.32-30.93,68.63-34,102.94-2.88,31.83-5.62,63.71-7.8,95.6-.82,12-3.77,21.4-15.58,26.72s-27.31,5.54-39.85,2.86c-13.88-3-23.68-11-24.33-25.79-.15-3.39,0-6.82,0-10.21V267.57c0-43.62-5-92.45,13.84-133.13C55.63,76.71,131.21,63.72,188.33,59.67c8.38-.59,19.55,1.09,27.4-1.67,8.7-3.05,17-10.45,25-15.07C263,30.11,289.26,13,316.09,15.39c38.16,3.37,57.27,39.9,65.81,72.92,9.87,38.15,14.15,84.63,3.56,123.17-7.22,26.25-24.75,45.21-51.4,52-18.66,4.72-39.65,6.48-47.33,27.44-1.79,4.88-3.91,13.74-1.11,18.8,2.07,3.75,6.68,5.71,10.62,3.14,3.67-2.4,2.6-5.33,2.95-8.91,2.37-24.22,24.84-22.72,43.5-28.37-2.55,12.51-8.67,27.81-7.56,40.56,1.13,13,12.6,12.5,22.37,12.5,10.21,0,18.46-.75,21.8-12.36,1.76-6.12.76-18.46,4.49-23.45,3.06-4.09,11.53-2.17,17.33-2.19,31.82-.09,61.52-10.74,73.5-43.12-1.91,9.77-11.62,34.42-1,41.32,5.44,3.52,16.08,2,22.2,1.8,8.72-.29,13.93-3.89,16.29-12.42,4-14.59,5.87-30.19,8.75-45.05,1-5.31,1-13.76,3.61-18.56,2.38-4.45,4.8-3,10.78-3,5.55,0,15.43-1.65,18,3.63,2,4.15-1.77,14.61-2.73,19.55-2.66,13.61-7.25,28-8.19,41.82-.74,10.84,6.08,13.77,15.45,14,8.15.2,19.65,1.88,25.33-5.36,3.1-3.95,3.47-9.88,4.41-14.64l5.16-26.3c3.51-17.89,11.6-41.31-2.91-56.34C576.57,174.23,549.54,176.6,532,176.6c2.35-11.9,11.27-33.81-7.23-36C512,139.1,497,139.16,493,153.46c-6.46,23.15-9.37,47.85-14,71.45,1.33-44.28-40.14-48.31-73.84-48.31,1.59-41-2.55-86.85-20.63-124.22,47.95-1.22,96-2.81,143.92-2.78,71.11.05,146.17,21.16,190.28,80.63C745.85,166.72,757.27,212.22,757.27,257.2ZM395.22,270.6c10.15,0,23.31-2,32.45-6.5,12.87-6.33,18.43-21.41,19.83-34.88,3-29-22.09-30.62-44.46-30.62,1.46-7.41.4-7,7.95-7,3.85,0,7.69,0,11.54,0,10,.06,21.08.08,30.07,5.21,15,8.53,14.74,29.71,10,44-5,15.09-17.25,28.43-32.48,33.46-10.85,3.58-22.44,3.34-33.73,3.34-10.54,0-21.66-1.44-25.62,11-2,6.37-.73,17.24-4.45,22.72-3,4.34-10.86,2.27-16.7,2.27l5.83-29.46c.77-3.91.83-10,2.69-13.58,2.79-5.34,14.31-10.2,19.13-15C375.08,267.63,385.81,270.6,395.22,270.6Zm-4.21-16c1.89-9.57,3.58-19.2,5.67-28.73.84-3.81,1.79-12.48,4.24-14.27,2.17-1.59,10.67-.07,13.63,0,5,.12,13.75-.18,17.55,4.08,5.19,5.81,1.46,18.31-1.11,24.55C424.2,256.73,406.08,254.52,391,254.6Zm129.54-67.87c8.66,10.53,35.19,3.59,47.33,5.86,17.88,3.33,17.91,16.73,14.93,32l-8.32,42.67c-.38,2-.52,8.69-2.09,10.11-2.32,2.11-12.95.22-16.37.22,3.05-15.61,6.39-31.2,9.16-46.87,2.63-14.8,2.78-29.16-15.25-31.74-7.94-1.13-19.62-2.05-27.41-.1-9.66,2.42-10.84,11.06-12.43,19.19L503.88,250c-1.19,6.13-1.16,20.56-5,25.58-2.92,3.84-10.93,2-16.34,2L497.12,203l8.09-41.45c.26-1.34.37-6.17,1.41-7.2,2.44-2.44,12.21-.76,16-.76-1.64,8.48-8.39,25.49-2.1,33.13ZM784.76,125.6h-36c-3.15,0-8.53,1-11.54,0-3.45-1.18-5.94-5.27-9.23-8H784.9C784.16,118.66,781.7,125.6,784.76,125.6ZM834,90.83c4.92-2.44,11.71-3.85,17.11-2.41,4.21,1.12,10.41,5.86,4.87,9.17-2.52,1.51-10.79.45-13.58.71a239.22,239.22,0,0,0-24.27,3.43A71.9,71.9,0,0,1,834,90.83Zm28.91,58.71c-7.92,15.74-38.59-3.9-46.51-10.09a258,258,0,0,0,33.06,3.78c4.28.24,17.46-1.4,13.46,6.31C860.73,153.89,863.14,149.11,862.92,149.54Zm19.35-27.37c-11.08,10.81-33.82,7.68-47.77,5.93-11.06-1.38-23.09-3-33.49-7.25,16.26-7,37.36-9.69,55-9.42,3.09,0,33,4.19,26.29,10.74Z" transform="translate(1.21 0)"/><path d="M669.55,176.6H629.47c-12.15,0-18.37,5.37-20.65,17l-17.71,90.48c-1.85,9.47-4.71,19.26-5.65,28.88-1.64,16.78,20.17,18.86,32.77,15.22,9.42-2.72,10.51-11.83,12.06-19.9.64-3.35.81-15.46,3.54-17.66,2.5-2,14.18,0,17.55,0,12.11,0,24.49-.49,35.9-5,29.44-11.58,49.17-48.3,38.69-79C717.9,182.87,692.2,176.6,669.55,176.6ZM708,201.67c14.74,18.59,4.87,47.58-11,62.05C682,277.49,663,277.6,643.79,277.6c-6.22,0-13.47-1-18.66,3.16s-5.63,11.84-6.85,18.06c-.56,2.86-.83,12.94-3.18,14.78s-12.87,0-16,0l24-122.24c1.25-2.4,35.49.24,39.58.24,14,0,35.52-2.26,45.29,10.07Z" transform="translate(1.21 0)"/><path d="M649.27,198.6c-17.1,0-17.42,30.82-19.71,42.49-1,5.34-3.3,11.67-3.07,17.21.62,14.36,16,12.71,26,11.58,10.21-1.16,22-2.61,30.19-9.28,10.39-8.44,15.13-24.92,14.59-37.84C696.18,196.74,668.63,198.6,649.27,198.6Zm32.54,17.31c7.2,7.95-1.21,30.11-9.2,34.93-9,5.41-22.16,3.69-32.13,3.76l3.19-16.18c1.34-6.83,1.43-17.44,4.66-23.63,2.5-4.8,3.46-3.21,10.51-3.19s17.82-1.33,23,4.31C684,218.33,680.7,214.7,681.8,215.91Z" transform="translate(1.21 0)"/><path d="M129.07,181.64a35.78,35.78,0,0,0-10.31,3.93c7-5.48,44.77-28.72,14.73-21.2-20,5-44.44,19.5-35.77,44.18,8,22.87,32.62,33.61,52.48,15.89,20.61-18.39,6.52-48.57-21.14-42.8ZM153.36,213c3.12-15.67-21.67-29.92-27.67-11.92l10.11,5c-4.32,3.09-8.54,4.46-8,8.73,1,7.79,15,9.73,20.14,6.44-16.93,17.65-53.65,5-39-21.37,12.41-22.37,56.52-16.05,44.41,13.15C153.93,210.14,154.72,209.72,153.36,213Z" transform="translate(1.21 0)"/><path d="M145.77,132.1c3.12,1.12,7.07.64,8.8-1.11s.6-4-2.53-5.16c-21.46-7.69-63.57-9.09-83,17.1a7.37,7.37,0,0,0,2,10.67,8.51,8.51,0,0,0,11.36-1.9C97.12,131.93,130.09,126.49,145.77,132.1Z" transform="translate(1.21 0)"/></svg>