<svg id="quotes" xmlns="http://www.w3.org/2000/svg" width="60.5" height="47.98" viewBox="0 0 60.5 47.98"><title>quotes</title><path d="M16.3,48A14.75,14.75,0,0,1,4.75,42.36a16.47,16.47,0,0,1-3.49-5.92A21.11,21.11,0,0,1,0,29.1,26.91,26.91,0,0,1,2.29,17.89,28.28,28.28,0,0,1,8.4,9a30.76,30.76,0,0,1,8.88-6.09A31.69,31.69,0,0,1,28,.2l1.08-.09V6l-0.74.2a27.42,27.42,0,0,0-7.14,3,30.66,30.66,0,0,0-5.81,4.45A17.45,17.45,0,0,0,11.62,19,13.07,13.07,0,0,0,10.2,24.9a5.77,5.77,0,0,0,.57,2.81c0.49,0.88.87,0.88,1,.88a2.5,2.5,0,0,0,1.29-.26,12.33,12.33,0,0,0,1.39-.92,8.73,8.73,0,0,1,2-1.14,7.34,7.34,0,0,1,3-.48,8.55,8.55,0,0,1,3.71.79,10,10,0,0,1,3,2.35,11.69,11.69,0,0,1,2.08,3.38,13.17,13.17,0,0,1,.78,4.28,10.09,10.09,0,0,1-1,4.55,10,10,0,0,1-2.76,3.63,11.16,11.16,0,0,1-4.12,2.38A14.8,14.8,0,0,1,16.3,48ZM27.1,2.3a29.21,29.21,0,0,0-9,2.41,28.78,28.78,0,0,0-8.31,5.7h0a26.33,26.33,0,0,0-5.68,8.29A24.6,24.6,0,0,0,2,29.1a19.15,19.15,0,0,0,1.14,6.66A14.41,14.41,0,0,0,6.21,41l0.09,0.1a12.7,12.7,0,0,0,14.27,4.17,9.35,9.35,0,0,0,3.46-2A8.72,8.72,0,0,0,27.1,36.6,11.14,11.14,0,0,0,26.45,33a9.69,9.69,0,0,0-1.7-2.75,8,8,0,0,0-2.4-1.87,6.53,6.53,0,0,0-2.85-.59,5.58,5.58,0,0,0-2.21.32,6.61,6.61,0,0,0-1.57.86,14,14,0,0,1-1.61,1.08,4.34,4.34,0,0,1-2.31.54A3.16,3.16,0,0,1,9,28.69,7.67,7.67,0,0,1,8.2,24.9a15,15,0,0,1,1.61-6.75,19.33,19.33,0,0,1,4.19-6,32.59,32.59,0,0,1,6.19-4.75,29,29,0,0,1,6.92-3V2.3Z" transform="translate(0 -0.02)"  /><path d="M47.7,48a14.75,14.75,0,0,1-11.59-5.69,20.33,20.33,0,0,1-3.45-6.07A21.12,21.12,0,0,1,31.4,28.9a26.92,26.92,0,0,1,2.29-11.21,29.69,29.69,0,0,1,6.1-8.79,30.77,30.77,0,0,1,8.88-6.1A31.71,31.71,0,0,1,59.42.1L60.5,0V6l-0.74.2a27.44,27.44,0,0,0-7.14,3,30.69,30.69,0,0,0-5.81,4.45A17.48,17.48,0,0,0,43,19,13.07,13.07,0,0,0,41.6,24.9a5.77,5.77,0,0,0,.57,2.81c0.49,0.88.87,0.88,1,.88a2.49,2.49,0,0,0,1.29-.26,12.29,12.29,0,0,0,1.39-.92,8.71,8.71,0,0,1,2-1.14,7.34,7.34,0,0,1,3-.48,8.55,8.55,0,0,1,3.71.79,10.06,10.06,0,0,1,3,2.34,11.68,11.68,0,0,1,2.08,3.38,13.16,13.16,0,0,1,.78,4.28,10.08,10.08,0,0,1-1,4.55,10,10,0,0,1-2.76,3.63,11.17,11.17,0,0,1-4.12,2.37A14.79,14.79,0,0,1,47.7,48ZM58.5,2.2a29.21,29.21,0,0,0-9,2.41,28.81,28.81,0,0,0-8.31,5.7,27.71,27.71,0,0,0-5.7,8.2A24.6,24.6,0,0,0,33.4,28.9a19.18,19.18,0,0,0,1.14,6.66,18.46,18.46,0,0,0,3.13,5.51A12.7,12.7,0,0,0,52,45.26a9.34,9.34,0,0,0,3.46-2A8.72,8.72,0,0,0,58.5,36.6,11.14,11.14,0,0,0,57.85,33a9.72,9.72,0,0,0-1.7-2.75,8,8,0,0,0-2.4-1.87,6.53,6.53,0,0,0-2.85-.59,5.58,5.58,0,0,0-2.21.32,6.59,6.59,0,0,0-1.57.86,14.09,14.09,0,0,1-1.61,1.08,4.35,4.35,0,0,1-2.31.54,3.16,3.16,0,0,1-2.77-1.91,7.67,7.67,0,0,1-.83-3.79,15,15,0,0,1,1.61-6.75,19.38,19.38,0,0,1,4.19-6h0a32.62,32.62,0,0,1,6.19-4.75,29,29,0,0,1,6.92-3V2.2Z" transform="translate(0 -0.02)"  /></svg>