<svg xmlns="http://www.w3.org/2000/svg" id="rocket-hollow" viewBox="0 0 92 92.2"><path d="M91.6.4c-.3-.3-.7-.4-1.1-.4-18.3 1.1-38.6 9.6-54 25.1-3.3-.6-6.6-.9-10-.9-5.4 0-9.7 1.2-13.5 4.3s-7 7.9-10.6 15c-.4.7-.1 1.5.6 1.9.2.1.4.2.6.2h.3c3.4-.9 6.1-1.9 8.6-2.7 2.3-.8 4.7-1.3 7.1-1.3 1.3 0 2.6.2 3.8.4-.6 1-1.2 2.1-1.8 3.2-.3.5-.2 1.2.2 1.7L45.2 70c.4.4 1.1.5 1.7.2 1.1-.6 2.1-1.1 3.1-1.7.3 1.2.4 2.5.4 3.7-.1 2.4-.5 4.8-1.3 7.1-.8 2.5-1.8 5.2-2.7 8.6-.2.8.3 1.5 1 1.7.3.1.7 0 .9-.1 7.1-3.6 11.9-6.8 15-10.6 3.1-3.8 4.4-8.1 4.3-13.5-.1-3.3-.4-6.6-.9-9.9C82.4 40.2 90.9 19.8 92 1.5c0-.4-.1-.8-.4-1.1zM19.8 38.7c-2.7.1-5.4.6-8 1.5-1.7.5-3.4 1.2-5.3 1.7 2.9-5.3 5.5-9 8.3-11.2C18.1 28 21.5 27 26.5 27c2.5 0 5.1.2 7.6.6-3.3 3.7-6.3 7.6-9 11.8-1.7-.4-3.5-.7-5.3-.7zm41.5 38.4c-2.3 2.8-5.9 5.4-11.2 8.3.6-1.9 1.2-3.6 1.7-5.3.9-2.6 1.4-5.3 1.5-8 0-1.8-.2-3.5-.7-5.3 4.2-2.6 8.2-5.6 11.8-9 .4 2.5.6 5 .6 7.5-.1 5.1-1.1 8.6-3.7 11.8zM50.6 64.8h-.1c-.3.1-.5.2-.7.5-1.1.7-2.2 1.3-3.3 1.9L24.9 45.5l2.1-3.6.1-.1c14.5-23.8 39.7-37 62-38.9-1.9 22.2-15 47.3-38.5 61.9zM32 42.8c-.8 0-1.4.6-1.4 1.4 0 .8.6 1.4 1.4 1.4.8 0 1.4-.6 1.4-1.4 0-.4-.1-.7-.4-1-.2-.3-.6-.4-1-.4zm4 4c-.8 0-1.4.6-1.4 1.4s.6 1.4 1.4 1.4c.8 0 1.4-.6 1.4-1.4 0-.4-.2-.7-.4-1-.2-.3-.6-.5-1-.4zm7.9 10.7c.8 0 1.4-.6 1.4-1.4 0-.8-.6-1.4-1.4-1.4-.8 0-1.4.6-1.4 1.4 0 .4.1.7.4 1 .3.2.6.3 1 .4zm4 4c.8 0 1.4-.6 1.4-1.4 0-.8-.6-1.4-1.4-1.4-.8 0-1.4.6-1.4 1.4 0 .4.1.7.4 1 .2.2.6.3.9.3l.1.1zM39 53.2c.6.6 1.5.5 2 0 .6-.6.5-1.5 0-2-.6-.6-1.5-.5-2 0-.3.3-.4.6-.4 1 0 .3.1.6.4 1zM7.6 76.5l19.6-19.6c.5-.6.4-1.5-.2-2-.5-.4-1.3-.4-1.8 0L5.7 74.5c-.4.7-.1 1.5.6 1.9.4.2.8.2 1.3.1zm24.6-16.6c-.6-.5-1.4-.5-2 0L.3 89.9c-.5.6-.4 1.5.2 2 .5.4 1.3.4 1.8 0L32.2 62c.6-.6.6-1.5 0-2.1zm3 5.1l-8.1 8.1c-.6.5-.7 1.4-.2 2 .5.6 1.4.7 2 .2l.2-.2 8.1-8.1c.6-.6.6-1.5 0-2.1-.5-.6-1.4-.6-2 .1z"/><path d="M63.8 36.8c-4.9 0-8.9-4-8.9-8.9s4-8.9 8.9-8.9 8.9 4 8.9 8.9-4 8.9-8.9 8.9zm0-15.3c-3.5 0-6.4 2.9-6.4 6.4s2.9 6.4 6.4 6.4 6.4-2.9 6.4-6.4-2.9-6.4-6.4-6.4z"/></svg>