<svg xmlns="http://www.w3.org/2000/svg" id="rocket" viewBox="0 0 92 92.18"><path id="Rocket_silhouette" d="M91.68.51A1.42 1.42 0 0 0 90.6.1C72.29 1.2 52 9.7 36.61 25.22a66.82 66.82 0 0 0-10-.94c-5.38 0-9.74 1.23-13.51 4.35s-7 7.93-10.57 15a1.42 1.42 0 0 0 1.28 2.07 1.43 1.43 0 0 0 .35 0c3.36-.86 6.1-1.89 8.6-2.69a22.94 22.94 0 0 1 7.12-1.34 17 17 0 0 1 3.81.45q-.91 1.56-1.76 3.16a1.42 1.42 0 0 0 .25 1.66L45.3 70.05a1.42 1.42 0 0 0 1.7.25q1.6-.84 3.12-1.74a17 17 0 0 1 .43 3.73 22.94 22.94 0 0 1-1.34 7.12c-.79 2.48-1.83 5.23-2.69 8.6a1.42 1.42 0 0 0 2 1.61c7.09-3.62 11.9-6.8 15-10.57s4.37-8.14 4.35-13.51a66.66 66.66 0 0 0-.92-9.88c15.55-15.4 24.06-35.7 25.16-54a1.42 1.42 0 0 0-.43-1.15zm-84 76L27.29 57a1.42 1.42 0 0 0-2-2L5.74 74.56a1.42 1.42 0 0 0 1.89 1.91zM32.32 60a1.42 1.42 0 0 0-2 0L.41 90a1.42 1.42 0 0 0 2 2l29.91-30a1.42 1.42 0 0 0 0-2h-.1zm3 5l-8.1 8.1a1.42 1.42 0 1 0 2 2l8.1-8.1a1.46 1.46 0 1 0-2-2.07z" data-name="Rocket silhouette" transform="translate(-.08 -.1)"/><path id="Body" fill="#fff" d="M50.69 64.82s-3 1.75-4.08 2.33L25 45.55q1-1.85 2.08-3.62l.09-.14C41.76 18 67 4.8 89.28 2.9c-1.91 22.23-15.04 47.34-38.59 61.92z" transform="translate(-.08 -.1)"/><path id="Wing_right" fill="#fff" d="M19.93 38.71a25.72 25.72 0 0 0-8 1.48c-1.7.54-3.41 1.16-5.3 1.75 2.91-5.33 5.53-9 8.32-11.2C18.22 28.08 21.69 27 26.69 27a56.74 56.74 0 0 1 7.61.61 83.71 83.71 0 0 0-9 11.83 20.34 20.34 0 0 0-5.37-.73z" data-name="Wing right" transform="translate(-.08 -.1)"/><path id="Wing_left" fill="#fff" d="M61.44 77.14c-2.27 2.77-5.87 5.41-11.2 8.32.59-1.88 1.21-3.6 1.75-5.3a25.73 25.73 0 0 0 1.48-8 20.3 20.3 0 0 0-.72-5.27 83.78 83.78 0 0 0 11.82-9 56.41 56.41 0 0 1 .6 7.5c-.04 5.04-1.07 8.5-3.73 11.75z" data-name="Wing left" transform="translate(-.08 -.1)"/><path id="Window" d="M63.92 36.79a8.91 8.91 0 1 1 8.91-8.91 8.92 8.92 0 0 1-8.91 8.91zm0-15.32a6.41 6.41 0 1 0 6.41 6.41 6.42 6.42 0 0 0-6.41-6.4z" transform="translate(-.08 -.1)"/><circle id="Circle_5" cx="32.1" cy="44.09" r="1.42" data-name="Circle 5"/><circle id="Circle_4" cx="36.08" cy="48.06" r="1.42" data-name="Circle 4"/><circle id="Circle_3" cx="40.05" cy="52.03" r="1.42" data-name="Circle 3"/><circle id="Circle_2" cx="44.03" cy="56" r="1.42" data-name="Circle 2"/><circle id="Circle_1" cx="48.01" cy="59.97" r="1.42" data-name="Circle 1"/><path id="Zoom_3" d="M27.68 56.1c0 .78-19.84 20.47-20.62 20.47a1.42 1.42 0 0 1-1.42-1.42c0-.78 19.84-20.47 20.62-20.47a1.42 1.42 0 0 1 1.42 1.42z" data-name="Zoom 3" transform="translate(-.08 -.1)"/><path id="Zoom_2" d="M32.8 61c0 .78-30.45 31.21-31.23 31.21a1.42 1.42 0 0 1-1.42-1.47c0-.78 30.45-31.21 31.23-31.21A1.42 1.42 0 0 1 32.8 61z" data-name="Zoom 2" transform="translate(-.08 -.1)"/><path id="Zoom_1" d="M37.8 66.06c0 .78-8.82 9.53-9.6 9.53a1.42 1.42 0 0 1-1.42-1.42c0-.78 8.82-9.53 9.6-9.53a1.42 1.42 0 0 1 1.42 1.42z" data-name="Zoom 1" transform="translate(-.08 -.1)"/></svg>