<svg id="rocket-hollow" xmlns="http://www.w3.org/2000/svg" width="92" height="92.2" viewBox="0 0 92 92.2">
<path d="M91.6,0.4C91.3,0.1,90.9,0,90.5,0c-18.3,1.1-38.6,9.6-54,25.1c-3.3-0.6-6.6-0.9-10-0.9c-5.4,0-9.7,1.2-13.5,4.3
	s-7,7.9-10.6,15c-0.4,0.7-0.1,1.5,0.6,1.9c0.2,0.1,0.4,0.2,0.6,0.2c0.1,0,0.2,0,0.3,0c3.4-0.9,6.1-1.9,8.6-2.7
	c2.3-0.8,4.7-1.3,7.1-1.3c1.3,0,2.6,0.2,3.8,0.4c-0.6,1-1.2,2.1-1.8,3.2c-0.3,0.5-0.2,1.2,0.2,1.7L45.2,70c0.4,0.4,1.1,0.5,1.7,0.2
	c1.1-0.6,2.1-1.1,3.1-1.7c0.3,1.2,0.4,2.5,0.4,3.7c-0.1,2.4-0.5,4.8-1.3,7.1c-0.8,2.5-1.8,5.2-2.7,8.6c-0.2,0.8,0.3,1.5,1,1.7
	c0.3,0.1,0.7,0,0.9-0.1c7.1-3.6,11.9-6.8,15-10.6c3.1-3.8,4.4-8.1,4.3-13.5c-0.1-3.3-0.4-6.6-0.9-9.9C82.4,40.2,90.9,19.8,92,1.5
	C92,1.1,91.9,0.7,91.6,0.4z M19.8,38.7c-2.7,0.1-5.4,0.6-8,1.5c-1.7,0.5-3.4,1.2-5.3,1.7c2.9-5.3,5.5-9,8.3-11.2
	c3.3-2.7,6.7-3.7,11.7-3.7c2.5,0,5.1,0.2,7.6,0.6c-3.3,3.7-6.3,7.6-9,11.8C23.4,39,21.6,38.7,19.8,38.7L19.8,38.7z M61.3,77.1
	c-2.3,2.8-5.9,5.4-11.2,8.3c0.6-1.9,1.2-3.6,1.7-5.3c0.9-2.6,1.4-5.3,1.5-8c0-1.8-0.2-3.5-0.7-5.3c4.2-2.6,8.2-5.6,11.8-9
	c0.4,2.5,0.6,5,0.6,7.5C64.9,70.4,63.9,73.9,61.3,77.1L61.3,77.1z M50.6,64.8h-0.1c-0.3,0.1-0.5,0.2-0.7,0.5
	c-1.1,0.7-2.2,1.3-3.3,1.9L24.9,45.5c0.7-1.2,1.4-2.4,2.1-3.6l0.1-0.1C41.6,18,66.8,4.8,89.1,2.9C87.2,25.1,74.1,50.2,50.6,64.8
	L50.6,64.8z M32,42.8c-0.8,0-1.4,0.6-1.4,1.4c0,0.8,0.6,1.4,1.4,1.4c0.8,0,1.4-0.6,1.4-1.4c0-0.4-0.1-0.7-0.4-1
	C32.8,42.9,32.4,42.8,32,42.8L32,42.8z M36,46.8c-0.8,0-1.4,0.6-1.4,1.4s0.6,1.4,1.4,1.4c0.8,0,1.4-0.6,1.4-1.4c0-0.4-0.2-0.7-0.4-1
	C36.8,46.9,36.4,46.7,36,46.8L36,46.8z M43.9,57.5c0.8,0,1.4-0.6,1.4-1.4c0-0.8-0.6-1.4-1.4-1.4c-0.8,0-1.4,0.6-1.4,1.4
	c0,0.4,0.1,0.7,0.4,1C43.2,57.3,43.5,57.4,43.9,57.5L43.9,57.5z M47.9,61.5c0.8,0,1.4-0.6,1.4-1.4c0-0.8-0.6-1.4-1.4-1.4
	c-0.8,0-1.4,0.6-1.4,1.4c0,0.4,0.1,0.7,0.4,1c0.2,0.2,0.6,0.3,0.9,0.3L47.9,61.5z M39,53.2c0.6,0.6,1.5,0.5,2,0c0.6-0.6,0.5-1.5,0-2
	c-0.6-0.6-1.5-0.5-2,0c-0.3,0.3-0.4,0.6-0.4,1C38.6,52.5,38.7,52.8,39,53.2L39,53.2z M7.6,76.5l19.6-19.6c0.5-0.6,0.4-1.5-0.2-2
	c-0.5-0.4-1.3-0.4-1.8,0L5.7,74.5c-0.4,0.7-0.1,1.5,0.6,1.9C6.7,76.6,7.1,76.6,7.6,76.5L7.6,76.5z M32.2,59.9c-0.6-0.5-1.4-0.5-2,0
	L0.3,89.9c-0.5,0.6-0.4,1.5,0.2,2c0.5,0.4,1.3,0.4,1.8,0l29.9-29.9C32.8,61.4,32.8,60.5,32.2,59.9C32.2,59.9,32.2,59.9,32.2,59.9
	L32.2,59.9z M35.2,65l-8.1,8.1c-0.6,0.5-0.7,1.4-0.2,2c0.5,0.6,1.4,0.7,2,0.2c0.1-0.1,0.1-0.1,0.2-0.2l8.1-8.1
	c0.6-0.6,0.6-1.5,0-2.1C36.7,64.3,35.8,64.3,35.2,65L35.2,65z"/>
<path d="M63.8,36.8c-4.9,0-8.9-4-8.9-8.9s4-8.9,8.9-8.9s8.9,4,8.9,8.9S68.7,36.8,63.8,36.8z M63.8,21.5
	c-3.5,0-6.4,2.9-6.4,6.4s2.9,6.4,6.4,6.4s6.4-2.9,6.4-6.4S67.3,21.5,63.8,21.5z"/>
</svg>
