<svg id="rocket" xmlns="http://www.w3.org/2000/svg" width="92" height="92.18" viewBox="0 0 92 92.18"><title>rocket</title><path id="Rocket_silhouette" data-name="Rocket silhouette" d="M91.68,0.51A1.42,1.42,0,0,0,90.6.1C72.29,1.2,52,9.7,36.61,25.22a66.82,66.82,0,0,0-10-.94c-5.38,0-9.74,1.23-13.51,4.35s-7,7.93-10.57,15A1.42,1.42,0,0,0,3.81,45.7a1.43,1.43,0,0,0,.35,0c3.36-.86,6.1-1.89,8.6-2.69a22.94,22.94,0,0,1,7.12-1.34,17,17,0,0,1,3.81.45q-0.91,1.56-1.76,3.16a1.42,1.42,0,0,0,.25,1.66L45.3,70.05A1.42,1.42,0,0,0,47,70.3q1.6-.84,3.12-1.74a17,17,0,0,1,.43,3.73,22.94,22.94,0,0,1-1.34,7.12c-0.79,2.48-1.83,5.23-2.69,8.6a1.42,1.42,0,0,0,2,1.61c7.09-3.62,11.9-6.8,15-10.57s4.37-8.14,4.35-13.51a66.66,66.66,0,0,0-.92-9.88c15.55-15.4,24.06-35.7,25.16-54A1.42,1.42,0,0,0,91.68.51Zm-84,76L27.29,57a1.42,1.42,0,0,0-2-2L5.74,74.56a1.42,1.42,0,0,0,1.89,1.91ZM32.32,60a1.42,1.42,0,0,0-2,0L0.41,90a1.42,1.42,0,0,0,2,2L32.32,62a1.42,1.42,0,0,0,0-2L32.22,60Zm3,5-8.1,8.1a1.42,1.42,0,1,0,2,2l8.1-8.1a1.46,1.46,0,1,0-2-2.07Z" transform="translate(-0.08 -0.1)" style="fill:#eb6126"/><path id="Body" d="M50.69,64.82s-3,1.75-4.08,2.33L25,45.55q1-1.85,2.08-3.62l0.09-.14C41.76,18,67,4.8,89.28,2.9,87.37,25.13,74.24,50.24,50.69,64.82Z" transform="translate(-0.08 -0.1)" style="fill:#fff"/><path id="Wing_right" data-name="Wing right" d="M19.93,38.71a25.72,25.72,0,0,0-8,1.48c-1.7.54-3.41,1.16-5.3,1.75,2.91-5.33,5.53-9,8.32-11.2C18.22,28.08,21.69,27,26.69,27a56.74,56.74,0,0,1,7.61.61,83.71,83.71,0,0,0-9,11.83A20.34,20.34,0,0,0,19.93,38.71Z" transform="translate(-0.08 -0.1)" style="fill:#fff"/><path id="Wing_left" data-name="Wing left" d="M61.44,77.14c-2.27,2.77-5.87,5.41-11.2,8.32,0.59-1.88,1.21-3.6,1.75-5.3a25.73,25.73,0,0,0,1.48-8,20.3,20.3,0,0,0-.72-5.27,83.78,83.78,0,0,0,11.82-9,56.41,56.41,0,0,1,.6,7.5C65.13,70.43,64.1,73.89,61.44,77.14Z" transform="translate(-0.08 -0.1)" style="fill:#fff"/><path id="Window" d="M63.92,36.79a8.91,8.91,0,1,1,8.91-8.91A8.92,8.92,0,0,1,63.92,36.79Zm0-15.32a6.41,6.41,0,1,0,6.41,6.41A6.42,6.42,0,0,0,63.92,21.48Z" transform="translate(-0.08 -0.1)" style="fill:#eb6126"/><circle id="Circle_5" data-name="Circle 5" cx="32.1" cy="44.09" r="1.42" style="fill:#eb6126"/><circle id="Circle_4" data-name="Circle 4" cx="36.08" cy="48.06" r="1.42" style="fill:#eb6126"/><circle id="Circle_3" data-name="Circle 3" cx="40.05" cy="52.03" r="1.42" style="fill:#eb6126"/><circle id="Circle_2" data-name="Circle 2" cx="44.03" cy="56" r="1.42" style="fill:#eb6126"/><circle id="Circle_1" data-name="Circle 1" cx="48.01" cy="59.97" r="1.42" style="fill:#eb6126"/><path id="Zoom_3" data-name="Zoom 3" d="M27.68,56.1c0,0.78-19.84,20.47-20.62,20.47a1.42,1.42,0,0,1-1.42-1.42c0-.78,19.84-20.47,20.62-20.47A1.42,1.42,0,0,1,27.68,56.1Z" transform="translate(-0.08 -0.1)" style="fill:#eb6126"/><path id="Zoom_2" data-name="Zoom 2" d="M32.8,61c0,0.78-30.45,31.21-31.23,31.21A1.42,1.42,0,0,1,.15,90.74c0-.78,30.45-31.21,31.23-31.21A1.42,1.42,0,0,1,32.8,61Z" transform="translate(-0.08 -0.1)" style="fill:#eb6126"/><path id="Zoom_1" data-name="Zoom 1" d="M37.8,66.06c0,0.78-8.82,9.53-9.6,9.53a1.42,1.42,0,0,1-1.42-1.42c0-.78,8.82-9.53,9.6-9.53A1.42,1.42,0,0,1,37.8,66.06Z" transform="translate(-0.08 -0.1)" style="fill:#eb6126"/></svg>