<svg id="servers" xmlns="http://www.w3.org/2000/svg" width="50" height="57.7" viewBox="0 0 50 57.7"><title>servers</title><path d="M54,19.9V6.5H14.3v5.9H5.9V0H4V57.7H5.9V47h8.4v5.6H54V39.2H14.3v5.9H5.9V30.7h8.4v5.6H54V22.8H14.3v5.9H5.9V14.3h8.4v5.6H54ZM16.2,41.1H52v9.6H16.2V41.1Zm0-16.3H52v9.6H16.2V24.8Zm0-16.4H52V18H16.2V8.4Z" transform="translate(-4)"  /><rect x="15.6" y="12.4" width="5.8" height="1.9"  /><rect x="15.6" y="28.8" width="5.8" height="1.9"  /><rect x="15.6" y="45.1" width="5.8" height="1.9"  /></svg>