<svg id="shield-fire" xmlns="http://www.w3.org/2000/svg" width="59.2" height="59.8" viewBox="0 0 59.2 59.8"><title>shield-fire</title><path d="M16.2,36.2l0.1,0.9h0.1c1.3,5.4,7.1,9.7,13.2,9.7s11.9-4.3,13.2-9.6l0.2-.8c0.1-.3,1.5-7.9-2.5-13.1-4.5-5.8-4.2-6.9-3.3-9.8l0.2-.6a1.64,1.64,0,0,0-.2-1.2,1.38,1.38,0,0,0-2.1-.1,22.83,22.83,0,0,0-4.7,12,9,9,0,0,1-.6-7.1A7.94,7.94,0,0,0,29,8.9c-1.3-2-3.3-3.4-4.4-3.4a1.05,1.05,0,0,0-.9.5l-0.4.5L23.6,7a11.06,11.06,0,0,1,1.3,4.6c0,1.3-1.8,3.8-3.5,5.6C14.8,24.1,16.2,36.1,16.2,36.2ZM27,11.7A11.72,11.72,0,0,0,26.6,9a9.83,9.83,0,0,1,1.2,1.5,5.94,5.94,0,0,1,.3,5.2c-1.9,4.6.9,9.9,2.3,11.2a1.27,1.27,0,0,0,1.8-.1,1.69,1.69,0,0,0,.3-1,18.16,18.16,0,0,1,2.2-9.9c-0.1,2.1.9,4.2,4.2,8.5,2.8,3.6,2.4,8.9,2.2,10.8l-0.1.7c-0.8,4.8-5.9,8.8-11.4,8.8S19,40.8,18.2,35.9V35.8C18,34.5,17.3,24.4,23,18.6,23.6,18,26.9,14.4,27,11.7Z" transform="translate(0 0)"  /><polygon points="0 0 0 32.8 2 32.8 2 2 57.2 2 57.2 32.8 59.2 32.8 59.2 0 0 0"  /><polygon points="29.6 57.2 2.7 34.8 0 34.8 0 35.2 29.6 59.8 59.2 35.2 59.2 34.8 56.5 34.8 29.6 57.2"  /></svg>