<svg xmlns="http://www.w3.org/2000/svg" id="shield-fire" viewBox="0 0 59.2 59.8"><path d="M16.2 36.2l.1.9h.1c1.3 5.4 7.1 9.7 13.2 9.7s11.9-4.3 13.2-9.6l.2-.8c.1-.3 1.5-7.9-2.5-13.1-4.5-5.8-4.2-6.9-3.3-9.8l.2-.6a1.64 1.64 0 0 0-.2-1.2 1.38 1.38 0 0 0-2.1-.1 22.83 22.83 0 0 0-4.7 12 9 9 0 0 1-.6-7.1 7.94 7.94 0 0 0-.8-7.6c-1.3-2-3.3-3.4-4.4-3.4a1.05 1.05 0 0 0-.9.5l-.4.5.3.5a11.06 11.06 0 0 1 1.3 4.6c0 1.3-1.8 3.8-3.5 5.6-6.6 6.9-5.2 18.9-5.2 19zM27 11.7a11.72 11.72 0 0 0-.4-2.7 9.83 9.83 0 0 1 1.2 1.5 5.94 5.94 0 0 1 .3 5.2c-1.9 4.6.9 9.9 2.3 11.2a1.27 1.27 0 0 0 1.8-.1 1.69 1.69 0 0 0 .3-1 18.16 18.16 0 0 1 2.2-9.9c-.1 2.1.9 4.2 4.2 8.5 2.8 3.6 2.4 8.9 2.2 10.8l-.1.7c-.8 4.8-5.9 8.8-11.4 8.8S19 40.8 18.2 35.9v-.1c-.2-1.3-.9-11.4 4.8-17.2.6-.6 3.9-4.2 4-6.9z"/><path d="M0 0v32.8h2V2h55.2v30.8h2V0H0zM29.6 57.2L2.7 34.8H0v.4l29.6 24.6 29.6-24.6v-.4h-2.7L29.6 57.2z"/></svg>