<svg xmlns="http://www.w3.org/2000/svg" id="spectacles" viewBox="0 0 61.2 18.8"><path d="M52.55 6.1a8.91 8.91 0 0 0-8.7-6 9.56 9.56 0 0 0-7.6 3.9 6.57 6.57 0 0 0-5.9-4 6.43 6.43 0 0 0-4.1 1.5 7.9 7.9 0 0 0-1.9 2.5 9.29 9.29 0 0 0-7.6-3.9 8.74 8.74 0 0 0-8.7 6H0V8h7.55a7.08 7.08 0 0 0-.1 1.4 9.4 9.4 0 1 0 18.8 0 14.92 14.92 0 0 0-.2-2.1v-.9a4.5 4.5 0 0 1 9 0v.9a7.49 7.49 0 0 0-.2 2.1 9.4 9.4 0 0 0 18.8.1c0-.5-.1-.8-.1-1.4h7.65v-2h-8.65zm-35.9 10.8a7.4 7.4 0 1 1 7.4-7.4 7.38 7.38 0 0 1-7.4 7.4zm27.1 0a7.4 7.4 0 1 1 7.4-7.4 7.38 7.38 0 0 1-7.4 7.4z"/></svg>