<svg xmlns="http://www.w3.org/2000/svg" id="speed" viewBox="0 0 58.5 50.8"><path d="M46.65 12.95l-1.4-1.4L31 25.75a4.14 4.14 0 0 0-1.9-.5 3.8 3.8 0 0 0-3.8 3.8A3.8 3.8 0 0 0 33 29a4.14 4.14 0 0 0-.5-1.9zm-17.5 18a1.79 1.79 0 0 1-1.8-1.8 1.8 1.8 0 0 1 3.6 0 1.79 1.79 0 0 1-1.8 1.8z" transform="translate(.05 .05)"/><path d="M29.15-.05a29.16 29.16 0 0 0-19.7 50.7l1.2-1.3a27.46 27.46 0 1 1 46-20.2 27.94 27.94 0 0 1-8.9 20.3l1.2 1.3a29.14 29.14 0 0 0 9.5-21.5 29.47 29.47 0 0 0-29.3-29.3z" transform="translate(.05 .05)"/><path d="M29.15 10.15a19 19 0 0 1 11.2 3.6l1.2-1.2a19.68 19.68 0 0 0-12.4-4.1 20.74 20.74 0 0 0-20.7 20.7 20.53 20.53 0 0 0 6.7 15.2l1.2-1.3a18.9 18.9 0 0 1 12.8-32.9zM45.65 16.85l-1.3 1.3A18.51 18.51 0 0 1 48 29.25a19 19 0 0 1-6.2 14l1.2 1.3a20.69 20.69 0 0 0 6.7-15.2 19.75 19.75 0 0 0-4.05-12.5z" transform="translate(.05 .05)"/></svg>