<svg id="speed-alt" xmlns="http://www.w3.org/2000/svg" width="59.8" height="30.5" viewBox="0 0 59.8 30.5"><title>speed-alt</title><path d="M29.9,0A29.92,29.92,0,0,0,0,29.9H1.5a28.4,28.4,0,1,1,56.8,0h1.5A29.92,29.92,0,0,0,29.9,0Z" transform="translate(0)"  /><path d="M45.3,13.4l-16,14c-0.2,0-.3-0.1-0.5-0.1a1.54,1.54,0,0,0-1.5,1,1.27,1.27,0,0,0-.1.6c0,0.2.1,0.3,0.1,0.5a1.63,1.63,0,0,0,1.5,1.1,1.5,1.5,0,0,0,1.5-1.1,1.09,1.09,0,0,0,.1-0.5,0.9,0.9,0,0,0-.1-0.5L46.2,14.5Z" transform="translate(0)"  /></svg>