<svg id="traces" xmlns="http://www.w3.org/2000/svg" width="60" height="58.8" viewBox="0 0 60 58.8"><title>traces</title><path d="M0,0V58.8H60V0H0ZM58.5,57.3H33.3V48L44.6,36.4V26.2a1.6,1.6,0,0,0,.7-0.9,0.9,0.9,0,0,0,.1-0.5,1.27,1.27,0,0,0-.1-0.6,1.76,1.76,0,0,0-1.6-1.1,1.71,1.71,0,0,0-1.6,1.1,1.27,1.27,0,0,0-.1.6,0.9,0.9,0,0,0,.1.5,1.57,1.57,0,0,0,1,1.1v9.4L31.8,47.4v9.9H29.3V39.5l7.3-7.6V9.6a2.19,2.19,0,0,0,.9-1,0.9,0.9,0,0,0,.1-0.5,1.27,1.27,0,0,0-.1-0.6,1.76,1.76,0,0,0-1.6-1.1,1.71,1.71,0,0,0-1.6,1.1,1.27,1.27,0,0,0-.1.6,0.9,0.9,0,0,0,.1.5,1.76,1.76,0,0,0,.9,1V31.3l-7.3,7.6V57.3H25.4V47.4L14.1,35.8V19.5a2.19,2.19,0,0,0,.9-1,0.9,0.9,0,0,0,.1-0.5,1.27,1.27,0,0,0-.1-0.6,1.76,1.76,0,0,0-1.6-1.1,1.71,1.71,0,0,0-1.6,1.1,1.27,1.27,0,0,0-.1.6,0.9,0.9,0,0,0,.1.5,1.76,1.76,0,0,0,.9,1v17L24,48.1v9.3H1.7V1.5H58.8L58.5,57.3h0Z" transform="translate(0 0)"  /></svg>