<svg xmlns="http://www.w3.org/2000/svg" id="traces" viewBox="0 0 60 58.8"><path d="M0 0v58.8h60V0H0zm58.5 57.3H33.3V48l11.3-11.6V26.2a1.6 1.6 0 0 0 .7-.9.9.9 0 0 0 .1-.5 1.27 1.27 0 0 0-.1-.6 1.76 1.76 0 0 0-1.6-1.1 1.71 1.71 0 0 0-1.6 1.1 1.27 1.27 0 0 0-.1.6.9.9 0 0 0 .1.5 1.57 1.57 0 0 0 1 1.1v9.4L31.8 47.4v9.9h-2.5V39.5l7.3-7.6V9.6a2.19 2.19 0 0 0 .9-1 .9.9 0 0 0 .1-.5 1.27 1.27 0 0 0-.1-.6 1.76 1.76 0 0 0-1.6-1.1 1.71 1.71 0 0 0-1.6 1.1 1.27 1.27 0 0 0-.1.6.9.9 0 0 0 .1.5 1.76 1.76 0 0 0 .9 1v21.7l-7.3 7.6v18.4h-2.5v-9.9L14.1 35.8V19.5a2.19 2.19 0 0 0 .9-1 .9.9 0 0 0 .1-.5 1.27 1.27 0 0 0-.1-.6 1.76 1.76 0 0 0-1.6-1.1 1.71 1.71 0 0 0-1.6 1.1 1.27 1.27 0 0 0-.1.6.9.9 0 0 0 .1.5 1.76 1.76 0 0 0 .9 1v17L24 48.1v9.3H1.7V1.5h57.1l-.3 55.8z"/></svg>