<?xml version="1.0" encoding="utf-8"?>
<!-- Generator: Adobe Illustrator 20.0.0, SVG Export Plug-In . SVG Version: 6.00 Build 0)  -->
<svg version="1.1" id="Layer_1" xmlns="http://www.w3.org/2000/svg" xmlns:xlink="http://www.w3.org/1999/xlink" x="0px" y="0px"
	 viewBox="0 0 57.1 56.4" style="enable-background:new 0 0 57.1 56.4;" xml:space="preserve">
<style type="text/css">
	.st0{fill:#EB6127;}
</style>
<path class="st0" d="M28.6,0C12.8,0,0,12.8,0,28.6v2.3l1.9-1.2c0,0,3.8-2.4,7-2.4c4.3,0,7.5,2.4,7.5,2.4l0.7,0.5l0.7-0.5
	c0.1,0,4.5-2.8,9.5-3.2v23.7c0,2.1-1.7,3.9-3.9,3.9c-2.1,0-3.9-1.7-3.9-3.9c0,0,0-1.3-1.2-1.3s-1.2,1.3-1.2,1.3
	c0,3.5,2.8,6.3,6.3,6.3c3.5,0,6.3-2.8,6.3-6.3V26.4c5,0.4,9.5,3.2,9.5,3.2l0.7,0.5l0.7-0.5c0,0,3.1-2.4,7.5-2.4c3.2,0,7,2.4,7,2.4
	l1.9,1.2v-2.3C57.1,12.8,44.3,0,28.6,0z M48.2,24.7c-3.9,0-7,1.6-8.3,2.4c-1.7-1-6.3-3.3-11.4-3.3c-5,0-9.6,2.3-11.4,3.3
	c-1.3-0.8-4.4-2.4-8.3-2.4c-2.3,0-4.7,0.9-6.4,1.7c1.1-13.4,12.3-24,26-24c13.7,0,24.9,10.6,26,24C52.9,25.6,50.5,24.7,48.2,24.7z"
	/>
</svg>
