<svg xmlns="http://www.w3.org/2000/svg" id="Layer_1" viewBox="0 0 57.1 56.4"><path d="M28.6 0C12.8 0 0 12.8 0 28.6v2.3l1.9-1.2s3.8-2.4 7-2.4c4.3 0 7.5 2.4 7.5 2.4l.7.5.7-.5c.1 0 4.5-2.8 9.5-3.2v23.7c0 2.1-1.7 3.9-3.9 3.9-2.1 0-3.9-1.7-3.9-3.9 0 0 0-1.3-1.2-1.3s-1.2 1.3-1.2 1.3c0 3.5 2.8 6.3 6.3 6.3s6.3-2.8 6.3-6.3V26.4c5 .4 9.5 3.2 9.5 3.2l.7.5.7-.5s3.1-2.4 7.5-2.4c3.2 0 7 2.4 7 2.4l1.9 1.2v-2.3C57.1 12.8 44.3 0 28.6 0zm19.6 24.7c-3.9 0-7 1.6-8.3 2.4-1.7-1-6.3-3.3-11.4-3.3-5 0-9.6 2.3-11.4 3.3-1.3-.8-4.4-2.4-8.3-2.4-2.3 0-4.7.9-6.4 1.7 1.1-13.4 12.3-24 26-24s24.9 10.6 26 24c-1.5-.8-3.9-1.7-6.2-1.7z" class="st0"/></svg>