<svg xmlns="http://www.w3.org/2000/svg" id="users-alt" viewBox="0 0 58.4 58.5"><path d="M58.45 29.2a29.2 29.2 0 1 0-58.4 0 30.05 30.05 0 0 0 1.6 9.5v.1a29.33 29.33 0 0 0 5 9 .87.87 0 0 0 .6.9.37.37 0 0 1 .3.1 29.12 29.12 0 0 0 43.4 0l.1.1a1 1 0 0 0 .6-.8 29.15 29.15 0 0 0 6.8-18.9zm-13.6 3.1a.48.48 0 0 0-.1-.4 11.64 11.64 0 0 1-1-2.2c-.2-.9-.3-1.2-.3-1.2a1 1 0 0 0-.4-.7 1.05 1.05 0 0 1-.3-.9v-.8a1.52 1.52 0 0 0 .3-1.3c0-.8-.1-2.2.8-2.9a4.82 4.82 0 0 1 3-1H47a5 5 0 0 1 3.1 1c.9.6.9 1.8.8 2.8a1.55 1.55 0 0 0 .2 1.2l.1.1v.8a1.7 1.7 0 0 1-.3.9 1 1 0 0 0-.4.7s-.1.3-.3 1.2a9.26 9.26 0 0 1-1 2.2 2.27 2.27 0 0 1-.1.4 8.23 8.23 0 0 0-.1 2 4.39 4.39 0 0 0 3.5 4 10 10 0 0 1 2.3.9 29.25 29.25 0 0 1-3.9 6.9c-2.8-5.2-7.6-6.4-10.8-7.2a5.27 5.27 0 0 1 1.5-.5 4.47 4.47 0 0 0 3.5-4 11.69 11.69 0 0 0-.25-2zM29.25 1.9a27.34 27.34 0 0 1 27.3 27.3 26.25 26.25 0 0 1-1.2 8 13.37 13.37 0 0 0-2.4-.9 2.56 2.56 0 0 1-2.1-2.3c0-.6.1-1.1.1-1.4a11.17 11.17 0 0 0 1.1-2.6 8.37 8.37 0 0 0 .2-1 3.5 3.5 0 0 0 .8-2.2 2.63 2.63 0 0 0-.3-1.9v-.1c.1-1 .2-3.2-1.6-4.5A7.08 7.08 0 0 0 47 18.9a7.26 7.26 0 0 0-4.2 1.4c-1.8 1.3-1.7 3.6-1.6 4.6a4 4 0 0 0-.3 1.9 3.86 3.86 0 0 0 .8 2.2 8.38 8.38 0 0 0 .2 1 9.2 9.2 0 0 0 1.1 2.6 5.72 5.72 0 0 1 .1 1.4 2.56 2.56 0 0 1-2.1 2.3 15.08 15.08 0 0 0-3.5 1.5 4.93 4.93 0 0 1-2.3-3.6 9.07 9.07 0 0 1 .1-2.5 21 21 0 0 0 1.8-4.1c.2-1 .3-1.5.4-1.8a4 4 0 0 0 1.2-3.2 5 5 0 0 0-.6-2.9v-.2c.1-1.4.4-4.9-2.3-6.8a11.11 11.11 0 0 0-13 0c-2.7 1.9-2.5 5.3-2.4 6.8v.2c-.5.5-.6 1.5-.6 2.9a4.18 4.18 0 0 0 1.2 3.2c.1.3.2.9.4 1.8a13.35 13.35 0 0 0 1.8 4.1 17 17 0 0 1 .1 2.5 4.93 4.93 0 0 1-2.3 3.6 12 12 0 0 0-3.5-1.5 2.56 2.56 0 0 1-2.1-2.3c0-.6.1-1.1.1-1.4a11.16 11.16 0 0 0 1.1-2.6 8.66 8.66 0 0 1 .2-1 3 3 0 0 0 .8-2.2 3.19 3.19 0 0 0-.3-1.9c.1-1 .2-3.3-1.6-4.6a7.08 7.08 0 0 0-4.2-1.4 7.26 7.26 0 0 0-4.2 1.4c-1.8 1.3-1.7 3.5-1.6 4.5v.1a3.27 3.27 0 0 0-.3 1.9 3.26 3.26 0 0 0 .8 2.2 8.37 8.37 0 0 0 .2 1 16.16 16.16 0 0 0 1.1 2.5 5.72 5.72 0 0 1 .1 1.4 2.56 2.56 0 0 1-2.1 2.3 18.49 18.49 0 0 0-2.3.9A26.08 26.08 0 0 1 2 29.2 27.4 27.4 0 0 1 29.25 1.9zm-20 29.9a.48.48 0 0 0-.1-.4 11.64 11.64 0 0 1-1-2.2c-.15-.9-.3-1.2-.3-1.2a2.09 2.09 0 0 0-.4-.6 1.05 1.05 0 0 1-.3-.9v-.7l.1-.1a1.64 1.64 0 0 0 .2-1.2c-.1-1-.1-2.2.8-2.8a5 5 0 0 1 3-1h.1a5 5 0 0 1 3.1 1c.9.7.8 2.1.8 2.9a1.44 1.44 0 0 0 .3 1.3v.8a1.7 1.7 0 0 1-.3.9 1 1 0 0 0-.4.7 3 3 0 0 0-.3 1.2 9.26 9.26 0 0 1-1 2.2 2.27 2.27 0 0 1-.1.4 8.23 8.23 0 0 0-.1 2 4.39 4.39 0 0 0 3.5 4 6.61 6.61 0 0 1 1.5.5c-3.3.8-8 2-10.8 7.1a26.49 26.49 0 0 1-3.8-6.8 19.62 19.62 0 0 1 2.1-1.2 4.47 4.47 0 0 0 3.5-4 7.22 7.22 0 0 0-.1-1.9zm20 24.7A26.89 26.89 0 0 1 9 47.4c2.4-5 6.8-6.2 10-6.9.3-.1.6-.1.9-.2a6.75 6.75 0 0 0 5.3-6 15.07 15.07 0 0 0-.2-3.1.48.48 0 0 0-.1-.4 16.6 16.6 0 0 1-1.7-3.7c-.3-1.6-.4-2-.4-2a1 1 0 0 0-.4-.7 2.3 2.3 0 0 1-.7-1.9 14.23 14.23 0 0 1 .1-1.5h.1c.5-.3.4-.8.4-1.6-.1-1.3-.3-3.8 1.5-5.1a9.26 9.26 0 0 1 5.3-1.8h.1a9.26 9.26 0 0 1 5.3 1.8c1.7 1.2 1.6 3.8 1.5 5.1a1.72 1.72 0 0 0 .4 1.6h.1a4.2 4.2 0 0 1 .1 1.5 2.3 2.3 0 0 1-.7 1.9 1 1 0 0 0-.4.7 11.22 11.22 0 0 1-.4 2 16.6 16.6 0 0 1-1.7 3.7 2.27 2.27 0 0 1-.1.4 15.07 15.07 0 0 0-.2 3.1 6.79 6.79 0 0 0 5.3 6c.3.1.6.1.9.2 3.3.9 7.8 1.9 10.1 7.1a26.8 26.8 0 0 1-20.15 8.9z" transform="translate(-.05)"/></svg>