<svg id="users" xmlns="http://www.w3.org/2000/svg" width="60.4" height="36.4" viewBox="0 0 60.4 36.4"><title>users</title><path d="M14.5,21A14.43,14.43,0,0,0,0,35.4v1H29v-1A14.43,14.43,0,0,0,14.5,21ZM2,34.4a12.5,12.5,0,0,1,24.9,0H2Z" transform="translate(0 0)"  /><path d="M14.5,19.3a6.6,6.6,0,1,0-6.6-6.6A6.66,6.66,0,0,0,14.5,19.3ZM14.5,8a4.6,4.6,0,1,1-4.6,4.6A4.59,4.59,0,0,1,14.5,8Z" transform="translate(0 0)"  /><path d="M45.9,20.9A14.51,14.51,0,0,0,31.4,35.4v1h29v-1A14.51,14.51,0,0,0,45.9,20.9ZM33.5,34.4a12.5,12.5,0,0,1,24.9,0H33.5Z" transform="translate(0 0)"  /><path d="M45.9,19.3a6.6,6.6,0,1,0-6.6-6.6A6.59,6.59,0,0,0,45.9,19.3ZM45.9,8a4.59,4.59,0,0,1,4.6,4.6,4.6,4.6,0,0,1-9.2,0A4.59,4.59,0,0,1,45.9,8Z" transform="translate(0 0)"  /><path d="M38,17.3a14.42,14.42,0,0,0-8-2.4,14.94,14.94,0,0,0-7.9,2.4L23.2,19A12.57,12.57,0,0,1,30,17a12,12,0,0,1,6.9,2.1Z" transform="translate(0 0)"  /><path d="M30,13.3a6.68,6.68,0,0,0,6.6-6.7A6.59,6.59,0,0,0,30,0a6.68,6.68,0,0,0-6.6,6.7A6.59,6.59,0,0,0,30,13.3ZM30,2a4.59,4.59,0,0,1,4.6,4.6,4.6,4.6,0,0,1-9.2,0A4.59,4.59,0,0,1,30,2Z" transform="translate(0 0)"  /></svg>