<svg xmlns="http://www.w3.org/2000/svg" id="users" viewBox="0 0 60.4 36.4"><path d="M14.5 21A14.43 14.43 0 0 0 0 35.4v1h29v-1A14.43 14.43 0 0 0 14.5 21zM2 34.4a12.5 12.5 0 0 1 24.9 0H2zM14.5 19.3a6.6 6.6 0 1 0-6.6-6.6 6.66 6.66 0 0 0 6.6 6.6zm0-11.3a4.6 4.6 0 1 1-4.6 4.6A4.59 4.59 0 0 1 14.5 8zM45.9 20.9a14.51 14.51 0 0 0-14.5 14.5v1h29v-1a14.51 14.51 0 0 0-14.5-14.5zM33.5 34.4a12.5 12.5 0 0 1 24.9 0H33.5zM45.9 19.3a6.6 6.6 0 1 0-6.6-6.6 6.59 6.59 0 0 0 6.6 6.6zm0-11.3a4.59 4.59 0 0 1 4.6 4.6 4.6 4.6 0 0 1-9.2 0A4.59 4.59 0 0 1 45.9 8zM38 17.3a14.42 14.42 0 0 0-8-2.4 14.94 14.94 0 0 0-7.9 2.4l1.1 1.7a12.57 12.57 0 0 1 6.8-2 12 12 0 0 1 6.9 2.1zM30 13.3a6.68 6.68 0 0 0 6.6-6.7A6.59 6.59 0 0 0 30 0a6.68 6.68 0 0 0-6.6 6.7 6.59 6.59 0 0 0 6.6 6.6zM30 2a4.59 4.59 0 0 1 4.6 4.6 4.6 4.6 0 0 1-9.2 0A4.59 4.59 0 0 1 30 2z"/></svg>