<svg xmlns="http://www.w3.org/2000/svg" id="vault" viewBox="0 0 60 58.8"><path d="M0 0v58.8h60V0H0zm58.5 57.4h-57V1.5h57v55.9z"/><path d="M15 42.9a1.62 1.62 0 0 0 1.6-1.2.75.75 0 0 0 .1-.5V41l6.3-4.4a10.13 10.13 0 0 0 7.6 3.5 9.65 9.65 0 0 0 7.6-3.5l6.3 4.4v.2a.9.9 0 0 0 .1.5 1.67 1.67 0 0 0 3.2 0 1.09 1.09 0 0 1 .1-.5 1.27 1.27 0 0 0-.1-.6 1.71 1.71 0 0 0-1.6-1.1 1.61 1.61 0 0 0-.9.3l-6.2-4.3A10.07 10.07 0 0 0 31.3 20v-8.2a1.76 1.76 0 0 0 .9-1 1.09 1.09 0 0 0 .1-.5 1.27 1.27 0 0 0-.1-.6 1.71 1.71 0 0 0-1.6-1.1A1.76 1.76 0 0 0 29 9.7a1.27 1.27 0 0 0-.1.6.9.9 0 0 0 .1.5 1.59 1.59 0 0 0 .8 1v8.3a10.06 10.06 0 0 0-9.3 10.1 9.8 9.8 0 0 0 1.6 5.4l-6.2 4.3a1.61 1.61 0 0 0-.9-.3 1.76 1.76 0 0 0-1.6 1.1 1.27 1.27 0 0 0-.1.6.9.9 0 0 0 .1.5 1.66 1.66 0 0 0 1.6 1.1zm15.6-21.5A8.6 8.6 0 1 1 22 30a8.66 8.66 0 0 1 8.6-8.6z"/></svg>