<svg id="wordpress" xmlns="http://www.w3.org/2000/svg" width="64.78" height="64.78" viewBox="0 0 64.78 64.78"><title>wordpress</title><path d="M4.82,32.61a27.79,27.79,0,0,0,15.66,25L7.23,21.3A27.68,27.68,0,0,0,4.82,32.61Z" transform="translate(-0.22 -0.22)"  /><path d="M51.37,31.21a14.63,14.63,0,0,0-2.29-7.66c-1.41-2.29-2.73-4.23-2.73-6.52A4.81,4.81,0,0,1,51,12.1l0.36,0a27.78,27.78,0,0,0-42,5.23l1.79,0c2.91,0,7.41-.35,7.41-0.35a1.15,1.15,0,0,1,.18,2.29s-1.51.18-3.18,0.26L25.7,49.68l6.08-18.24L27.46,19.58c-1.5-.09-2.91-0.26-2.91-0.26A1.15,1.15,0,0,1,24.72,17s4.59,0.35,7.32.35c2.91,0,7.41-.35,7.41-0.35a1.15,1.15,0,0,1,.18,2.29s-1.51.18-3.18,0.26l10,29.87,2.77-9.26C50.45,36.35,51.37,33.59,51.37,31.21Z" transform="translate(-0.22 -0.22)"  /><path d="M33.1,35L24.76,59.26a27.8,27.8,0,0,0,17.08-.44,2.6,2.6,0,0,1-.2-0.38Z" transform="translate(-0.22 -0.22)"  /><path d="M57,19.28a21.32,21.32,0,0,1,.19,2.86,26.24,26.24,0,0,1-2.11,10L46.58,56.63A27.79,27.79,0,0,0,57,19.28Z" transform="translate(-0.22 -0.22)"  /><path d="M32.61,0.22A32.39,32.39,0,1,0,65,32.61,32.43,32.43,0,0,0,32.61.22Zm0,63.29a30.9,30.9,0,1,1,30.9-30.91A30.94,30.94,0,0,1,32.61,63.51Z" transform="translate(-0.22 -0.22)"  /></svg>