<svg xmlns="http://www.w3.org/2000/svg" id="wordpress" viewBox="0 0 64.78 64.78"><path d="M4.82 32.61a27.79 27.79 0 0 0 15.66 25L7.23 21.3a27.68 27.68 0 0 0-2.41 11.31zM51.37 31.21a14.63 14.63 0 0 0-2.29-7.66c-1.41-2.29-2.73-4.23-2.73-6.52A4.81 4.81 0 0 1 51 12.1h.36a27.78 27.78 0 0 0-42 5.23h1.79c2.91 0 7.41-.35 7.41-.35a1.15 1.15 0 0 1 .18 2.29s-1.51.18-3.18.26L25.7 49.68l6.08-18.24-4.32-11.86c-1.5-.09-2.91-.26-2.91-.26a1.15 1.15 0 0 1 .17-2.32s4.59.35 7.32.35c2.91 0 7.41-.35 7.41-.35a1.15 1.15 0 0 1 .18 2.29s-1.51.18-3.18.26l10 29.87 2.77-9.26c1.23-3.81 2.15-6.57 2.15-8.95z" transform="translate(-.22 -.22)"/><path d="M33.1 35l-8.34 24.26a27.8 27.8 0 0 0 17.08-.44 2.6 2.6 0 0 1-.2-.38zM57 19.28a21.32 21.32 0 0 1 .19 2.86 26.24 26.24 0 0 1-2.11 10l-8.5 24.49A27.79 27.79 0 0 0 57 19.28z" transform="translate(-.22 -.22)"/><path d="M32.61.22A32.39 32.39 0 1 0 65 32.61 32.43 32.43 0 0 0 32.61.22zm0 63.29a30.9 30.9 0 1 1 30.9-30.91 30.94 30.94 0 0 1-30.9 30.91z" transform="translate(-.22 -.22)"/></svg>