<svg xmlns="http://www.w3.org/2000/svg" id="yang" viewBox="0 0 49.97 49.98"><path d="M40.3 4.49C33.9 0 26.4-1.21 20.7 1.29a10.54 10.54 0 0 0-6.6 8.3c-1 7.6 2.7 10.5 4.3 11.7l.2.1c1.6 1.3 5.9 1.7 6.4 1.8l.5.1.3-.4c.1-.1 4.3-5.7 11-5.7h.4c6.6.2 11.2 6.9 11.2 7l1.3 2 .2-2.4a21.22 21.22 0 0 0-9.6-19.3zm-3.1 11c-6.8-.3-11.3 4.5-12.5 5.9-1.6-.2-4.2-.7-5-1.4l-.2-.1c-1.5-1.1-4.6-3.5-3.7-10.1a8.85 8.85 0 0 1 5.6-7 14.71 14.71 0 0 1 5.6-1.1A21.6 21.6 0 0 1 39.3 6a20 20 0 0 1 8.9 15.3c-2-2.21-5.9-5.61-11-5.81z" transform="translate(-.02 -.01)"/><path d="M24.7 7.29A3.78 3.78 0 0 0 20.9 11a3.8 3.8 0 0 0 7.6 0 3.78 3.78 0 0 0-3.8-3.71zm0 5.7a2 2 0 1 1 2-2 2 2 0 0 1-2 2.01zM17.3 41.59c7.2-2.7 8-7.3 8.3-9.3v-.2c.3-2-1.3-6-1.5-6.4l-.2-.5-.5-.1S16.1 24 13 17.89c-2.9-5.8.9-13 .9-13.1l1.1-2.1-2.2.9A21.75 21.75 0 0 0 .2 21.19c-.9 7.7 1.6 14.8 6.5 18.5a10.87 10.87 0 0 0 6.9 2.5 12.42 12.42 0 0 0 3.7-.6zm-9.6-3.3c-4.4-3.3-6.6-9.9-5.8-17a20.19 20.19 0 0 1 9.4-15c-1 2.9-2.2 7.9 0 12.3 3.1 6 9.4 7.6 11.3 8 .6 1.5 1.4 4 1.2 5v.2c-.3 1.8-.9 5.6-7.2 8a9.11 9.11 0 0 1-8.9-1.5z" transform="translate(-.02 -.01)"/><path d="M16.7 29.89a3.78 3.78 0 0 0-5.1-1.5 3.64 3.64 0 0 0-1.5 5 3.86 3.86 0 0 0 3.3 1.9 3.63 3.63 0 0 0 3.3-5.4zm-2.4 3.4a2 2 0 1 1-1.9-3.5 4.4 4.4 0 0 1 1-.2 1.94 1.94 0 0 1 1.7 1 2 2 0 0 1-.8 2.7zM44.6 22.89c-6.2-4.7-10.5-3-12.4-2.2l-.2.1c-1.9.8-4.5 4.2-4.8 4.6l-.3.4.2.5s2.9 6.7-.8 12.5c-3.5 5.5-11.7 6-11.8 6l-2.4.1 1.9 1.4A21.46 21.46 0 0 0 26.1 50a25 25 0 0 0 9.7-2.1c7.1-3.3 12-9.1 12.7-15.2a10.28 10.28 0 0 0-3.9-9.81zm2.1 9.6c-.6 5.51-5.1 10.8-11.7 13.8a20.33 20.33 0 0 1-17.9-.1c3-.7 7.9-2.3 10.7-6.5 3.6-5.7 1.8-11.9 1.1-13.7 1-1.3 2.7-3.2 3.7-3.6l.2-.1c1.7-.7 5.3-2.2 10.6 1.9a8.79 8.79 0 0 1 3.3 8.3z" transform="translate(-.02 -.01)"/><path d="M39.6 28a3.63 3.63 0 0 0-5.1 1.3 3.75 3.75 0 0 0 1.4 5.1 4.14 4.14 0 0 0 1.9.5 1.51 1.51 0 0 0 .8-.1 3.33 3.33 0 0 0 2.3-1.7 3.4 3.4 0 0 0 .4-2.8 3.33 3.33 0 0 0-1.7-2.3zm-.1 4.2a2.15 2.15 0 0 1-1.2.9 2 2 0 0 1-1.5-.2 2 2 0 0 1 2-3.4 2.15 2.15 0 0 1 .9 1.2 2 2 0 0 1-.2 1.49z" transform="translate(-.02 -.01)"/></svg>