<svg xmlns="http://www.w3.org/2000/svg" xmlns:xlink="http://www.w3.org/1999/xlink" width="436.47" height="51.04" viewBox="0 0 436.47 51.04">
  <defs>
    <clipPath id="a" transform="translate(0 0)">
      <rect width="268.22" height="51.04" style="fill: none"/>
    </clipPath>
  </defs>
  <title>Untitled-1</title>
  <g style="clip-path: url(#a)">
    <polygon points="21.24 34.64 17.32 38.56 17.32 51.04 33.72 51.04 33.72 38.56 29.8 34.64 21.24 34.64" style="fill: #40bac8"/>
    <polygon points="38.56 17.32 34.64 21.24 34.64 29.8 38.56 33.72 51.04 33.72 51.04 17.32 38.56 17.32" style="fill: #40bac8"/>
    <polygon points="17.32 0 17.32 12.48 21.24 16.4 29.79 16.4 33.72 12.48 33.72 0 17.32 0" style="fill: #40bac8"/>
    <polygon points="34.64 34.64 34.64 51.04 51.04 51.04 51.04 38.56 47.11 34.64 34.64 34.64" style="fill: #40bac8"/>
    <polygon points="3.92 0 0 3.92 0 16.4 16.4 16.4 16.4 0 3.92 0" style="fill: #40bac8"/>
    <polygon points="34.64 0 34.64 12.48 38.56 16.4 51.04 16.4 51.04 0 34.64 0" style="fill: #40bac8"/>
    <g style="clip-path: url(#a)">
      <path d="M25.52,27.87a2.35,2.35,0,1,1,2.35-2.35,2.35,2.35,0,0,1-2.35,2.35" transform="translate(0 0)" style="fill: #40bac8"/>
      <polygon points="16.4 17.32 0 17.32 0 33.72 12.47 33.72 16.4 29.8 16.4 17.32" style="fill: #40bac8"/>
      <polygon points="16.4 38.56 12.47 34.64 0 34.64 0 51.04 12.47 51.04 16.4 47.12 16.4 38.56" style="fill: #40bac8"/>
      <path d="M86.12,38.56a.46.46,0,0,1-.5-.38L81.55,23.69h-.07L77.35,38.18a.46.46,0,0,1-.49.38H72.09a.46.46,0,0,1-.5-.38L64.55,13c0-.23,0-.38.3-.38H71.1a.44.44,0,0,1,.5.38L75,28.12H75l4-15.1a.46.46,0,0,1,.5-.38h3.93A.46.46,0,0,1,84,13l4.15,15.1h.08L91.46,13a.43.43,0,0,1,.46-.38h6.25a.26.26,0,0,1,.27.38l-7,25.16a.48.48,0,0,1-.53.38Z" transform="translate(0 0)" style="fill: #fff"/>
      <path d="M103.54,38.56a.36.36,0,0,1-.38-.38V13a.36.36,0,0,1,.38-.38h10.37c6.33,0,9.61,3.58,9.61,8.61s-3.32,8.65-9.61,8.65H110.1a.2.2,0,0,0-.23.23v8a.36.36,0,0,1-.38.38Zm13.27-17.31c0-1.79-1.18-2.93-3.28-2.93H110.1a.2.2,0,0,0-.23.23V24a.2.2,0,0,0,.23.23h3.43c2.1,0,3.28-1.18,3.28-3" transform="translate(0 0)" style="fill: #fff"/>
      <path d="M132.47,32.25a20.09,20.09,0,0,1-.72-6.48,20.1,20.1,0,0,1,.72-6.48,9.13,9.13,0,0,1,17.28,0,18.23,18.23,0,0,1,.72,6.07.5.5,0,0,1-.57.51H133.6c-.21,0-.31.15-.31.36a17.67,17.67,0,0,0,.62,5.5,7.27,7.27,0,0,0,7.51,5.35,8.75,8.75,0,0,0,7.35-3.55.47.47,0,0,1,.72-.1l.31.26a.46.46,0,0,1,.05.72,10,10,0,0,1-8.43,4.11c-4.52,0-7.61-2.11-8.95-6.27m16.14-7.82a.27.27,0,0,0,.31-.31,14.29,14.29,0,0,0-.57-4.27,7.61,7.61,0,0,0-14.5,0,14.28,14.28,0,0,0-.57,4.27.27.27,0,0,0,.31.31Z" transform="translate(0 0)" style="fill: #fff"/>
      <path d="M173.55,38a.49.49,0,0,1-.51-.51V22.89c0-5.76-2.37-8.33-7.15-8.33a7.18,7.18,0,0,0-7.45,7.56V37.49a.49.49,0,0,1-.51.51h-.51a.49.49,0,0,1-.51-.51V14.15a.49.49,0,0,1,.51-.51h.51a.49.49,0,0,1,.51.51V17.6h.05c1.23-2.83,4-4.47,7.51-4.47,5.5,0,8.59,3.14,8.59,9.41v15a.48.48,0,0,1-.51.51Z" transform="translate(0 0)" style="fill: #fff"/>
      <path d="M181.93,44.28a.5.5,0,0,1,.1-.72l.41-.26a.51.51,0,0,1,.72.16,7.77,7.77,0,0,0,6.48,2.88c4.63,0,7.61-2.26,7.61-8.28V33.95h-.05c-1.18,2.73-3.34,4.58-7.61,4.58a7.93,7.93,0,0,1-8.07-5.81,22,22,0,0,1-.82-6.89,22,22,0,0,1,.82-6.89,7.93,7.93,0,0,1,8.07-5.81c4.27,0,6.43,1.85,7.61,4.58h.05V14.15a.48.48,0,0,1,.51-.51h.51a.48.48,0,0,1,.51.51V38.06c0,6.73-3.65,9.72-9.15,9.72-3.55,0-6.53-1.59-7.71-3.5M196.58,32.2a19.87,19.87,0,0,0,.67-6.38,19.87,19.87,0,0,0-.67-6.37A7.17,7.17,0,0,0,183,19.4a20.73,20.73,0,0,0-.77,6.43,20.73,20.73,0,0,0,.77,6.43,7.17,7.17,0,0,0,13.57-.05" transform="translate(0 0)" style="fill: #fff"/>
      <path d="M207.17,6.13a.48.48,0,0,1-.51-.51V3.56a.49.49,0,0,1,.51-.52h1.23a.49.49,0,0,1,.51.52V5.62a.49.49,0,0,1-.51.51ZM207.53,38a.49.49,0,0,1-.51-.51V14.15a.49.49,0,0,1,.51-.51H208a.49.49,0,0,1,.51.51V37.49A.49.49,0,0,1,208,38Z" transform="translate(0 0)" style="fill: #fff"/>
      <path d="M233.44,38a.49.49,0,0,1-.52-.51V22.89c0-5.76-2.36-8.33-7.15-8.33a7.18,7.18,0,0,0-7.45,7.56V37.49a.49.49,0,0,1-.51.51h-.51a.49.49,0,0,1-.51-.51V14.15a.49.49,0,0,1,.51-.51h.51a.49.49,0,0,1,.51.51V17.6h.05c1.23-2.83,4-4.47,7.51-4.47,5.5,0,8.59,3.14,8.59,9.41v15A.48.48,0,0,1,234,38Z" transform="translate(0 0)" style="fill: #fff"/>
      <path d="M241.31,32.25a20.09,20.09,0,0,1-.72-6.48,20.1,20.1,0,0,1,.72-6.48,9.13,9.13,0,0,1,17.27,0,18.23,18.23,0,0,1,.72,6.07.5.5,0,0,1-.57.51h-16.3c-.21,0-.31.15-.31.36a17.67,17.67,0,0,0,.62,5.5,7.27,7.27,0,0,0,7.51,5.35,8.75,8.75,0,0,0,7.35-3.55.47.47,0,0,1,.72-.1l.31.26a.46.46,0,0,1,.05.72,10,10,0,0,1-8.43,4.11c-4.52,0-7.61-2.11-8.95-6.27m16.14-7.82a.27.27,0,0,0,.31-.31,14.29,14.29,0,0,0-.57-4.27,7.61,7.61,0,0,0-14.5,0,14.28,14.28,0,0,0-.57,4.27.27.27,0,0,0,.31.31Z" transform="translate(0 0)" style="fill: #fff"/>
      <path d="M262.26,16.1a3,3,0,1,1,3,3,2.92,2.92,0,0,1-3-3m5.49,0a2.51,2.51,0,1,0-2.51,2.54,2.45,2.45,0,0,0,2.51-2.54m-3.5,1.66a.12.12,0,0,1-.14-.14V14.55a.12.12,0,0,1,.14-.14h1.22a.94.94,0,0,1,1.05,1,.88.88,0,0,1-.65.91l.65,1.3c.06.11,0,.15-.09.15h-.26a.19.19,0,0,1-.16-.11l-.65-1.28h-.7s0,0,0,0v1.22a.13.13,0,0,1-.14.14Zm1.79-2.37c0-.32-.17-.53-.59-.53h-.79s0,0,0,0v1s0,0,0,0h.79c.42,0,.59-.19.59-.51" transform="translate(0 0)" style="fill: #fff"/>
    </g>
  </g>
  <g>
    <path d="M291.41,12.18a.52.52,0,0,1,.52-.4h.4a.27.27,0,0,1,.28.4l-8.84,27.2a.52.52,0,0,1-.52.4h-.4a.27.27,0,0,1-.28-.4Z" transform="translate(0 0)" style="fill: #fff"/>
    <path d="M322,39.37a.38.38,0,0,1-.4-.4V36.29h0a6,6,0,0,1-5.76,3.48c-4.28,0-6.6-2.44-6.6-7.32V20.82a.38.38,0,0,1,.4-.4h.4a.38.38,0,0,1,.4.4V32.17c0,4.48,1.76,6.48,5.48,6.48a5.54,5.54,0,0,0,5.72-5.88v-12a.38.38,0,0,1,.4-.4h.4a.38.38,0,0,1,.4.4V39a.38.38,0,0,1-.4.4Z" transform="translate(0 0)" style="fill: #fff"/>
    <path d="M343.76,39.37a.38.38,0,0,1-.4-.4V27.62c0-4.48-1.84-6.48-5.56-6.48A5.58,5.58,0,0,0,332,27V39a.38.38,0,0,1-.4.4h-.4a.38.38,0,0,1-.4-.4V20.82a.38.38,0,0,1,.4-.4h.4a.38.38,0,0,1,.4.4V23.5h0A6,6,0,0,1,337.89,20c4.28,0,6.68,2.44,6.68,7.32V39a.38.38,0,0,1-.4.4Z" transform="translate(0 0)" style="fill: #fff"/>
    <path d="M352.45,14.58a.38.38,0,0,1-.4-.4v-1.6a.38.38,0,0,1,.4-.4h1a.38.38,0,0,1,.4.4v1.6a.38.38,0,0,1-.4.4Zm.28,24.8a.38.38,0,0,1-.4-.4V20.82a.38.38,0,0,1,.4-.4h.4a.38.38,0,0,1,.4.4V39a.38.38,0,0,1-.4.4Z" transform="translate(0 0)" style="fill: #fff"/>
    <path d="M362.77,36.21h0V39a.38.38,0,0,1-.4.4h-.4a.38.38,0,0,1-.4-.4V12.58a.38.38,0,0,1,.4-.4h.4a.38.38,0,0,1,.4.4v11h0c.92-2,2.64-3.56,6-3.56s5.48,1.52,6.44,4.52a17.56,17.56,0,0,1,.68,5.36,17.56,17.56,0,0,1-.68,5.36c-1,3-3,4.52-6.44,4.52S363.69,38.25,362.77,36.21Zm11.36-1.36a17.59,17.59,0,0,0,.6-5,17.58,17.58,0,0,0-.6-5,5.24,5.24,0,0,0-5.4-3.8,5.32,5.32,0,0,0-5.48,3.8,17.11,17.11,0,0,0-.52,5,17.12,17.12,0,0,0,.52,5,5.32,5.32,0,0,0,5.48,3.8A5.24,5.24,0,0,0,374.13,34.85Z" transform="translate(0 0)" style="fill: #fff"/>
    <path d="M381.77,35a15.83,15.83,0,0,1-.64-5.08,15.83,15.83,0,0,1,.64-5.08,7.22,7.22,0,0,1,13.6,0A15.8,15.8,0,0,1,396,29.9a15.79,15.79,0,0,1-.64,5.08,7.22,7.22,0,0,1-13.6,0Zm12.48-.4a14.77,14.77,0,0,0,.56-4.68,14.77,14.77,0,0,0-.56-4.68,6,6,0,0,0-11.36,0,14.75,14.75,0,0,0-.56,4.68,14.74,14.74,0,0,0,.56,4.68,6,6,0,0,0,11.36,0Z" transform="translate(0 0)" style="fill: #fff"/>
    <path d="M414.8,39.37a.38.38,0,0,1-.4-.4V36.21h0c-.92,2-2.64,3.56-6,3.56s-5.48-1.52-6.44-4.52a17.59,17.59,0,0,1-.68-5.36,17.59,17.59,0,0,1,.68-5.36c1-3,3-4.52,6.44-4.52s5.12,1.52,6,3.56h0v-11a.38.38,0,0,1,.4-.4h.4a.38.38,0,0,1,.4.4V39a.38.38,0,0,1-.4.4Zm-.92-4.52a17.09,17.09,0,0,0,.52-5,17.08,17.08,0,0,0-.52-5,5.32,5.32,0,0,0-5.48-3.8,5.24,5.24,0,0,0-5.4,3.8,17.55,17.55,0,0,0-.6,5,17.55,17.55,0,0,0,.6,5,5.24,5.24,0,0,0,5.4,3.8A5.32,5.32,0,0,0,413.88,34.85Z" transform="translate(0 0)" style="fill: #fff"/>
    <path d="M422.77,46.57a.38.38,0,0,1-.4-.4v-.32a.38.38,0,0,1,.4-.4h.72c1.68,0,2.6-.68,3.92-4.2l.8-2.12-7-18.32c-.08-.24,0-.4.28-.4h.48c.28,0,.4.08.52.4l6.4,16.64h0l6.28-16.64c.12-.32.24-.4.52-.4h.48c.28,0,.36.16.28.4l-8,20.76c-1.64,4.28-2.92,5-5.08,5Z" transform="translate(0 0)" style="fill: #fff"/>
  </g>
</svg>
